<svg xmlns="http://www.w3.org/2000/svg" xmlns:xlink="http://www.w3.org/1999/xlink" width="53.366" height="53.366" viewBox="0 0 53.366 53.366"><defs><clipPath id="a"><rect width="46.034" height="46.018" fill="#fff"/></clipPath><clipPath id="b"><rect width="53.364" height="53.364" fill="none"/></clipPath></defs><g transform="translate(-818.817 -535.074)"><path d="M53.366,26.683A26.683,26.683,0,1,1,26.683,0,26.683,26.683,0,0,1,53.366,26.683" transform="translate(818.817 535.074)" fill="none"/><g transform="translate(822.608 538.769)" opacity="0.126"><g clip-path="url(#a)"><path d="M52.84,33.929c1.015-.77,1.015-.872,1.075-.958-.01-.1.04-.194-.461-1.364.77,1.015.872,1.015.958,1.075.1-.01.194.04,1.365-.461-1.015.77-1.015.872-1.075.958.01.105-.04.194.461,1.365-.77-1.015-.872-1.015-.958-1.075-.1.01-.194-.04-1.364.461" transform="translate(-39.175 -23.432)" fill="#fff"/><path d="M113.566,32.137c1.2.514,1.288.463,1.4.473.088-.062.193-.062.981-1.1-.514,1.2-.462,1.288-.473,1.4.062.088.062.193,1.1.981-1.2-.514-1.288-.463-1.395-.472-.088.062-.193.062-.981,1.1.514-1.2.463-1.288.472-1.395-.061-.088-.062-.193-1.1-.981" transform="translate(-84.196 -23.362)" fill="#fff"/><path d="M144.58,81.947c.164,1.292.254,1.345.3,1.442.1.045.151.135,1.445.288-1.292.164-1.345.254-1.442.3-.045.1-.135.151-.288,1.444-.164-1.292-.254-1.345-.3-1.442-.1-.045-.151-.135-1.445-.288,1.292-.164,1.345-.254,1.442-.3.045-.1.135-.151.288-1.445" transform="translate(-105.906 -60.754)" fill="#fff"/><path d="M23.436,81.947c.164,1.292.254,1.345.3,1.442.1.045.151.135,1.445.288-1.292.164-1.345.254-1.442.3-.045.1-.135.151-.288,1.444-.164-1.292-.254-1.345-.3-1.442-.1-.045-.151-.135-1.445-.288,1.292-.164,1.345-.254,1.442-.3.045-.1.135-.151.288-1.445" transform="translate(-16.092 -60.754)" fill="#fff"/><path d="M53.364,137.878c.32-1.233.258-1.313.251-1.418-.072-.076-.088-.177-1.207-.786,1.233.32,1.313.258,1.418.252.076-.073.177-.088.786-1.207-.32,1.233-.258,1.313-.251,1.418.072.077.088.177,1.207.786-1.233-.32-1.313-.258-1.418-.251-.076.072-.177.088-.786,1.207" transform="translate(-38.855 -99.877)" fill="#fff"/><path d="M113.257,137.047c1.111-.68,1.121-.784,1.191-.866,0-.108.061-.193-.331-1.435.68,1.11.784,1.121.866,1.191.108,0,.193.061,1.435-.331-1.111.68-1.121.784-1.191.866,0,.108-.061.193.331,1.435-.68-1.111-.784-1.121-.866-1.191-.108,0-.193-.061-1.435.331" transform="translate(-83.967 -99.898)" fill="#fff"/><path d="M78.957,15.58a2.634,2.634,0,1,1,2.634,2.634,2.634,2.634,0,0,1-2.634-2.634" transform="translate(-58.537 -9.598)" fill="#fff"/><path d="M138.858,50.973a2.623,2.623,0,0,0,1.981-.911,2.6,2.6,0,0,1,0-3.462,2.637,2.637,0,1,0-1.981,4.373" transform="translate(-100.988 -33.873)" fill="#fff"/><path d="M138.108,117.449a2.617,2.617,0,0,0,1.424-.424,2.618,2.618,0,0,1,0-4.408,2.626,2.626,0,1,0-1.424,4.832" transform="translate(-100.442 -83.178)" fill="#fff"/><path d="M24.5,47.749a2.829,2.829,0,0,1,2.335-2.785,2.655,2.655,0,0,0-.463-.046,2.831,2.831,0,1,0,0,5.661,2.644,2.644,0,0,0,.462-.046A2.83,2.83,0,0,1,24.5,47.749" transform="translate(-17.454 -33.301)" fill="#fff"/><path d="M82.09,150.429a2.6,2.6,0,0,0,1.1-.247,2.611,2.611,0,0,1,0-4.75,2.592,2.592,0,0,0-1.1-.247,2.622,2.622,0,1,0,0,5.244" transform="translate(-58.916 -107.637)" fill="#fff"/><path d="M27.457,116.4a2.762,2.762,0,0,1,1.9-2.624,2.675,2.675,0,0,0-.841-.138,2.762,2.762,0,0,0,0,5.524,2.681,2.681,0,0,0,.841-.138,2.762,2.762,0,0,1-1.9-2.624" transform="translate(-19.095 -84.251)" fill="#fff"/><path d="M50.2,63.718a13.528,13.528,0,1,1,11.742-6.762A13.445,13.445,0,0,1,50.2,63.718m-6.593-2.068a13.232,13.232,0,1,0-6.165-8.034,13.249,13.249,0,0,0,6.165,8.034" transform="translate(-27.199 -27.181)" fill="#fff"/><path d="M53.1,65.6a12.519,12.519,0,1,1,10.865-6.258A12.44,12.44,0,0,1,53.1,65.6m.042-24.871a12.351,12.351,0,1,0,6.156,1.653,12.363,12.363,0,0,0-6.156-1.653" transform="translate(-30.093 -30.074)" fill="#fff"/><path d="M26.353,48.17s-.381,0-.572-.007a.145.145,0,0,1-.141-.149.137.137,0,0,1,.149-.141q.282.008.563.008a.145.145,0,1,1,0,.29m.568-.007a.145.145,0,0,1,0-.29c.188,0,.376-.013.564-.022a.141.141,0,0,1,.153.137.145.145,0,0,1-.138.153c-.19.01-.575.023-.575.023m-1.7-.022s-.388-.023-.578-.038a.145.145,0,0,1-.133-.156.142.142,0,0,1,.156-.133q.281.022.563.037a.145.145,0,0,1-.008.29m2.838-.038a.145.145,0,0,1-.011-.29q.282-.023.562-.052a.145.145,0,1,1,.03.289q-.284.029-.569.052h-.012m-3.97-.052h-.016q-.284-.03-.568-.068a.145.145,0,0,1,.038-.288q.28.037.56.066a.145.145,0,0,1-.015.29m5.1-.066a.145.145,0,0,1-.019-.289q.28-.037.558-.081a.145.145,0,1,1,.045.287q-.282.045-.566.082h-.019M22.958,47.9l-.023,0q-.282-.044-.564-.1a.145.145,0,1,1,.053-.286q.277.052.556.1a.145.145,0,0,1-.022.289m7.348-.095a.145.145,0,0,1-.026-.288q.277-.051.553-.11a.145.145,0,1,1,.06.284q-.28.059-.561.111l-.027,0m-8.465-.113a.139.139,0,0,1-.031,0q-.279-.059-.558-.127a.145.145,0,0,1,.068-.282q.274.066.55.125a.145.145,0,0,1-.03.287m9.577-.123a.145.145,0,0,1-.034-.287q.274-.065.547-.138a.145.145,0,1,1,.075.281q-.277.074-.555.14a.139.139,0,0,1-.034,0m-10.681-.144a.163.163,0,0,1-.038,0c-.184-.05-.367-.1-.55-.156a.145.145,0,1,1,.083-.278q.27.081.543.154a.145.145,0,0,1-.038.286m11.78-.149a.145.145,0,0,1-.041-.285q.271-.08.539-.167a.145.145,0,0,1,.089.276q-.272.088-.546.169a.152.152,0,0,1-.041.006M19.648,47.1A.145.145,0,0,1,19.6,47.1q-.271-.088-.541-.185a.145.145,0,0,1,.1-.274q.267.1.534.183a.145.145,0,0,1-.045.283m13.95-.174a.145.145,0,0,1-.048-.282q.266-.094.53-.195a.145.145,0,1,1,.1.271c-.178.069-.357.134-.537.2a.145.145,0,0,1-.048.008m-15.02-.207a.143.143,0,0,1-.053-.01q-.266-.1-.53-.213a.145.145,0,1,1,.111-.268q.261.109.524.21a.145.145,0,0,1-.052.281m16.081-.2a.145.145,0,0,1-.056-.279q.261-.108.519-.222a.145.145,0,1,1,.118.266q-.261.116-.526.225a.146.146,0,0,1-.055.011m-17.13-.238a.147.147,0,0,1-.059-.013q-.26-.117-.519-.24a.145.145,0,1,1,.125-.262q.255.122.512.237a.145.145,0,0,1-.059.278m18.17-.223a.145.145,0,0,1-.062-.276q.255-.121.507-.249a.145.145,0,0,1,.131.259q-.255.129-.514.252a.147.147,0,0,1-.062.014M16.5,45.795a.144.144,0,0,1-.066-.016q-.254-.13-.506-.267a.145.145,0,1,1,.139-.255q.248.135.5.263a.145.145,0,0,1-.066.274m20.208-.247a.145.145,0,0,1-.069-.273q.248-.135.494-.275a.145.145,0,0,1,.145.252q-.248.143-.5.279a.145.145,0,0,1-.069.018m-21.2-.29a.144.144,0,0,1-.072-.019q-.249-.143-.492-.292a.145.145,0,0,1,.152-.248q.24.147.485.289a.145.145,0,0,1-.073.271M37.7,44.982a.145.145,0,0,1-.076-.269q.241-.147.479-.3a.145.145,0,0,1,.158.244q-.241.155-.485.3a.144.144,0,0,1-.076.021m-23.151-.317a.144.144,0,0,1-.079-.023q-.241-.156-.476-.317a.145.145,0,1,1,.164-.24q.232.159.47.313a.145.145,0,0,1-.079.267m24.105-.3a.145.145,0,0,1-.082-.265q.233-.16.462-.326a.145.145,0,1,1,.17.235q-.232.168-.469.33a.143.143,0,0,1-.082.026m-25.043-.341a.144.144,0,0,1-.085-.027q-.232-.168-.459-.342a.145.145,0,1,1,.176-.231q.223.171.453.337a.145.145,0,0,1-.085.263M39.576,43.7a.145.145,0,0,1-.088-.26q.224-.172.444-.35a.145.145,0,0,1,.183.226q-.223.18-.451.354a.144.144,0,0,1-.088.03m-26.867-.364a.144.144,0,0,1-.091-.032q-.223-.18-.44-.365a.145.145,0,1,1,.188-.221q.215.183.435.361a.145.145,0,0,1-.092.258m27.753-.351a.145.145,0,0,1-.094-.256q.215-.183.425-.373a.145.145,0,1,1,.194.216q-.213.192-.431.377a.143.143,0,0,1-.094.035m-28.619-.386a.145.145,0,0,1-.1-.037q-.214-.192-.422-.389a.145.145,0,1,1,.2-.211q.2.194.416.384a.145.145,0,0,1-.1.253m29.465-.375a.145.145,0,0,1-.1-.251q.2-.194.405-.395a.145.145,0,0,1,.205.205q-.2.2-.41.4a.145.145,0,0,1-.1.04M11.016,41.81a.145.145,0,0,1-.1-.043q-.2-.2-.4-.41a.145.145,0,1,1,.211-.2q.194.2.395.405a.145.145,0,0,1-.1.248m31.1-.4a.145.145,0,0,1-.105-.245q.195-.2.384-.416a.145.145,0,0,1,.216.194q-.192.214-.389.421a.144.144,0,0,1-.105.045m-31.882-.429a.145.145,0,0,1-.108-.048q-.192-.213-.378-.431a.145.145,0,0,1,.221-.189q.183.215.373.425a.145.145,0,0,1-.108.243m32.644-.418a.145.145,0,0,1-.111-.24q.183-.214.361-.434a.145.145,0,0,1,.226.183q-.18.223-.366.44a.145.145,0,0,1-.11.051M9.493,40.118a.145.145,0,0,1-.113-.054q-.18-.223-.355-.451a.145.145,0,1,1,.231-.176q.172.225.35.444a.145.145,0,0,1-.113.237m34.1-.436a.145.145,0,0,1-.115-.233q.171-.224.338-.453a.145.145,0,0,1,.235.17q-.169.232-.342.459a.145.145,0,0,1-.115.057M8.8,39.215a.145.145,0,0,1-.118-.06q-.168-.232-.33-.468a.145.145,0,0,1,.24-.164q.16.233.326.462a.145.145,0,0,1-.032.2.143.143,0,0,1-.085.028m35.457-.452a.145.145,0,0,1-.12-.227q.159-.232.313-.469a.145.145,0,0,1,.244.158q-.156.241-.318.476a.145.145,0,0,1-.119.063m-36.1-.487a.146.146,0,0,1-.122-.066q-.156-.241-.3-.485a.145.145,0,0,1,.248-.151q.147.241.3.478a.145.145,0,0,1-.122.224m36.719-.466a.145.145,0,0,1-.124-.221q.147-.24.289-.485a.145.145,0,1,1,.252.145q-.144.248-.293.491a.145.145,0,0,1-.124.07m-37.313-.5a.145.145,0,0,1-.126-.073q-.143-.248-.279-.5a.145.145,0,1,1,.255-.138q.135.248.275.494a.145.145,0,0,1-.126.217m37.881-.48a.145.145,0,0,1-.128-.215q.135-.248.263-.5a.145.145,0,1,1,.259.132q-.129.254-.267.506a.145.145,0,0,1-.127.076m-38.423-.52a.146.146,0,0,1-.13-.079q-.13-.256-.253-.514a.145.145,0,0,1,.262-.125q.121.255.249.507a.146.146,0,0,1-.064.2.149.149,0,0,1-.066.016m38.939-.491a.145.145,0,0,1-.131-.208q.122-.255.237-.512a.145.145,0,0,1,.265.119q-.116.26-.24.518a.145.145,0,0,1-.131.083M6.535,35.278a.145.145,0,0,1-.133-.086q-.116-.261-.226-.526a.145.145,0,0,1,.269-.111q.107.261.222.519a.145.145,0,0,1-.133.2m39.891-.5a.145.145,0,0,1-.134-.2q.109-.261.21-.523a.145.145,0,1,1,.271.1q-.1.266-.213.53a.146.146,0,0,1-.134.089M6.1,34.227a.145.145,0,0,1-.136-.093q-.1-.267-.2-.537a.145.145,0,0,1,.274-.1q.094.267.195.53a.146.146,0,0,1-.084.187.141.141,0,0,1-.052.01m40.733-.509a.145.145,0,0,1-.137-.194c.064-.178.124-.355.182-.534a.145.145,0,0,1,.276.091q-.088.271-.184.541a.146.146,0,0,1-.137.1M5.722,33.155a.145.145,0,0,1-.138-.1q-.088-.272-.169-.546a.145.145,0,0,1,.279-.082q.08.271.167.539a.146.146,0,0,1-.094.183.142.142,0,0,1-.045.007m41.464-.517a.152.152,0,0,1-.041-.006.145.145,0,0,1-.1-.181q.081-.271.154-.543a.145.145,0,1,1,.28.076q-.074.275-.156.55a.145.145,0,0,1-.139.1M5.4,32.065a.145.145,0,0,1-.14-.108q-.074-.276-.141-.554a.145.145,0,0,1,.282-.068q.066.274.139.547a.145.145,0,0,1-.14.183m42.082-.524a.153.153,0,0,1-.034,0,.145.145,0,0,1-.107-.175q.066-.275.125-.55a.145.145,0,1,1,.284.061c-.04.186-.082.372-.127.557a.145.145,0,0,1-.141.111M5.136,30.961a.145.145,0,0,1-.142-.115q-.059-.28-.111-.561a.145.145,0,1,1,.286-.053q.052.277.11.553a.145.145,0,0,1-.112.172.155.155,0,0,1-.03,0m42.584-.53-.027,0a.145.145,0,0,1-.116-.169q.052-.277.1-.556a.145.145,0,0,1,.287.045q-.045.282-.1.564a.145.145,0,0,1-.142.118M4.929,29.844a.146.146,0,0,1-.143-.123q-.045-.282-.082-.566a.145.145,0,0,1,.125-.163.143.143,0,0,1,.163.125q.037.28.081.559a.145.145,0,0,1-.121.166l-.023,0M47.9,29.308h-.019a.145.145,0,0,1-.125-.163q.037-.28.066-.561a.145.145,0,0,1,.289.031q-.03.284-.068.568a.145.145,0,0,1-.144.126M4.78,28.717a.145.145,0,0,1-.144-.13q-.03-.284-.053-.569a.145.145,0,0,1,.133-.156.143.143,0,0,1,.156.133q.022.282.052.562a.145.145,0,0,1-.129.16H4.78m43.237-.539a.147.147,0,0,1-.145-.157q.022-.281.037-.563a.141.141,0,0,1,.153-.137.145.145,0,0,1,.137.152c-.01.191-.022.381-.037.571a.145.145,0,0,1-.144.134M4.691,27.585a.146.146,0,0,1-.145-.138q-.015-.286-.022-.571a.145.145,0,0,1,.141-.149.152.152,0,0,1,.149.141q.008.282.023.564a.145.145,0,0,1-.137.153H4.691m43.385-.542a.146.146,0,0,1-.145-.149q.007-.28.007-.559a.147.147,0,0,1,.145-.148.143.143,0,0,1,.145.143s0,.383-.007.572a.145.145,0,0,1-.145.141m-43.415-.6a.14.14,0,0,1-.145-.139H4.66L4.515,26.3c0-.192,0-.378.007-.565a.145.145,0,0,1,.29.007q-.007.277-.007.553a.15.15,0,0,1-.145.151m43.415-.537a.145.145,0,0,1-.145-.141q-.008-.282-.022-.564a.145.145,0,0,1,.137-.153.141.141,0,0,1,.153.138q.015.285.023.571a.145.145,0,0,1-.141.149ZM4.69,25.313a.146.146,0,0,1-.145-.153q.015-.286.037-.571a.145.145,0,0,1,.29.023c-.015.187-.027.375-.037.563a.145.145,0,0,1-.145.138m43.326-.541a.145.145,0,0,1-.145-.133q-.023-.281-.052-.562a.145.145,0,1,1,.289-.031q.03.284.052.569a.145.145,0,0,1-.133.156h-.012M4.778,24.181H4.763a.145.145,0,0,1-.129-.16q.03-.284.067-.568a.143.143,0,0,1,.163-.125.145.145,0,0,1,.125.163q-.037.28-.066.56a.145.145,0,0,1-.144.13M47.9,23.644a.145.145,0,0,1-.144-.126q-.037-.28-.081-.559a.145.145,0,0,1,.287-.045q.045.282.082.566a.145.145,0,0,1-.125.163l-.019,0m-42.97-.589-.023,0a.145.145,0,0,1-.121-.166q.045-.282.1-.564a.145.145,0,0,1,.286.053q-.052.278-.1.556a.145.145,0,0,1-.143.123m42.792-.532a.145.145,0,0,1-.143-.119q-.051-.277-.11-.554a.145.145,0,1,1,.284-.06q.059.28.111.561a.145.145,0,0,1-.116.169l-.027,0M5.134,21.937a.155.155,0,0,1-.031,0,.145.145,0,0,1-.112-.172q.059-.28.127-.558a.145.145,0,1,1,.282.068q-.066.275-.125.55a.145.145,0,0,1-.142.115m42.349-.527a.146.146,0,0,1-.141-.112q-.065-.274-.138-.547a.145.145,0,0,1,.281-.075q.074.276.14.555a.145.145,0,0,1-.108.175.149.149,0,0,1-.034,0M5.4,20.833a.159.159,0,0,1-.038,0,.146.146,0,0,1-.1-.178q.074-.276.156-.55a.145.145,0,1,1,.278.083q-.08.271-.154.543a.145.145,0,0,1-.14.108m41.791-.521a.146.146,0,0,1-.139-.1q-.08-.271-.167-.539a.145.145,0,0,1,.276-.089q.088.272.169.546a.145.145,0,0,1-.1.18.141.141,0,0,1-.041.006M5.724,19.744a.136.136,0,0,1-.045-.007.145.145,0,0,1-.093-.183q.088-.271.184-.541a.145.145,0,1,1,.274.1q-.1.267-.182.534a.145.145,0,0,1-.138.1m41.117-.514a.145.145,0,0,1-.137-.1q-.094-.266-.195-.53a.145.145,0,1,1,.271-.1q.1.267.2.537a.145.145,0,0,1-.089.185.142.142,0,0,1-.048.009M6.1,18.674a.143.143,0,0,1-.052-.01.145.145,0,0,1-.083-.188q.1-.266.213-.531a.145.145,0,1,1,.268.112q-.108.261-.21.523a.145.145,0,0,1-.136.093m40.33-.5a.145.145,0,0,1-.134-.09q-.107-.261-.222-.519a.145.145,0,1,1,.266-.118q.116.262.225.526a.146.146,0,0,1-.134.2M6.541,17.625a.143.143,0,0,1-.059-.013.145.145,0,0,1-.073-.192q.116-.261.24-.519a.145.145,0,1,1,.262.125q-.122.255-.237.512a.145.145,0,0,1-.133.086m39.434-.5a.145.145,0,0,1-.131-.083q-.121-.255-.249-.507a.145.145,0,1,1,.259-.131q.13.255.252.514a.145.145,0,0,1-.069.193.147.147,0,0,1-.062.014M7.031,16.6a.147.147,0,0,1-.066-.016.145.145,0,0,1-.063-.2q.13-.254.266-.506a.145.145,0,1,1,.255.139q-.135.248-.263.5a.145.145,0,0,1-.13.079m38.429-.486a.145.145,0,0,1-.128-.076q-.134-.248-.275-.494a.145.145,0,0,1,.252-.145q.143.248.279.5a.145.145,0,0,1-.059.2.147.147,0,0,1-.069.017M7.574,15.6a.145.145,0,0,1-.126-.218q.144-.249.292-.492a.145.145,0,0,1,.248.152q-.147.24-.289.485a.145.145,0,0,1-.126.073m37.319-.474a.146.146,0,0,1-.124-.07q-.147-.241-.3-.479a.145.145,0,1,1,.244-.158q.155.241.3.485a.146.146,0,0,1-.048.2.143.143,0,0,1-.076.021m-36.726-.5a.145.145,0,0,1-.122-.224q.156-.241.317-.476A.145.145,0,1,1,8.6,14.1q-.159.232-.313.47a.146.146,0,0,1-.122.066m36.107-.46a.145.145,0,0,1-.12-.063q-.16-.233-.326-.462a.145.145,0,1,1,.236-.17q.168.232.33.468a.145.145,0,0,1-.12.227M8.81,13.7a.143.143,0,0,1-.085-.028.145.145,0,0,1-.032-.2q.168-.232.342-.459a.145.145,0,1,1,.23.176q-.171.224-.337.453a.145.145,0,0,1-.118.06m34.8-.445a.145.145,0,0,1-.115-.057q-.171-.224-.349-.444a.145.145,0,1,1,.226-.183q.18.223.355.451a.145.145,0,0,1-.116.233M9.5,12.795a.145.145,0,0,1-.113-.236q.18-.223.365-.44a.145.145,0,1,1,.221.188q-.183.215-.361.434a.144.144,0,0,1-.113.054m33.39-.428a.145.145,0,0,1-.111-.051q-.183-.215-.372-.425a.145.145,0,0,1,.216-.195q.192.213.378.431a.145.145,0,0,1-.016.2.143.143,0,0,1-.094.035m-32.652-.438a.145.145,0,0,1-.108-.242q.192-.214.389-.422a.145.145,0,0,1,.211.2q-.195.2-.384.416a.145.145,0,0,1-.108.048m31.89-.408a.144.144,0,0,1-.105-.045q-.195-.2-.4-.405a.145.145,0,0,1,.206-.205q.2.2.4.41a.145.145,0,0,1-.005.205.143.143,0,0,1-.1.04M11.023,11.1a.145.145,0,0,1-.1-.248q.2-.2.411-.4a.145.145,0,1,1,.2.211q-.205.194-.405.395a.146.146,0,0,1-.1.043m30.3-.386a.145.145,0,0,1-.1-.04q-.2-.195-.416-.384A.145.145,0,1,1,41,10.075q.214.192.422.389a.145.145,0,0,1-.1.25m-29.475-.4a.145.145,0,0,1-.1-.253q.213-.192.431-.378a.145.145,0,0,1,.189.221q-.215.183-.425.373a.144.144,0,0,1-.1.037m28.627-.364a.144.144,0,0,1-.094-.035q-.215-.183-.434-.361a.145.145,0,0,1,.183-.226q.223.18.44.365a.145.145,0,0,1-.094.256M12.715,9.579a.145.145,0,0,1-.092-.258q.223-.18.45-.354a.145.145,0,0,1,.177.23q-.224.173-.445.35a.144.144,0,0,1-.091.032m26.877-.34a.145.145,0,0,1-.088-.03q-.223-.171-.453-.337a.145.145,0,1,1,.17-.236q.232.168.459.342a.145.145,0,0,1-.088.26M13.619,8.886a.145.145,0,0,1-.085-.263q.232-.168.468-.33a.145.145,0,1,1,.164.239q-.233.16-.462.326a.144.144,0,0,1-.085.028m25.054-.314a.145.145,0,0,1-.083-.026q-.232-.159-.469-.313a.145.145,0,0,1,.158-.244q.241.156.476.318a.145.145,0,0,1-.082.265M14.558,8.243a.145.145,0,0,1-.079-.267q.241-.156.485-.305a.145.145,0,0,1,.152.248q-.241.147-.478.3a.146.146,0,0,1-.079.023m23.161-.29a.147.147,0,0,1-.076-.021q-.24-.147-.485-.288a.145.145,0,0,1,.145-.252q.249.144.492.292a.145.145,0,0,1-.076.269m-22.191-.3a.145.145,0,0,1-.073-.271q.249-.144.5-.279a.145.145,0,1,1,.138.256q-.248.134-.493.275a.144.144,0,0,1-.072.019m21.207-.265a.144.144,0,0,1-.07-.018q-.248-.135-.5-.263a.145.145,0,0,1,.132-.259q.254.13.506.267a.145.145,0,0,1-.07.273M16.529,7.109a.145.145,0,0,1-.066-.275q.255-.13.514-.252a.145.145,0,0,1,.125.262q-.256.121-.507.249a.146.146,0,0,1-.066.016m19.2-.241a.146.146,0,0,1-.063-.014q-.256-.122-.512-.237a.145.145,0,1,1,.119-.265q.26.116.519.24a.145.145,0,0,1-.063.276M17.556,6.621a.145.145,0,0,1-.059-.278q.262-.116.526-.225a.145.145,0,0,1,.111.268q-.261.108-.519.222a.148.148,0,0,1-.059.012M34.687,6.4a.147.147,0,0,1-.056-.011q-.261-.108-.524-.21a.145.145,0,1,1,.1-.271q.266.1.53.212a.145.145,0,0,1-.056.28m-16.08-.217a.145.145,0,0,1-.052-.281q.267-.1.537-.2a.145.145,0,0,1,.1.274q-.266.094-.53.195a.142.142,0,0,1-.052.01M33.628,6a.146.146,0,0,1-.049-.008q-.267-.1-.534-.182a.145.145,0,1,1,.09-.276q.271.088.541.185A.145.145,0,0,1,33.628,6M19.679,5.81a.145.145,0,0,1-.044-.283q.272-.088.546-.169a.145.145,0,1,1,.082.279q-.271.08-.539.167a.149.149,0,0,1-.045.007m12.869-.166a.145.145,0,0,1-.042-.006q-.27-.081-.543-.154a.145.145,0,0,1,.076-.281q.276.074.55.156a.145.145,0,0,1-.041.284M20.769,5.488a.145.145,0,0,1-.037-.286q.276-.074.555-.14a.145.145,0,0,1,.067.282q-.274.065-.547.138a.144.144,0,0,1-.038,0M31.45,5.349a.156.156,0,0,1-.034,0q-.275-.066-.55-.125a.145.145,0,0,1,.061-.284q.279.06.557.126a.145.145,0,0,1-.034.287m-9.577-.126a.145.145,0,0,1-.03-.287q.28-.059.561-.111a.147.147,0,0,1,.169.116.145.145,0,0,1-.116.169q-.277.051-.553.11a.15.15,0,0,1-.03,0m8.466-.111-.027,0q-.277-.052-.556-.1a.145.145,0,1,1,.045-.287q.282.044.564.1a.145.145,0,0,1-.026.288m-7.349-.1a.145.145,0,0,1-.023-.288q.282-.045.566-.082a.145.145,0,1,1,.037.288q-.28.037-.558.081l-.023,0m6.227-.082H29.2c-.187-.024-.373-.047-.561-.066a.145.145,0,0,1,.031-.289q.284.03.568.067a.145.145,0,0,1-.018.289m-5.1-.066a.145.145,0,0,1-.015-.29q.284-.03.569-.052a.145.145,0,1,1,.023.289q-.281.022-.561.052h-.016m3.971-.053c-.2-.015-.387-.027-.575-.037a.145.145,0,0,1-.138-.152.138.138,0,0,1,.153-.138q.286.015.571.037a.145.145,0,0,1-.011.29m-2.839-.036a.145.145,0,0,1-.007-.29q.285-.016.571-.023a.145.145,0,1,1,.008.29c-.188.005-.572.023-.572.023m1.7-.023s-.375-.007-.561-.007a.149.149,0,0,1-.149-.145.142.142,0,0,1,.141-.145s.384,0,.572.007a.145.145,0,0,1,0,.29" transform="translate(-3.347 -3.305)" fill="#fff"/><path d="M39.374,10.709a20.966,20.966,0,1,0,7.675,28.644,20.993,20.993,0,0,0-7.675-28.644m-.145.252a20.562,20.562,0,0,1,5.779,4.963,10.581,10.581,0,0,0-7.041-2.772A10.58,10.58,0,0,0,32.05,8.439a20.557,20.557,0,0,1,7.179,2.522M25.7,8.452a10.583,10.583,0,0,0-5.878,4.7,10.58,10.58,0,0,0-7.071,2.8A20.681,20.681,0,0,1,25.7,8.452M8.915,34.221a20.521,20.521,0,0,1,.708-12.872,10.585,10.585,0,0,0,1.107,7.516,10.586,10.586,0,0,0-1.007,2.467,10.479,10.479,0,0,0-.109,5.024,21.046,21.046,0,0,1-.7-2.135M18.55,46.777a20.658,20.658,0,0,1-5.815-4.991,10.482,10.482,0,0,0,4.436,2.446,10.591,10.591,0,0,0,2.644.36A10.583,10.583,0,0,0,25.729,49.3a20.563,20.563,0,0,1-7.179-2.522m13.534,2.509a10.581,10.581,0,0,0,5.877-4.7,10.578,10.578,0,0,0,7.09-2.82,20.679,20.679,0,0,1-12.968,7.518m14.664-10.1A10.246,10.246,0,0,1,38.13,44.3a10.461,10.461,0,0,0,1.129-6.86c-.081.1-.163.2-.247.293A10.142,10.142,0,0,1,37.794,44.3a10.173,10.173,0,0,1-5.036-1.367,10.327,10.327,0,0,1-1.267-.868c-.124.025-.248.051-.373.072a10.634,10.634,0,0,0,1.5,1.048,10.463,10.463,0,0,0,5.014,1.4,10.236,10.236,0,0,1-17.479,0,10.474,10.474,0,0,0,5.014-1.408,10.651,10.651,0,0,0,1.49-1.044c-.125-.021-.25-.046-.374-.071a10.347,10.347,0,0,1-1.261.863A10.173,10.173,0,0,1,19.979,44.3a10.135,10.135,0,0,1-1.215-6.57c-.084-.1-.167-.191-.248-.288a10.457,10.457,0,0,0,1.127,6.857A10.245,10.245,0,0,1,10.9,29.157a10.474,10.474,0,0,0,3.731,3.64,10.583,10.583,0,0,0,1.651.768c-.044-.118-.083-.238-.124-.358a10.316,10.316,0,0,1-1.382-.662,10.175,10.175,0,0,1-3.707-3.686,10.176,10.176,0,0,1,5.085-4.331c.041-.121.086-.241.13-.361a10.492,10.492,0,0,0-5.381,4.4,10.23,10.23,0,0,1,8.742-15.123A10.463,10.463,0,0,0,18.52,20.3c.081-.1.163-.2.247-.293a10.141,10.141,0,0,1,1.218-6.569,10.16,10.16,0,0,1,6.3,2.236c.124-.025.248-.051.373-.072a10.586,10.586,0,0,0-1.5-1.048,10.469,10.469,0,0,0-5.011-1.405,10.235,10.235,0,0,1,17.477,0,10.456,10.456,0,0,0-6.5,2.449c.125.021.249.046.373.071a10.139,10.139,0,0,1,6.3-2.231,10.139,10.139,0,0,1,1.216,6.57c.083.1.167.19.248.288a10.461,10.461,0,0,0-1.124-6.851,10.242,10.242,0,0,1,8.736,15.138A10.451,10.451,0,0,0,41.5,24.174c.044.118.083.238.124.358a10.131,10.131,0,0,1,5.087,4.347,10.177,10.177,0,0,1-5.084,4.331c-.041.12-.085.239-.13.359a10.476,10.476,0,0,0,5.38-4.4,10.245,10.245,0,0,1-.124,10.013m.295-10.3a10.607,10.607,0,0,0,1.011-2.474,10.48,10.48,0,0,0,.123-4.955,20.682,20.682,0,0,1-.027,14.944,10.584,10.584,0,0,0-1.107-7.514" transform="translate(-5.865 -5.86)" fill="#fff"/><path d="M22.986,46.019a23.01,23.01,0,1,1,19.971-11.5,22.871,22.871,0,0,1-19.971,11.5m-11.323-3.33a22.724,22.724,0,1,0-10.588-13.8,22.752,22.752,0,0,0,10.588,13.8" transform="translate(0 0)" fill="#fff"/><path d="M124.463,152.963a.778.778,0,1,0-.778-.778.779.779,0,0,0,.778.778" transform="translate(-91.698 -112.25)" fill="#fff"/><path d="M49.074,152.963a.778.778,0,1,0-.778-.778.779.779,0,0,0,.778.778" transform="translate(-35.806 -112.25)" fill="#fff"/><path d="M124.463,22.12a.778.778,0,1,0-.778-.778.779.779,0,0,0,.778.778" transform="translate(-91.698 -15.245)" fill="#fff"/><path d="M49.074,22.12a.778.778,0,1,0-.778-.778.779.779,0,0,0,.778.778" transform="translate(-35.806 -15.245)" fill="#fff"/><path d="M11.309,87.516a.778.778,0,1,0-.778-.778.779.779,0,0,0,.778.778" transform="translate(-7.807 -63.728)" fill="#fff"/><path d="M162.088,87.516a.778.778,0,1,0-.778-.778.779.779,0,0,0,.778.778" transform="translate(-119.592 -63.728)" fill="#fff"/></g></g><g transform="translate(818.817 535.076)"><g clip-path="url(#b)"><path d="M27.6,1.5A26.1,26.1,0,1,0,53.7,27.6,26.128,26.128,0,0,0,27.6,1.5m0,51.644A25.545,25.545,0,1,1,53.144,27.6,25.573,25.573,0,0,1,27.6,53.144" transform="translate(-0.915 -0.915)" fill="#dcbd76"/><path d="M34.02,12.03A21.992,21.992,0,1,0,56.013,34.02,22.014,22.014,0,0,0,34.02,12.03m0,43.706A21.715,21.715,0,1,1,55.736,34.02,21.739,21.739,0,0,1,34.02,55.736" transform="translate(-7.338 -7.338)" fill="#dcbd76"/><path d="M32.836,10.09a22.748,22.748,0,1,0,22.75,22.746A22.771,22.771,0,0,0,32.836,10.09m0,45.22A22.471,22.471,0,1,1,55.31,32.836,22.5,22.5,0,0,1,32.836,55.31" transform="translate(-6.155 -6.155)" fill="#dcbd76"/><path d="M26.682,0A26.682,26.682,0,1,0,53.364,26.682,26.713,26.713,0,0,0,26.682,0m0,53.087a26.4,26.4,0,1,1,26.4-26.4,26.435,26.435,0,0,1-26.4,26.4" fill="#dcbd76"/><path d="M66.9,3.605a1.2,1.2,0,0,0-.293-.035,1.153,1.153,0,0,0,0,2.305A1.2,1.2,0,0,0,66.9,5.84a1.155,1.155,0,0,0,0-2.235m0,1.931a.834.834,0,0,1-.261.043.875.875,0,0,1-.335-.07.854.854,0,0,0,0-1.568.808.808,0,0,1,.335-.07.832.832,0,0,1,.261.039.854.854,0,0,1,0,1.626" transform="translate(-39.929 -2.178)" fill="#dcbd76" fill-rule="evenodd"/><path d="M126.123,46.936a1.108,1.108,0,0,0-.382-.066,1.154,1.154,0,0,0,0,2.309,1.108,1.108,0,0,0,.382-.066,1.153,1.153,0,0,0,0-2.176m0,2a.992.992,0,1,1,.612-.917,1,1,0,0,1-.612.917" transform="translate(-75.996 -28.589)" fill="#dcbd76" fill-rule="evenodd"/><path d="M7.561,46.32a1.153,1.153,0,1,0,1.154,1.151A1.149,1.149,0,0,0,7.561,46.32m0,1.338a.925.925,0,0,1-.85-.566.934.934,0,0,1,.85-.569.925.925,0,0,1,.85.566.926.926,0,0,1-.85.569" transform="translate(-3.91 -28.254)" fill="#dcbd76" fill-rule="evenodd"/><path d="M30.169,114.894a1.136,1.136,0,0,0-.85-.335,1.149,1.149,0,0,0-.78,1.966,1.132,1.132,0,0,0,.78.339,1.155,1.155,0,0,0,.85-1.97m-.14,1.494a.964.964,0,0,1-1.353,0,.956.956,0,0,1,0-1.353A.921.921,0,0,1,29,114.82a.951.951,0,0,0,.215,1.03.788.788,0,0,0,.105.094.961.961,0,0,0,.924.121.957.957,0,0,1-.215.324" transform="translate(-17.2 -69.877)" fill="#dcbd76" fill-rule="evenodd"/><path d="M103,115.26a1.154,1.154,0,1,0,1.151,1.154A1.148,1.148,0,0,0,103,115.26m.378,2.032a.952.952,0,0,1-.378.078.993.993,0,0,1-.289-.043.956.956,0,0,1,0-1.825.877.877,0,0,1,.289-.043,1.022,1.022,0,0,1,.378.074.966.966,0,0,0-.581.881.956.956,0,0,0,.581.878" transform="translate(-62.126 -70.305)" fill="#dcbd76" fill-rule="evenodd"/><path d="M67.2,129.956a.111.111,0,0,1-.111-.11v-.556h-.555a.11.11,0,1,1,0-.221h.555v-.556a.111.111,0,0,1,.221,0v.556h.556a.11.11,0,0,1,0,.221h-.556v.556a.111.111,0,0,1-.11.11" transform="translate(-40.515 -78.322)" fill="#dcbd76"/><path d="M83.1,8.12a.1.1,0,0,1-.028,0A.11.11,0,0,1,83,7.981l.144-.537L82.6,7.3a.11.11,0,0,1,.057-.213l.537.144.144-.537a.11.11,0,0,1,.213.057l-.144.537.537.144a.11.11,0,0,1-.057.213L83.354,7.5l-.144.537a.11.11,0,0,1-.106.082" transform="translate(-50.336 -4.033)" fill="#dcbd76"/><path d="M51.019,127.857a.1.1,0,0,1-.028,0,.11.11,0,0,1-.078-.135l.144-.537-.537-.144a.11.11,0,1,1,.057-.213l.537.144.144-.537a.111.111,0,0,1,.214.057l-.144.537.537.144a.11.11,0,1,1-.057.213l-.537-.144-.144.537a.111.111,0,0,1-.107.082" transform="translate(-30.765 -77.069)" fill="#dcbd76"/><path d="M97.994,14.348a.11.11,0,0,1-.1-.166l.278-.481-.481-.278a.11.11,0,0,1,.111-.191l.481.278.278-.481a.11.11,0,0,1,.191.11l-.278.482.481.278a.11.11,0,0,1-.111.191l-.481-.278-.278.481a.11.11,0,0,1-.1.055" transform="translate(-59.557 -7.913)" fill="#dcbd76"/><path d="M36.014,121.7a.108.108,0,0,1-.055-.015.11.11,0,0,1-.041-.151l.278-.481-.482-.278a.11.11,0,1,1,.111-.191l.481.278.278-.481a.111.111,0,0,1,.192.111l-.278.481.481.278a.11.11,0,1,1-.11.191l-.481-.278-.278.481a.111.111,0,0,1-.1.055" transform="translate(-21.751 -73.396)" fill="#dcbd76"/><path d="M111.8,24.259a.108.108,0,0,1-.078-.032l-.394-.393-.394.393a.11.11,0,1,1-.156-.156l.393-.394-.393-.393a.11.11,0,1,1,.156-.156l.394.393.394-.393a.11.11,0,1,1,.156.156l-.393.393.393.394a.11.11,0,0,1-.078.188" transform="translate(-67.553 -14.087)" fill="#dcbd76"/><path d="M24.148,111.912a.108.108,0,0,1-.078-.032l-.393-.393-.393.393a.11.11,0,0,1-.156-.156l.393-.393-.393-.393a.11.11,0,0,1,.156-.156l.393.393.393-.393a.11.11,0,0,1,.156.156l-.393.393.393.393a.11.11,0,0,1,0,.156.108.108,0,0,1-.078.032" transform="translate(-14.087 -67.554)" fill="#dcbd76"/><path d="M121.348,37.035a.11.11,0,0,1-.1-.055l-.278-.481-.481.278a.11.11,0,0,1-.111-.191l.481-.278-.278-.481a.11.11,0,0,1,.191-.111l.278.481.481-.278a.11.11,0,1,1,.111.191l-.481.278.278.481a.11.11,0,0,1-.1.166" transform="translate(-73.397 -21.752)" fill="#dcbd76"/><path d="M13.994,99.015a.111.111,0,0,1-.1-.055l-.278-.481-.481.278a.11.11,0,1,1-.11-.191l.481-.278-.278-.482a.111.111,0,0,1,.192-.11l.278.481.481-.278a.11.11,0,1,1,.111.191l-.481.278.278.481a.11.11,0,0,1-.041.151.108.108,0,0,1-.055.015" transform="translate(-7.913 -59.558)" fill="#dcbd76"/><path d="M7.537,84.03a.11.11,0,0,1-.107-.082l-.144-.537-.537.144a.109.109,0,0,1-.135-.078.111.111,0,0,1,.078-.135l.537-.144-.144-.537A.111.111,0,0,1,7.3,82.6l.144.537L7.98,83a.11.11,0,1,1,.057.213l-.537.144.144.537a.11.11,0,0,1-.078.135.1.1,0,0,1-.028,0" transform="translate(-4.032 -50.336)" fill="#dcbd76"/><path d="M129.179,67.976a.111.111,0,0,1-.11-.11v-.556h-.556a.11.11,0,1,1,0-.221h.556v-.556a.11.11,0,1,1,.221,0v.556h.556a.11.11,0,1,1,0,.221h-.556v.556a.111.111,0,0,1-.11.11" transform="translate(-78.322 -40.516)" fill="#dcbd76"/><path d="M5.218,67.976a.111.111,0,0,1-.111-.11v-.556H4.552a.11.11,0,1,1,0-.221h.555v-.556a.111.111,0,0,1,.222,0v.556h.555a.11.11,0,1,1,0,.221H5.329v.556a.111.111,0,0,1-.111.11" transform="translate(-2.709 -40.516)" fill="#dcbd76"/><path d="M126.93,84.03a.1.1,0,0,1-.028,0,.11.11,0,0,1-.078-.135l.144-.537-.537-.144a.11.11,0,1,1,.057-.213l.537.144.144-.537a.11.11,0,0,1,.213.057l-.144.537.536.144a.11.11,0,0,1-.057.213l-.537-.144-.144.537a.11.11,0,0,1-.106.082" transform="translate(-77.069 -50.336)" fill="#dcbd76"/><path d="M120.682,99.015a.11.11,0,0,1-.1-.166l.278-.481-.481-.278a.11.11,0,1,1,.111-.191l.481.278.278-.481a.11.11,0,0,1,.191.11l-.278.482.481.278a.11.11,0,0,1-.111.191l-.481-.278-.278.481a.11.11,0,0,1-.1.055" transform="translate(-73.397 -59.558)" fill="#dcbd76"/><path d="M13.328,37.035a.108.108,0,0,1-.055-.015.11.11,0,0,1-.041-.151l.278-.481-.481-.278a.11.11,0,1,1,.111-.191l.481.278.278-.481a.111.111,0,0,1,.192.111l-.278.481.481.278a.11.11,0,1,1-.111.191L13.7,36.5l-.278.481a.111.111,0,0,1-.1.055" transform="translate(-7.913 -21.752)" fill="#dcbd76"/><path d="M111.8,111.912a.108.108,0,0,1-.078-.032l-.393-.393-.393.393a.11.11,0,0,1-.156-.156l.393-.393-.393-.393a.11.11,0,0,1,.156-.156l.393.393.393-.393a.11.11,0,0,1,.156.156l-.393.393.393.393a.11.11,0,0,1-.078.188" transform="translate(-67.554 -67.554)" fill="#dcbd76"/><path d="M24.148,24.258a.108.108,0,0,1-.078-.032l-.393-.393-.393.393a.11.11,0,0,1-.156-.156l.393-.393-.393-.393a.11.11,0,0,1,.156-.156l.393.393.393-.393a.11.11,0,0,1,.156.156l-.393.393.393.393a.11.11,0,0,1,0,.156.108.108,0,0,1-.078.032" transform="translate(-14.087 -14.087)" fill="#dcbd76"/><path d="M98.66,121.7a.11.11,0,0,1-.1-.055l-.278-.481-.481.278a.11.11,0,0,1-.111-.191l.482-.278-.277-.481a.11.11,0,1,1,.191-.111l.278.481.481-.278a.11.11,0,0,1,.111.191l-.481.278.278.481a.11.11,0,0,1-.1.166" transform="translate(-59.557 -73.397)" fill="#dcbd76"/><path d="M36.68,14.348a.111.111,0,0,1-.1-.055l-.278-.481-.481.278a.11.11,0,1,1-.111-.191l.481-.278-.278-.482a.111.111,0,0,1,.191-.11l.278.482.482-.278a.11.11,0,1,1,.11.191L36.5,13.7l.278.481a.11.11,0,0,1-.041.151.108.108,0,0,1-.055.015" transform="translate(-21.751 -7.913)" fill="#dcbd76"/><path d="M83.448,127.857a.11.11,0,0,1-.106-.082l-.144-.537-.537.144a.11.11,0,0,1-.057-.213l.537-.144L83,126.488a.11.11,0,0,1,.213-.057l.144.536.537-.144a.11.11,0,1,1,.057.213l-.537.144.144.537a.11.11,0,0,1-.078.135.1.1,0,0,1-.028,0" transform="translate(-50.336 -77.069)" fill="#dcbd76"/><path d="M51.365,8.119a.11.11,0,0,1-.107-.082L51.114,7.5l-.537.144a.109.109,0,0,1-.135-.078.11.11,0,0,1,.078-.135l.536-.144-.144-.537a.111.111,0,0,1,.214-.057l.144.537.537-.144a.11.11,0,1,1,.057.213l-.537.144.144.537a.11.11,0,0,1-.078.135.1.1,0,0,1-.028,0" transform="translate(-30.766 -4.032)" fill="#dcbd76"/></g></g><path d="M4.528-3.008h-2.2v.448H3.952A5.612,5.612,0,0,1,2.2-.064l.328.312a5.789,5.789,0,0,0,2-1.848V.688H5.592v-2.3A6.136,6.136,0,0,0,7.552.16L7.9-.168A5.359,5.359,0,0,1,6.184-2.56H7.72v-.448H5.592v-.76h1.64v-2.76H2.9v2.76H4.528Zm1.6-1.208H3.984V-6.08H6.128ZM2.08-5.136a7.532,7.532,0,0,0,.544-1.192c.1-.072.112-.128.112-.144s-.016-.072-.024-.072L1.52-6.84A9.328,9.328,0,0,1,.072-3.16l.344.336a6.189,6.189,0,0,0,.608-.72V.688H2.08ZM14.48.336V.68h1.056V-2.808H9.728V.68h1.064V.336ZM13.168-1.472v-.9H14.48v.9Zm1.312.448v.912H13.168v-.912Zm-3.688.912v-.912h1.32v.912Zm0-1.36v-.9h1.32v.9Zm.248-3.92a7,7,0,0,1,.32.856c-.272.1-.744.264-.952.344V-5.9a8.82,8.82,0,0,0,1.736-.264c.192-.008.184-.088.168-.1l-.52-.592a4.43,4.43,0,0,1-1.488.5l-.928-.1v2.592c-.184.048-.312.088-.5.12l.256.728c.016.032.08.048.088.048.024,0,.1-.088.112-.1.536-.24,1.584-.712,2.136-1.024.024.12.056.248.128.688l1.08-.64A11.982,11.982,0,0,0,11.424-5.6ZM12.376-2.92a3.124,3.124,0,0,0,1.9-3.088h.768a10.493,10.493,0,0,1-.168,2.064c-.064.232-.12.344-.4.344a3.867,3.867,0,0,1-.736-.1l.128.544H15c.776,0,.928-.352,1.04-1.5.032-.328.08-1.312.1-1.8H12.5v.44h.712c-.04,1.84-.408,2.12-1.208,2.744Z" transform="translate(837.192 575.596)" fill="#fff"/><path d="M9.677,1.29a8.389,8.389,0,0,1,3.264,16.115A8.389,8.389,0,0,1,6.413,1.949,8.333,8.333,0,0,1,9.677,1.29Zm0-1.29h0a9.677,9.677,0,0,0,0,19.354h0A9.677,9.677,0,0,0,9.677,0" transform="translate(835.968 546.646)" fill="#e9cd31"/><rect width="2.258" height="7.449" transform="translate(842.42 552.598)" fill="#e9cd31"/><rect width="2.258" height="7.449" transform="translate(846.613 552.598)" fill="#e9cd31"/></g></svg>