<svg xmlns="http://www.w3.org/2000/svg" xmlns:xlink="http://www.w3.org/1999/xlink" width="175.2" height="44.873" viewBox="0 0 175.2 44.873"><defs><clipPath id="a"><rect width="175.2" height="44.873" rx="7" fill="none"/></clipPath><clipPath id="b"><rect width="23" height="45" transform="translate(-0.114 -0.158)" fill="#fff" stroke="#707070" stroke-width="1"/></clipPath><clipPath id="c"><rect width="98.199" height="44.873" fill="none"/></clipPath><clipPath id="d"><rect width="23" height="45" fill="#fff" stroke="#707070" stroke-width="1"/></clipPath></defs><g transform="translate(-490.114 -634.158)"><g transform="translate(490.114 634.158)" clip-path="url(#a)"><path d="M0,0H175.2V44.873H0Z" fill="#8d8700"/><g transform="translate(1)" clip-path="url(#b)"><g clip-path="url(#c)"><g transform="translate(0.371 1.144)" opacity="0.3"><path d="M7.3,97.611l.011,0a.669.669,0,1,0-.594-1.2l-.045.022a3.1,3.1,0,0,0-1.717,3.236,2.3,2.3,0,0,0,1.174,1.661,1.915,1.915,0,0,0,2.032-.284,4.331,4.331,0,0,0,1.459-3.112,21.41,21.41,0,0,0,.035-3.192A4.879,4.879,0,0,1,9.7,93.273a1.8,1.8,0,0,1,.748-1.1,2.62,2.62,0,0,1,2.734.016,1.516,1.516,0,0,1,.679,1.2,1.145,1.145,0,0,1-.713,1.135,1.21,1.21,0,0,1-1.361-.275c-.319-.431.042-1,.358-1.368-.328.348-.751.894-.428,1.416a1.336,1.336,0,0,0,1.493.386,1.364,1.364,0,0,0,.909-1.3,1.824,1.824,0,0,0-.738-1.467,3.032,3.032,0,0,0-3.2-.171,2.3,2.3,0,0,0-.868.932c-.014-.055-.021-.113-.039-.167l-.016-.047-.011-.028A.67.67,0,0,0,8,92.93a1.161,1.161,0,0,1-.5,1.459c-.5.279-1.037.072-1.321-.6a1.805,1.805,0,0,1,.335-1.936,4.744,4.744,0,0,1,1.929-1.361,5.775,5.775,0,0,1,4.8.08,3.192,3.192,0,0,1,1.581,1.835,4.4,4.4,0,0,1,.01,2.523,4.493,4.493,0,0,0,.16-2.573,3.459,3.459,0,0,0-1.574-2.09A6.269,6.269,0,0,0,8.2,89.847a6.655,6.655,0,0,0-1.055.467,6.24,6.24,0,0,1-.111-2.633,1.705,1.705,0,0,1,.625-1.052,1.256,1.256,0,0,1,1.073-.181,1.348,1.348,0,0,1,.712,1.7c-.058.08-.089.08-.2.075a1.025,1.025,0,0,1-.3-.041.646.646,0,0,1,.111-.115.711.711,0,0,0,.133-.125.678.678,0,0,0-1.056-.85l-.024.028a1.934,1.934,0,0,0-.5.969.987.987,0,0,0,.246.829,1.2,1.2,0,0,0,.579.336,2.327,2.327,0,0,0,.944.047,1.206,1.206,0,0,0,.927-.656,2.154,2.154,0,0,0-1.241-2.783q-.084-.032-.17-.057a1.835,1.835,0,0,0-1.562.439,2.123,2.123,0,0,0-.638,1.386,6.425,6.425,0,0,0,.43,2.7A4.882,4.882,0,0,0,5.86,91.3a2.763,2.763,0,0,0-.634,2.865,2.291,2.291,0,0,0,1.044,1.271,2,2,0,0,0,1.75.01,2.162,2.162,0,0,0,.95-.821v.129a20.982,20.982,0,0,1-.215,3.059,3.418,3.418,0,0,1-1.2,2.362c-.386.25-.65.279-.9.141a1.155,1.155,0,0,1-.505-.851A1.829,1.829,0,0,1,7.3,97.611m1.481-9.5v.006c-.03-.022-.047-.04,0-.008Z" transform="translate(-4.926 -80.448)" fill="#fff"/><path d="M27.539,69.1c-.868.592-.434,1.736,0,1.263s1.117-1.835,2.01-1.42a2.553,2.553,0,0,0-2.01.156" transform="translate(-25.371 -64.768)" fill="#fff"/><path d="M100.624,110.882l-1.267-1.267c-.043,1.618,1.267,1.267,1.267,1.267" transform="translate(-92.238 -102.496)" fill="#fff"/><path d="M82.265,102.866c.643.408,1.55.277,1-.184a2.394,2.394,0,0,1-1.164-2.19,1.522,1.522,0,0,0,.163,2.375" transform="translate(-75.828 -94.059)" fill="#fff"/><path d="M15.429,26.612c-.15-.029-.511-.019-1.028.5-.689.691-.355,1.579.16.789a3.067,3.067,0,0,1,1.915-.962l-2.69-2.69a2.161,2.161,0,0,0,1.643,2.367" transform="translate(-13.103 -23.561)" fill="#fff"/><path d="M72.7,176.61a.712.712,0,0,0-.86-.518c-.177.044-.471-.207-.6-.642a2.2,2.2,0,0,1,.038-1.356,1.31,1.31,0,0,1,.966-.878,1.228,1.228,0,0,1,1.206.755,1.436,1.436,0,0,0-1.222-1.159,1.829,1.829,0,0,0-1.6.958,3.067,3.067,0,0,0-.407,1.863,2.374,2.374,0,0,0,.331,1.014,1.711,1.711,0,0,0,1.021.759l.261.065a.711.711,0,0,0,.858-.861Z" transform="translate(-65.29 -160.928)" fill="#fff"/><path d="M89.372,15.234a3.1,3.1,0,0,0-3.236,1.716l-.024.05,0,.007a.67.67,0,0,0,1.211.571,1.83,1.83,0,0,1,1.851-1.157,1.155,1.155,0,0,1,.85.505c.137.251.108.514-.141.9a3.414,3.414,0,0,1-2.362,1.2,20.71,20.71,0,0,1-3.059.215H84.33a2.154,2.154,0,0,0,.82-.95,1.989,1.989,0,0,0-.009-1.75A2.3,2.3,0,0,0,83.87,15.5a2.762,2.762,0,0,0-2.865.634,4.885,4.885,0,0,0-.981,1.277,6.421,6.421,0,0,0-2.7-.429,2.117,2.117,0,0,0-1.385.638,1.835,1.835,0,0,0-.44,1.562,2.154,2.154,0,0,0,2.669,1.469q.086-.025.17-.057A1.209,1.209,0,0,0,79,19.667a2.366,2.366,0,0,0-.047-.946,1.2,1.2,0,0,0-.337-.578.989.989,0,0,0-.828-.246,1.926,1.926,0,0,0-.969.5l-.031.025a.678.678,0,1,0,.978.922.682.682,0,0,1,.116-.111,1.063,1.063,0,0,1,.041.3c0,.109,0,.14-.075.2a1.348,1.348,0,0,1-1.7-.711,1.255,1.255,0,0,1,.183-1.073,1.7,1.7,0,0,1,1.052-.626,6.277,6.277,0,0,1,2.633.111,6.793,6.793,0,0,0-.468,1.055,6.272,6.272,0,0,0,.422,5.212,3.451,3.451,0,0,0,2.091,1.573,4.491,4.491,0,0,0,2.571-.16,4.417,4.417,0,0,1-2.522-.01,3.192,3.192,0,0,1-1.835-1.582,5.777,5.777,0,0,1-.08-4.8,4.765,4.765,0,0,1,1.362-1.929,1.8,1.8,0,0,1,1.936-.335c.67.289.878.822.6,1.321a1.163,1.163,0,0,1-1.459.5l-.03-.011a.67.67,0,1,0-.438,1.266l.046.015c.053.019.11.025.165.039a2.313,2.313,0,0,0-.93.87,3.032,3.032,0,0,0,.171,3.2,1.821,1.821,0,0,0,1.467.738,1.363,1.363,0,0,0,1.3-.908A1.337,1.337,0,0,0,84,21.991c-.524-.324-1.069.1-1.417.427.365-.319.938-.674,1.368-.358a1.212,1.212,0,0,1,.277,1.361,1.147,1.147,0,0,1-1.135.718,1.516,1.516,0,0,1-1.2-.678,2.62,2.62,0,0,1-.017-2.734,1.8,1.8,0,0,1,1.1-.748,4.881,4.881,0,0,1,1.468-.042A21.668,21.668,0,0,0,87.64,19.9a4.336,4.336,0,0,0,3.112-1.459,1.915,1.915,0,0,0,.284-2.031,2.3,2.3,0,0,0-1.664-1.179m-11.546,3.83-.006,0c-.031-.046-.013-.03.006,0Z" transform="translate(-70.156 -15.199)" fill="#fff"/><path d="M58.814,37.8a2.545,2.545,0,0,0-.16,2.01c-.414-.89.945-1.576,1.419-2.01s-.668-.868-1.259,0" transform="translate(-54.479 -35.627)" fill="#fff"/><path d="M99.359,109.594l1.266,1.266s.353-1.307-1.266-1.266" transform="translate(-92.241 -102.475)" fill="#fff"/><path d="M92.61,92.554a1.522,1.522,0,0,0-2.375-.16,2.394,2.394,0,0,1,2.19,1.163c.462.547.592-.36.185-1" transform="translate(-83.804 -86.115)" fill="#fff"/><path d="M17.641,24.778c.789-.512-.1-.848-.789-.16-.516.515-.525.878-.5,1.026A2.159,2.159,0,0,0,13.989,24l2.69,2.69a3.069,3.069,0,0,1,.962-1.913" transform="translate(-13.306 -23.32)" fill="#fff"/><path d="M165.845,82.095a.718.718,0,0,0,0,.343.71.71,0,0,0,1.378-.344l-.064-.257a1.7,1.7,0,0,0-.76-1.021,2.38,2.38,0,0,0-1.014-.332,3.066,3.066,0,0,0-1.862.408,1.825,1.825,0,0,0-.957,1.6,1.431,1.431,0,0,0,1.159,1.223,1.23,1.23,0,0,1-.756-1.207,1.309,1.309,0,0,1,.878-.965A2.2,2.2,0,0,1,165.2,81.5c.434.122.686.421.642.594" transform="translate(-150.682 -75.547)" fill="#fff"/><path d="M8.052,306.946a1.989,1.989,0,0,0-1.75.01,2.292,2.292,0,0,0-1.044,1.271,2.763,2.763,0,0,0,.634,2.865,4.882,4.882,0,0,0,1.277.979,6.426,6.426,0,0,0-.43,2.7,2.124,2.124,0,0,0,.638,1.386,1.835,1.835,0,0,0,1.562.439,2.154,2.154,0,0,0,1.469-2.669q-.025-.086-.057-.17a1.207,1.207,0,0,0-.927-.657,2.341,2.341,0,0,0-.944.048,1.2,1.2,0,0,0-.579.336.986.986,0,0,0-.246.829,1.926,1.926,0,0,0,.5.969l.024.029a.678.678,0,0,0,1.083-.817l-.026-.033a.717.717,0,0,0-.133-.125.643.643,0,0,1-.111-.115,1.022,1.022,0,0,1,.3-.041c.109,0,.14,0,.2.075a1.348,1.348,0,0,1-.712,1.7,1.259,1.259,0,0,1-1.073-.181,1.705,1.705,0,0,1-.625-1.052,6.241,6.241,0,0,1,.111-2.633,6.753,6.753,0,0,0,1.055.467,6.269,6.269,0,0,0,5.213-.422,3.459,3.459,0,0,0,1.574-2.09,4.494,4.494,0,0,0-.16-2.573,4.4,4.4,0,0,1-.01,2.523,3.192,3.192,0,0,1-1.581,1.835,5.772,5.772,0,0,1-4.8.08,4.743,4.743,0,0,1-1.929-1.361,1.807,1.807,0,0,1-.335-1.937c.288-.669.821-.878,1.321-.6a1.161,1.161,0,0,1,.5,1.459.67.67,0,0,0,1.244.5l.011-.029.016-.046c.018-.054.025-.111.039-.167a2.3,2.3,0,0,0,.868.931,3.032,3.032,0,0,0,3.2-.169,1.824,1.824,0,0,0,.738-1.467,1.365,1.365,0,0,0-.909-1.3,1.337,1.337,0,0,0-1.493.387c-.319.523.1,1.068.428,1.416-.319-.365-.674-.938-.357-1.368a1.211,1.211,0,0,1,1.361-.277,1.147,1.147,0,0,1,.713,1.135,1.516,1.516,0,0,1-.679,1.2,2.621,2.621,0,0,1-2.734.016,1.8,1.8,0,0,1-.748-1.1,4.871,4.871,0,0,1-.042-1.467,21.413,21.413,0,0,0-.035-3.192,4.332,4.332,0,0,0-1.459-3.112,1.915,1.915,0,0,0-2.032-.283,2.3,2.3,0,0,0-1.174,1.661,3.1,3.1,0,0,0,1.717,3.236l.045.023a.669.669,0,1,0,.594-1.2l-.011-.006a1.827,1.827,0,0,1-1.157-1.851,1.155,1.155,0,0,1,.505-.85c.25-.137.514-.109.9.141a3.415,3.415,0,0,1,1.2,2.362A20.972,20.972,0,0,1,9,307.641v.129a2.155,2.155,0,0,0-.951-.824m.764,7.324v.006c-.049.032-.033.014,0-.006" transform="translate(-4.955 -279.354)" fill="#fff"/><path d="M27.539,504.509c-.434-.473-.868.67,0,1.262a2.548,2.548,0,0,0,2.01.16c-.893.409-1.578-.95-2.01-1.422" transform="translate(-25.371 -467.519)" fill="#fff"/><path d="M99.317,469.775l1.27-1.264s-1.31-.356-1.27,1.264" transform="translate(-92.201 -434.307)" fill="#fff"/><path d="M82.286,460.3a1.522,1.522,0,0,0-.16,2.374,2.394,2.394,0,0,1,1.164-2.19c.546-.461-.36-.592-1-.184" transform="translate(-75.849 -426.521)" fill="#fff"/><path d="M14.531,518.8c-.513-.789-.848.1-.16.79.516.516.878.524,1.028.5a2.161,2.161,0,0,0-1.645,2.367l2.69-2.691a3.06,3.06,0,0,1-1.913-.962" transform="translate(-13.074 -480.549)" fill="#fff"/><path d="M71.808,361.8a.71.71,0,1,0,0-1.38l-.261.065a1.7,1.7,0,0,0-1.021.759,2.369,2.369,0,0,0-.331,1.014,3.065,3.065,0,0,0,.407,1.862,1.83,1.83,0,0,0,1.6.958,1.436,1.436,0,0,0,1.222-1.161,1.227,1.227,0,0,1-1.206.756,1.31,1.31,0,0,1-.965-.878,2.2,2.2,0,0,1-.038-1.356c.127-.432.42-.683.6-.639" transform="translate(-65.261 -334.377)" fill="#fff"/><path d="M87.639,450.514a21.671,21.671,0,0,0-3.192-.035,4.876,4.876,0,0,1-1.468-.042,1.806,1.806,0,0,1-1.1-.748,2.619,2.619,0,0,1,.017-2.734,1.516,1.516,0,0,1,1.2-.679,1.146,1.146,0,0,1,1.135.713,1.214,1.214,0,0,1-.277,1.362c-.43.319-1-.041-1.368-.359.348.328.895.751,1.417.428a1.337,1.337,0,0,0,.386-1.493,1.361,1.361,0,0,0-1.3-.908,1.819,1.819,0,0,0-1.467.738,3.033,3.033,0,0,0-.171,3.2,2.3,2.3,0,0,0,.931.868c-.055.014-.112.021-.165.039l-.045.016a.67.67,0,0,0,.438,1.266l.03-.011a1.163,1.163,0,0,1,1.459.5c.279.5.072,1.037-.6,1.321a1.8,1.8,0,0,1-1.936-.335,4.755,4.755,0,0,1-1.362-1.929,5.777,5.777,0,0,1,.08-4.8,3.192,3.192,0,0,1,1.835-1.582,4.408,4.408,0,0,1,2.522-.01,4.491,4.491,0,0,0-2.571-.16,3.459,3.459,0,0,0-2.091,1.574,6.273,6.273,0,0,0-.422,5.213,6.75,6.75,0,0,0,.468,1.055,6.261,6.261,0,0,1-2.633.112,1.7,1.7,0,0,1-1.052-.626,1.255,1.255,0,0,1-.183-1.073,1.35,1.35,0,0,1,1.7-.712c.08.058.08.089.075.2a1.069,1.069,0,0,1-.041.3.687.687,0,0,1-.116-.113.678.678,0,0,0-1.1.791.639.639,0,0,0,.124.13l.031.026a1.925,1.925,0,0,0,.969.5.989.989,0,0,0,.828-.247,1.2,1.2,0,0,0,.337-.578,2.361,2.361,0,0,0,.047-.944,1.209,1.209,0,0,0-.657-.927,2.154,2.154,0,0,0-2.783,1.241q-.032.084-.057.171a1.835,1.835,0,0,0,.44,1.561,2.122,2.122,0,0,0,1.385.638,6.424,6.424,0,0,0,2.7-.429,4.915,4.915,0,0,0,.981,1.277,2.762,2.762,0,0,0,2.865.633,2.291,2.291,0,0,0,1.271-1.045,1.988,1.988,0,0,0,.009-1.75,2.16,2.16,0,0,0-.82-.95h.128a20.7,20.7,0,0,1,3.059.215,3.414,3.414,0,0,1,2.362,1.2c.25.386.278.65.141.9a1.148,1.148,0,0,1-.85.505,1.827,1.827,0,0,1-1.851-1.157.67.67,0,0,0-1.211.571l0,.008.024.048a3.1,3.1,0,0,0,3.236,1.717A2.3,2.3,0,0,0,91.032,454a1.915,1.915,0,0,0-.284-2.031,4.337,4.337,0,0,0-3.109-1.458m-9.815.839h.006c-.024.03-.042.045-.01,0Z" transform="translate(-70.156 -412.625)" fill="#fff"/><path d="M58.7,524.7a2.545,2.545,0,0,0,.16,2.01c.591.868,1.736.434,1.262,0s-1.832-1.122-1.422-2.01" transform="translate(-54.519 -486.294)" fill="#fff"/><path d="M100.657,468.885l-1.266,1.267c1.617.041,1.266-1.267,1.266-1.267" transform="translate(-92.27 -434.684)" fill="#fff"/><path d="M92.61,480.349c.407-.642.277-1.55-.185-1a2.394,2.394,0,0,1-2.19,1.163,1.522,1.522,0,0,0,2.375-.162" transform="translate(-83.804 -444.201)" fill="#fff"/><path d="M17.641,537.3a3.069,3.069,0,0,1-.962-1.915l-2.69,2.69a2.159,2.159,0,0,0,2.366-1.644c-.028.149-.019.51.5,1.026.69.691,1.578.355.789-.157" transform="translate(-13.306 -496.169)" fill="#fff"/><path d="M163.868,474.01a1.311,1.311,0,0,1-.878-.964,1.23,1.23,0,0,1,.756-1.207,1.431,1.431,0,0,0-1.159,1.222,1.826,1.826,0,0,0,.957,1.6,3.058,3.058,0,0,0,1.862.407,2.367,2.367,0,0,0,1.014-.331,1.708,1.708,0,0,0,.76-1.021l.064-.258a.71.71,0,0,0-1.378-.343.719.719,0,0,0,0,.343c.044.176-.207.471-.642.594a2.2,2.2,0,0,1-1.356-.038" transform="translate(-150.702 -437.415)" fill="#fff"/><path d="M1169.789,95.372a2,2,0,0,0,1.75-.01,2.287,2.287,0,0,0,1.045-1.271,2.763,2.763,0,0,0-.633-2.865,4.924,4.924,0,0,0-1.277-.979,6.428,6.428,0,0,0,.429-2.7,2.122,2.122,0,0,0-.638-1.386,1.835,1.835,0,0,0-1.562-.439,2.154,2.154,0,0,0-1.469,2.669q.025.086.057.17a1.207,1.207,0,0,0,.927.656,2.325,2.325,0,0,0,.944-.047,1.2,1.2,0,0,0,.578-.336.989.989,0,0,0,.246-.829,1.933,1.933,0,0,0-.5-.969l-.023-.028a.678.678,0,1,0-.924.975.688.688,0,0,1,.112.115,1.032,1.032,0,0,1-.3.042c-.109,0-.14,0-.2-.075a1.349,1.349,0,0,1,.712-1.7,1.255,1.255,0,0,1,1.073.181,1.707,1.707,0,0,1,.626,1.052,6.261,6.261,0,0,1-.113,2.633,6.639,6.639,0,0,0-1.055-.467,6.267,6.267,0,0,0-5.211.422,3.455,3.455,0,0,0-1.575,2.09,4.5,4.5,0,0,0,.16,2.573,4.411,4.411,0,0,1,.01-2.523,3.192,3.192,0,0,1,1.582-1.835,5.773,5.773,0,0,1,4.8-.08,4.745,4.745,0,0,1,1.929,1.361,1.8,1.8,0,0,1,.335,1.936c-.287.67-.821.878-1.321.6a1.161,1.161,0,0,1-.5-1.459.67.67,0,1,0-1.244-.5l-.01.028-.017.047c-.018.054-.025.111-.039.165a2.307,2.307,0,0,0-.868-.931,3.032,3.032,0,0,0-3.2.171,1.821,1.821,0,0,0-.738,1.467,1.361,1.361,0,0,0,.908,1.3,1.335,1.335,0,0,0,1.492-.386c.319-.523-.1-1.068-.428-1.416.319.364.676.936.359,1.368a1.211,1.211,0,0,1-1.362.275,1.145,1.145,0,0,1-.713-1.135,1.522,1.522,0,0,1,.678-1.2,2.62,2.62,0,0,1,2.734-.016,1.806,1.806,0,0,1,.748,1.1,4.879,4.879,0,0,1,.042,1.468,21.7,21.7,0,0,0,.035,3.192,4.336,4.336,0,0,0,1.459,3.112,1.915,1.915,0,0,0,2.031.284,2.3,2.3,0,0,0,1.174-1.661,3.1,3.1,0,0,0-1.717-3.236l-.046-.022a.669.669,0,0,0-.592,1.2l.01,0a1.827,1.827,0,0,1,1.157,1.851,1.148,1.148,0,0,1-.505.851c-.25.137-.514.109-.9-.141a3.416,3.416,0,0,1-1.2-2.362,20.73,20.73,0,0,1-.216-3.059v-.129a2.169,2.169,0,0,0,.95.824m-.764-7.323v-.006c.049-.029.033-.011,0,.009Z" transform="translate(-1075.429 -80.379)" fill="#fff"/><path d="M1244.4,70.344c.434.473.868-.67,0-1.263a2.554,2.554,0,0,0-2.01-.16c.89-.41,1.576.95,2.01,1.423" transform="translate(-1149.104 -64.744)" fill="#fff"/><path d="M1187.835,109.616l-1.267,1.267s1.306.351,1.267-1.267" transform="translate(-1097.495 -102.497)" fill="#fff"/><path d="M1197.987,102.866a1.521,1.521,0,0,0,.16-2.375,2.394,2.394,0,0,1-1.164,2.19c-.543.461.366.592,1,.184" transform="translate(-1106.971 -94.059)" fill="#fff"/><path d="M1255.011,27.9c.512.79.848-.1.16-.789-.515-.515-.878-.525-1.026-.5a2.161,2.161,0,0,0,1.644-2.367l-2.69,2.69a3.069,3.069,0,0,1,1.913.962" transform="translate(-1159.01 -23.56)" fill="#fff"/><path d="M1192.328,173.779a1.827,1.827,0,0,0-1.6-.958,1.436,1.436,0,0,0-1.222,1.159,1.229,1.229,0,0,1,1.207-.755,1.311,1.311,0,0,1,.964.878,2.2,2.2,0,0,1,.038,1.356c-.123.435-.418.687-.594.642a.71.71,0,1,0,0,1.38l.261-.065a1.71,1.71,0,0,0,1.021-.759,2.375,2.375,0,0,0,.331-1.014,3.063,3.063,0,0,0-.41-1.865" transform="translate(-1100.216 -160.937)" fill="#fff"/><path d="M1022.127,19.869a21.676,21.676,0,0,0,3.192.035,4.875,4.875,0,0,1,1.467.042,1.8,1.8,0,0,1,1.1.748,2.622,2.622,0,0,1-.016,2.734,1.522,1.522,0,0,1-1.2.678,1.148,1.148,0,0,1-1.135-.718,1.212,1.212,0,0,1,.277-1.361c.43-.319,1,.041,1.368.357-.348-.328-.895-.751-1.416-.427a1.336,1.336,0,0,0-.387,1.493,1.363,1.363,0,0,0,1.3.908,1.824,1.824,0,0,0,1.467-.738,3.033,3.033,0,0,0,.169-3.2,2.308,2.308,0,0,0-.931-.868c.055-.014.113-.02.167-.039l.044-.015a.67.67,0,0,0-.437-1.266l-.031.011a1.162,1.162,0,0,1-1.459-.5c-.28-.5-.072-1.033.6-1.321a1.807,1.807,0,0,1,1.937.335,4.753,4.753,0,0,1,1.361,1.929,5.77,5.77,0,0,1-.08,4.8,3.191,3.191,0,0,1-1.835,1.581,4.42,4.42,0,0,1-2.523.01,4.5,4.5,0,0,0,2.573.16,3.451,3.451,0,0,0,2.09-1.574,6.268,6.268,0,0,0,.422-5.212,6.62,6.62,0,0,0-.468-1.055,6.277,6.277,0,0,1,2.633-.111,1.7,1.7,0,0,1,1.052.626,1.258,1.258,0,0,1,.181,1.073,1.348,1.348,0,0,1-1.7.711c-.08-.057-.08-.089-.075-.2a1.025,1.025,0,0,1,.042-.3.727.727,0,0,1,.115.111.678.678,0,1,0,1.1-.79.7.7,0,0,0-.123-.132l-.032-.025a1.926,1.926,0,0,0-.969-.5.989.989,0,0,0-.829.246,1.194,1.194,0,0,0-.336.579,2.343,2.343,0,0,0-.048.946,1.209,1.209,0,0,0,.657.927,2.154,2.154,0,0,0,2.782-1.241q.032-.084.057-.17a1.835,1.835,0,0,0-.439-1.562,2.119,2.119,0,0,0-1.386-.638,6.423,6.423,0,0,0-2.7.429,4.9,4.9,0,0,0-.979-1.277,2.762,2.762,0,0,0-2.865-.634,2.293,2.293,0,0,0-1.271,1.045,2,2,0,0,0-.01,1.75,2.156,2.156,0,0,0,.821.949h-.129a20.709,20.709,0,0,1-3.058-.215,3.417,3.417,0,0,1-2.362-1.2c-.25-.386-.278-.649-.141-.9a1.155,1.155,0,0,1,.85-.505,1.829,1.829,0,0,1,1.851,1.157.67.67,0,0,0,1.211-.571l0-.007-.024-.049a3.1,3.1,0,0,0-3.236-1.716,2.3,2.3,0,0,0-1.661,1.174,1.915,1.915,0,0,0,.284,2.031,4.336,4.336,0,0,0,3.11,1.463m9.815-.84-.006,0c.023-.033.042-.05.006,0" transform="translate(-942.153 -15.17)" fill="#fff"/><path d="M1223.564,39.806a2.548,2.548,0,0,0-.16-2.01c-.591-.868-1.735-.434-1.263,0s1.835,1.12,1.422,2.01" transform="translate(-1130.284 -35.627)" fill="#fff"/><path d="M1186.149,110.86l1.267-1.266c-1.62-.041-1.267,1.266-1.267,1.266" transform="translate(-1097.077 -102.475)" fill="#fff"/><path d="M1177.98,92.545c-.408.644-.278,1.55.184,1a2.394,2.394,0,0,1,2.19-1.163,1.521,1.521,0,0,0-2.374.161" transform="translate(-1089.328 -86.106)" fill="#fff"/><path d="M1236.482,24.807a3.07,3.07,0,0,1,.962,1.915l2.691-2.69a2.161,2.161,0,0,0-2.367,1.644c.028-.149.019-.511-.5-1.026-.69-.691-1.578-.355-.789.157" transform="translate(-1143.36 -23.349)" fill="#fff"/><path d="M1081.471,81.528a1.31,1.31,0,0,1,.878.965,1.229,1.229,0,0,1-.756,1.207,1.436,1.436,0,0,0,1.161-1.223,1.828,1.828,0,0,0-.957-1.6,3.066,3.066,0,0,0-1.863-.408,2.386,2.386,0,0,0-1.014.332,1.7,1.7,0,0,0-.759,1.021l-.064.257a.71.71,0,1,0,1.377,0c-.043-.176.208-.471.644-.594a2.195,2.195,0,0,1,1.352.04" transform="translate(-997.181 -75.536)" fill="#fff"/><path d="M1170.54,304.753l-.01.006a.669.669,0,0,0,.592,1.2l.045-.023a3.1,3.1,0,0,0,1.717-3.236,2.3,2.3,0,0,0-1.174-1.661,1.914,1.914,0,0,0-2.031.283,4.336,4.336,0,0,0-1.46,3.112,21.7,21.7,0,0,0-.035,3.192,4.865,4.865,0,0,1-.042,1.467,1.8,1.8,0,0,1-.748,1.1,2.621,2.621,0,0,1-2.734-.016,1.522,1.522,0,0,1-.678-1.2,1.147,1.147,0,0,1,.713-1.135,1.214,1.214,0,0,1,1.362.277c.319.43-.042,1-.359,1.368.329-.348.751-.894.428-1.416a1.337,1.337,0,0,0-1.492-.387,1.362,1.362,0,0,0-.908,1.3,1.821,1.821,0,0,0,.738,1.467,3.032,3.032,0,0,0,3.2.169,2.293,2.293,0,0,0,.868-.931c.014.055.021.112.039.167l.017.046.01.029a.67.67,0,0,0,1.244-.5,1.161,1.161,0,0,1,.5-1.459c.5-.28,1.037-.073,1.321.6a1.8,1.8,0,0,1-.335,1.937,4.743,4.743,0,0,1-1.929,1.361,5.77,5.77,0,0,1-4.8-.08,3.186,3.186,0,0,1-1.581-1.835,4.41,4.41,0,0,1-.01-2.523,4.5,4.5,0,0,0-.16,2.573,3.458,3.458,0,0,0,1.575,2.09,6.268,6.268,0,0,0,5.211.422,6.738,6.738,0,0,0,1.055-.467,6.259,6.259,0,0,1,.113,2.633,1.708,1.708,0,0,1-.626,1.052,1.259,1.259,0,0,1-1.073.181,1.348,1.348,0,0,1-.712-1.7c.058-.08.089-.08.2-.075a1.031,1.031,0,0,1,.3.041.685.685,0,0,1-.113.115.678.678,0,1,0,.924.975l.023-.029a1.925,1.925,0,0,0,.5-.969.99.99,0,0,0-.247-.829,1.2,1.2,0,0,0-.578-.336,2.341,2.341,0,0,0-.944-.048,1.209,1.209,0,0,0-.927.657,2.155,2.155,0,0,0,1.241,2.783q.084.032.171.057a1.835,1.835,0,0,0,1.561-.439,2.123,2.123,0,0,0,.638-1.386,6.419,6.419,0,0,0-.429-2.7,4.913,4.913,0,0,0,1.277-.979,2.763,2.763,0,0,0,.633-2.865,2.288,2.288,0,0,0-1.045-1.271,1.988,1.988,0,0,0-1.75-.01,2.161,2.161,0,0,0-.95.821v-.129a20.73,20.73,0,0,1,.215-3.059,3.414,3.414,0,0,1,1.2-2.362c.386-.25.65-.279.9-.141a1.148,1.148,0,0,1,.5.85,1.826,1.826,0,0,1-1.157,1.854m-1.48,9.5v-.006c.029.022.045.041,0,.009Z" transform="translate(-1075.46 -279.328)" fill="#fff"/><path d="M1244.4,505.74c.868-.591.434-1.735,0-1.262s-1.117,1.835-2.01,1.419a2.548,2.548,0,0,0,2.01-.157" transform="translate(-1149.104 -467.49)" fill="#fff"/><path d="M1186.568,468.512l1.267,1.267c.039-1.623-1.267-1.267-1.267-1.267" transform="translate(-1097.495 -434.308)" fill="#fff"/><path d="M1198.223,462.672a1.521,1.521,0,0,0-.16-2.374c-.643-.408-1.55-.278-1,.184a2.394,2.394,0,0,1,1.161,2.19" transform="translate(-1107.042 -426.518)" fill="#fff"/><path d="M1254.082,520.085c.149.028.511.019,1.026-.5.691-.691.355-1.579-.16-.79a3.064,3.064,0,0,1-1.915.962l2.69,2.691a2.161,2.161,0,0,0-1.642-2.367" transform="translate(-1158.949 -480.549)" fill="#fff"/><path d="M1190.749,364.661a1.228,1.228,0,0,1-1.207-.756,1.437,1.437,0,0,0,1.222,1.161,1.828,1.828,0,0,0,1.6-.957,3.059,3.059,0,0,0,.407-1.862,2.367,2.367,0,0,0-.331-1.014,1.7,1.7,0,0,0-1.021-.759l-.261-.065a.71.71,0,1,0,0,1.38c.176-.044.472.207.594.642a2.2,2.2,0,0,1-.038,1.356,1.311,1.311,0,0,1-.961.875" transform="translate(-1100.245 -334.364)" fill="#fff"/><path d="M1034.263,451.238a2.155,2.155,0,0,0-2.669-1.469q-.086.025-.17.057a1.209,1.209,0,0,0-.657.927,2.338,2.338,0,0,0,.048.944,1.189,1.189,0,0,0,.336.578.99.99,0,0,0,.829.247,1.925,1.925,0,0,0,.969-.5l.032-.026a.677.677,0,1,0-.979-.921.674.674,0,0,1-.115.112,1.034,1.034,0,0,1-.042-.3c0-.109,0-.14.075-.2a1.349,1.349,0,0,1,1.7.712,1.258,1.258,0,0,1-.181,1.073,1.707,1.707,0,0,1-1.052.626,6.261,6.261,0,0,1-2.633-.112,6.547,6.547,0,0,0,.468-1.055,6.269,6.269,0,0,0-.422-5.213,3.459,3.459,0,0,0-2.09-1.574,4.5,4.5,0,0,0-2.573.16,4.412,4.412,0,0,1,2.523.01,3.188,3.188,0,0,1,1.835,1.581,5.77,5.77,0,0,1,.08,4.8,4.744,4.744,0,0,1-1.361,1.929,1.807,1.807,0,0,1-1.937.335c-.669-.288-.878-.821-.6-1.321a1.162,1.162,0,0,1,1.459-.5l.031.011a.67.67,0,1,0,.437-1.266l-.044-.016c-.054-.018-.111-.025-.167-.039a2.3,2.3,0,0,0,.931-.868,3.032,3.032,0,0,0-.169-3.2,1.821,1.821,0,0,0-1.467-.738,1.363,1.363,0,0,0-1.3.908,1.337,1.337,0,0,0,.387,1.493c.522.319,1.068-.1,1.416-.428-.365.319-.938.676-1.368.359a1.213,1.213,0,0,1-.277-1.362,1.147,1.147,0,0,1,1.135-.713,1.523,1.523,0,0,1,1.2.679,2.622,2.622,0,0,1,.016,2.734,1.8,1.8,0,0,1-1.1.748,4.87,4.87,0,0,1-1.467.042,21.694,21.694,0,0,0-3.192.035,4.336,4.336,0,0,0-3.112,1.459,1.915,1.915,0,0,0-.284,2.031,2.294,2.294,0,0,0,1.661,1.174,3.1,3.1,0,0,0,3.236-1.717l.024-.048,0-.008a.67.67,0,1,0-1.211-.571A1.826,1.826,0,0,1,1020.6,454a1.148,1.148,0,0,1-.85-.505c-.137-.25-.109-.514.141-.9a3.415,3.415,0,0,1,2.362-1.2,20.7,20.7,0,0,1,3.058-.215h.129a2.162,2.162,0,0,0-.821.95,1.994,1.994,0,0,0,.01,1.75,2.287,2.287,0,0,0,1.271,1.044,2.763,2.763,0,0,0,2.865-.633,4.936,4.936,0,0,0,.979-1.277,6.423,6.423,0,0,0,2.7.429,2.124,2.124,0,0,0,1.386-.638,1.835,1.835,0,0,0,.44-1.563m-2.323.12h.005c.033.049.014.033,0,0Z" transform="translate(-942.154 -412.634)" fill="#fff"/><path d="M1223.45,526.713a2.547,2.547,0,0,0,.16-2.01c.413.891-.947,1.576-1.419,2.01s.669.867,1.26,0" transform="translate(-1130.328 -486.294)" fill="#fff"/><path d="M1187.416,470.152l-1.267-1.267s-.353,1.308,1.267,1.267" transform="translate(-1097.077 -434.684)" fill="#fff"/><path d="M1177.983,480.335a1.521,1.521,0,0,0,2.116.385,1.5,1.5,0,0,0,.258-.225,2.394,2.394,0,0,1-2.189-1.163c-.461-.546-.592.361-.184,1" transform="translate(-1089.331 -444.187)" fill="#fff"/><path d="M1237.444,535.393a3.07,3.07,0,0,1-.962,1.915c-.789.512.1.848.789.16.516-.516.525-.878.5-1.026a2.161,2.161,0,0,0,2.367,1.644Z" transform="translate(-1143.36 -496.178)" fill="#fff"/><path d="M1079.486,473.454a.709.709,0,1,0-1.377,0l.064.258a1.7,1.7,0,0,0,.759,1.021,2.368,2.368,0,0,0,1.014.331,3.057,3.057,0,0,0,1.862-.407,1.828,1.828,0,0,0,.958-1.6,1.436,1.436,0,0,0-1.161-1.222,1.229,1.229,0,0,1,.756,1.207,1.311,1.311,0,0,1-.878.964,2.2,2.2,0,0,1-1.357.038c-.432-.124-.686-.418-.64-.594" transform="translate(-997.192 -437.415)" fill="#fff"/></g></g></g><g transform="translate(150.886 -0.158)" clip-path="url(#d)"><g transform="translate(-75.313 0.158)" clip-path="url(#c)"><g transform="translate(0.371 1.144)" opacity="0.3"><path d="M12.73,97.611l-.011,0a.669.669,0,1,1,.594-1.2l.045.022a3.1,3.1,0,0,1,1.717,3.236,2.3,2.3,0,0,1-1.174,1.661,1.915,1.915,0,0,1-2.032-.284,4.331,4.331,0,0,1-1.459-3.112,21.41,21.41,0,0,1-.035-3.192,4.879,4.879,0,0,0-.042-1.468,1.8,1.8,0,0,0-.748-1.1,2.62,2.62,0,0,0-2.734.016,1.516,1.516,0,0,0-.679,1.2,1.145,1.145,0,0,0,.713,1.135,1.21,1.21,0,0,0,1.361-.275c.319-.431-.042-1-.358-1.368.328.348.751.894.428,1.416a1.336,1.336,0,0,1-1.493.386,1.364,1.364,0,0,1-.909-1.3,1.824,1.824,0,0,1,.738-1.467,3.032,3.032,0,0,1,3.2-.171,2.3,2.3,0,0,1,.868.932c.014-.055.021-.113.039-.167l.016-.047.011-.028a.67.67,0,0,1,1.244.5,1.161,1.161,0,0,0,.5,1.459c.5.279,1.037.072,1.321-.6a1.805,1.805,0,0,0-.335-1.936,4.744,4.744,0,0,0-1.929-1.361,5.775,5.775,0,0,0-4.8.08,3.192,3.192,0,0,0-1.581,1.835,4.4,4.4,0,0,0-.01,2.523,4.493,4.493,0,0,1-.16-2.573,3.459,3.459,0,0,1,1.574-2.09,6.269,6.269,0,0,1,5.213-.422,6.655,6.655,0,0,1,1.055.467A6.24,6.24,0,0,0,13,87.681a1.705,1.705,0,0,0-.625-1.052,1.256,1.256,0,0,0-1.073-.181,1.348,1.348,0,0,0-.712,1.7c.058.08.089.08.2.075a1.025,1.025,0,0,0,.3-.041.646.646,0,0,0-.111-.115.711.711,0,0,1-.133-.125.678.678,0,0,1,1.056-.85l.024.028a1.934,1.934,0,0,1,.5.969.987.987,0,0,1-.246.829,1.2,1.2,0,0,1-.579.336,2.327,2.327,0,0,1-.944.047,1.206,1.206,0,0,1-.927-.656,2.154,2.154,0,0,1,1.241-2.783q.084-.032.17-.057a1.835,1.835,0,0,1,1.562.439,2.123,2.123,0,0,1,.638,1.386,6.425,6.425,0,0,1-.43,2.7,4.882,4.882,0,0,1,1.277.979,2.763,2.763,0,0,1,.634,2.865,2.291,2.291,0,0,1-1.044,1.271,2,2,0,0,1-1.75.01,2.162,2.162,0,0,1-.95-.821v.129a20.982,20.982,0,0,0,.215,3.059,3.418,3.418,0,0,0,1.2,2.362c.386.25.65.279.9.141a1.155,1.155,0,0,0,.505-.851,1.829,1.829,0,0,0-1.158-1.854m-1.481-9.5v.006c.03-.022.047-.04,0-.008Z" transform="translate(82.35 -80.448)" fill="#fff"/><path d="M29.048,69.1c.868.592.434,1.736,0,1.263s-1.117-1.835-2.01-1.42a2.553,2.553,0,0,1,2.01.156" transform="translate(66.241 -64.768)" fill="#fff"/><path d="M99.356,110.882l1.267-1.267c.043,1.618-1.267,1.267-1.267,1.267" transform="translate(-10.286 -102.496)" fill="#fff"/><path d="M82.779,102.866c-.643.408-1.55.277-1-.184a2.394,2.394,0,0,0,1.164-2.19,1.522,1.522,0,0,1-.163,2.375" transform="translate(8.241 -94.059)" fill="#fff"/><path d="M14.816,26.612c.15-.029.511-.019,1.028.5.689.691.355,1.579-.16.789a3.067,3.067,0,0,0-1.915-.962l2.69-2.69a2.161,2.161,0,0,1-1.643,2.367" transform="translate(80.314 -23.561)" fill="#fff"/><path d="M70.966,176.61a.712.712,0,0,1,.86-.518c.177.044.471-.207.6-.642a2.2,2.2,0,0,0-.038-1.356,1.31,1.31,0,0,0-.966-.878,1.228,1.228,0,0,0-1.206.755,1.436,1.436,0,0,1,1.222-1.159,1.829,1.829,0,0,1,1.6.958,3.067,3.067,0,0,1,.407,1.863,2.374,2.374,0,0,1-.331,1.014,1.711,1.711,0,0,1-1.021.759l-.261.065a.711.711,0,0,1-.858-.861Z" transform="translate(19.084 -160.928)" fill="#fff"/><path d="M77.309,15.234a3.1,3.1,0,0,1,3.236,1.716l.024.05,0,.007a.67.67,0,0,1-1.211.571,1.83,1.83,0,0,0-1.851-1.157,1.155,1.155,0,0,0-.85.505c-.137.251-.108.514.141.9a3.414,3.414,0,0,0,2.362,1.2,20.71,20.71,0,0,0,3.059.215h.128a2.154,2.154,0,0,1-.82-.95,1.989,1.989,0,0,1,.009-1.75A2.3,2.3,0,0,1,82.811,15.5a2.762,2.762,0,0,1,2.865.634,4.885,4.885,0,0,1,.981,1.277,6.421,6.421,0,0,1,2.7-.429,2.117,2.117,0,0,1,1.385.638,1.835,1.835,0,0,1,.44,1.562,2.154,2.154,0,0,1-2.669,1.469q-.086-.025-.17-.057a1.209,1.209,0,0,1-.657-.927,2.366,2.366,0,0,1,.047-.946,1.2,1.2,0,0,1,.337-.578.989.989,0,0,1,.828-.246,1.926,1.926,0,0,1,.969.5l.031.025a.678.678,0,1,1-.978.922.682.682,0,0,0-.116-.111,1.063,1.063,0,0,0-.041.3c0,.109,0,.14.075.2a1.348,1.348,0,0,0,1.7-.711,1.255,1.255,0,0,0-.183-1.073,1.7,1.7,0,0,0-1.052-.626,6.277,6.277,0,0,0-2.633.111,6.793,6.793,0,0,1,.468,1.055,6.272,6.272,0,0,1-.422,5.212,3.451,3.451,0,0,1-2.091,1.573,4.491,4.491,0,0,1-2.571-.16,4.417,4.417,0,0,0,2.522-.01A3.192,3.192,0,0,0,86.4,23.512a5.777,5.777,0,0,0,.08-4.8,4.765,4.765,0,0,0-1.362-1.929,1.8,1.8,0,0,0-1.936-.335c-.67.289-.878.822-.6,1.321a1.163,1.163,0,0,0,1.459.5l.03-.011a.67.67,0,1,1,.438,1.266l-.046.015c-.053.019-.11.025-.165.039a2.313,2.313,0,0,1,.93.87,3.032,3.032,0,0,1-.171,3.2,1.821,1.821,0,0,1-1.467.738,1.363,1.363,0,0,1-1.3-.908,1.337,1.337,0,0,1,.386-1.493c.524-.324,1.069.1,1.417.427-.365-.319-.938-.674-1.368-.358a1.212,1.212,0,0,0-.277,1.361,1.147,1.147,0,0,0,1.135.718,1.516,1.516,0,0,0,1.2-.678,2.62,2.62,0,0,0,.017-2.734,1.8,1.8,0,0,0-1.1-.748,4.881,4.881,0,0,0-1.468-.042,21.668,21.668,0,0,1-3.192-.035,4.336,4.336,0,0,1-3.112-1.459,1.915,1.915,0,0,1-.284-2.031,2.3,2.3,0,0,1,1.664-1.179m11.546,3.83.006,0c.031-.046.013-.03-.006,0Z" transform="translate(0.932 -15.199)" fill="#fff"/><path d="M59.89,37.8a2.545,2.545,0,0,1,.16,2.01c.414-.89-.945-1.576-1.419-2.01s.668-.868,1.259,0" transform="translate(33.231 -35.627)" fill="#fff"/><path d="M100.658,109.594l-1.266,1.266s-.353-1.307,1.266-1.266" transform="translate(-10.319 -102.475)" fill="#fff"/><path d="M90.479,92.554a1.522,1.522,0,0,1,2.375-.16,2.394,2.394,0,0,0-2.19,1.163c-.462.547-.592-.36-.185-1" transform="translate(-1.827 -86.115)" fill="#fff"/><path d="M14.3,24.778c-.789-.512.1-.848.789-.16.516.515.525.878.5,1.026A2.159,2.159,0,0,1,17.951,24l-2.69,2.69a3.069,3.069,0,0,0-.962-1.913" transform="translate(78.823 -23.32)" fill="#fff"/><path d="M163.963,82.095a.718.718,0,0,1,0,.343.71.71,0,0,1-1.378-.344l.064-.257a1.7,1.7,0,0,1,.76-1.021,2.38,2.38,0,0,1,1.014-.332,3.066,3.066,0,0,1,1.862.408,1.825,1.825,0,0,1,.957,1.6,1.431,1.431,0,0,1-1.159,1.223,1.23,1.23,0,0,0,.756-1.207,1.309,1.309,0,0,0-.878-.965A2.2,2.2,0,0,0,164.6,81.5c-.434.122-.686.421-.642.594" transform="translate(-81.669 -75.547)" fill="#fff"/><path d="M12.044,306.946a1.989,1.989,0,0,1,1.75.01,2.292,2.292,0,0,1,1.044,1.271,2.763,2.763,0,0,1-.634,2.865,4.882,4.882,0,0,1-1.277.979,6.426,6.426,0,0,1,.43,2.7,2.124,2.124,0,0,1-.638,1.386,1.835,1.835,0,0,1-1.562.439,2.154,2.154,0,0,1-1.469-2.669q.025-.086.057-.17a1.207,1.207,0,0,1,.927-.657,2.341,2.341,0,0,1,.944.048,1.2,1.2,0,0,1,.579.336.986.986,0,0,1,.246.829,1.926,1.926,0,0,1-.5.969l-.024.029a.678.678,0,0,1-1.083-.817l.026-.033A.717.717,0,0,1,11,314.33a.643.643,0,0,0,.111-.115,1.022,1.022,0,0,0-.3-.041c-.109,0-.14,0-.2.075a1.348,1.348,0,0,0,.712,1.7,1.259,1.259,0,0,0,1.073-.181,1.705,1.705,0,0,0,.625-1.052,6.241,6.241,0,0,0-.111-2.633,6.753,6.753,0,0,1-1.055.467,6.269,6.269,0,0,1-5.213-.422,3.459,3.459,0,0,1-1.574-2.09,4.494,4.494,0,0,1,.16-2.573,4.4,4.4,0,0,0,.01,2.523,3.192,3.192,0,0,0,1.581,1.835,5.772,5.772,0,0,0,4.8.08,4.743,4.743,0,0,0,1.929-1.361,1.807,1.807,0,0,0,.335-1.937c-.288-.669-.821-.878-1.321-.6a1.161,1.161,0,0,0-.5,1.459.67.67,0,0,1-1.244.5l-.011-.029-.016-.046c-.018-.054-.025-.111-.039-.167a2.3,2.3,0,0,1-.868.931,3.032,3.032,0,0,1-3.2-.169,1.824,1.824,0,0,1-.738-1.467,1.365,1.365,0,0,1,.909-1.3,1.337,1.337,0,0,1,1.493.387c.319.523-.1,1.068-.428,1.416.319-.365.674-.938.357-1.368a1.211,1.211,0,0,0-1.361-.277,1.147,1.147,0,0,0-.713,1.135,1.516,1.516,0,0,0,.679,1.2,2.621,2.621,0,0,0,2.734.016,1.8,1.8,0,0,0,.748-1.1,4.871,4.871,0,0,0,.042-1.467,21.413,21.413,0,0,1,.035-3.192,4.332,4.332,0,0,1,1.459-3.112,1.915,1.915,0,0,1,2.032-.283,2.3,2.3,0,0,1,1.174,1.661,3.1,3.1,0,0,1-1.717,3.236l-.045.023a.669.669,0,1,1-.594-1.2l.011-.006a1.827,1.827,0,0,0,1.157-1.851,1.155,1.155,0,0,0-.505-.85c-.25-.137-.514-.109-.9.141a3.415,3.415,0,0,0-1.2,2.362,20.972,20.972,0,0,0-.215,3.059v.129a2.155,2.155,0,0,1,.951-.824m-.764,7.324v.006c.049.032.033.014,0-.006" transform="translate(82.316 -279.354)" fill="#fff"/><path d="M29.048,504.509c.434-.473.868.67,0,1.262a2.548,2.548,0,0,1-2.01.16c.893.409,1.578-.95,2.01-1.422" transform="translate(66.241 -467.519)" fill="#fff"/><path d="M100.586,469.775l-1.27-1.264s1.31-.356,1.27,1.264" transform="translate(-10.246 -434.307)" fill="#fff"/><path d="M82.8,460.3a1.522,1.522,0,0,1,.16,2.374,2.394,2.394,0,0,0-1.164-2.19c-.546-.461.36-.592,1-.184" transform="translate(8.216 -426.521)" fill="#fff"/><path d="M15.652,518.8c.513-.789.848.1.16.79-.516.516-.878.524-1.028.5a2.161,2.161,0,0,1,1.645,2.367l-2.69-2.691a3.06,3.06,0,0,0,1.913-.962" transform="translate(80.348 -480.549)" fill="#fff"/><path d="M71.792,361.8a.71.71,0,1,1,0-1.38l.261.065a1.7,1.7,0,0,1,1.021.759,2.369,2.369,0,0,1,.331,1.014A3.065,3.065,0,0,1,73,364.122a1.83,1.83,0,0,1-1.6.958,1.436,1.436,0,0,1-1.222-1.161,1.227,1.227,0,0,0,1.206.756,1.31,1.31,0,0,0,.965-.878,2.2,2.2,0,0,0,.038-1.356c-.127-.432-.42-.683-.6-.639" transform="translate(19.118 -334.377)" fill="#fff"/><path d="M79.038,450.514a21.671,21.671,0,0,1,3.192-.035,4.876,4.876,0,0,0,1.468-.042,1.806,1.806,0,0,0,1.1-.748,2.619,2.619,0,0,0-.017-2.734,1.516,1.516,0,0,0-1.2-.679,1.146,1.146,0,0,0-1.135.713,1.214,1.214,0,0,0,.277,1.362c.43.319,1-.041,1.368-.359-.348.328-.895.751-1.417.428a1.337,1.337,0,0,1-.386-1.493,1.361,1.361,0,0,1,1.3-.908,1.819,1.819,0,0,1,1.467.738,3.033,3.033,0,0,1,.171,3.2,2.3,2.3,0,0,1-.931.868c.055.014.112.021.165.039l.045.016a.67.67,0,0,1-.438,1.266l-.03-.011a1.163,1.163,0,0,0-1.459.5c-.279.5-.072,1.037.6,1.321a1.8,1.8,0,0,0,1.936-.335,4.755,4.755,0,0,0,1.362-1.929,5.777,5.777,0,0,0-.08-4.8,3.192,3.192,0,0,0-1.835-1.582,4.408,4.408,0,0,0-2.522-.01,4.491,4.491,0,0,1,2.571-.16,3.459,3.459,0,0,1,2.091,1.574,6.273,6.273,0,0,1,.422,5.213,6.75,6.75,0,0,1-.468,1.055,6.261,6.261,0,0,0,2.633.112,1.7,1.7,0,0,0,1.052-.626,1.255,1.255,0,0,0,.183-1.073,1.35,1.35,0,0,0-1.7-.712c-.08.058-.08.089-.075.2a1.069,1.069,0,0,0,.041.3.687.687,0,0,0,.116-.113.678.678,0,0,1,1.1.791.639.639,0,0,1-.124.13l-.031.026a1.925,1.925,0,0,1-.969.5.989.989,0,0,1-.828-.247,1.2,1.2,0,0,1-.337-.578,2.361,2.361,0,0,1-.047-.944,1.209,1.209,0,0,1,.657-.927,2.154,2.154,0,0,1,2.783,1.241q.032.084.057.171a1.835,1.835,0,0,1-.44,1.561,2.122,2.122,0,0,1-1.385.638,6.424,6.424,0,0,1-2.7-.429,4.915,4.915,0,0,1-.981,1.277,2.762,2.762,0,0,1-2.865.633,2.291,2.291,0,0,1-1.271-1.045,1.988,1.988,0,0,1-.009-1.75,2.16,2.16,0,0,1,.82-.95h-.128a20.7,20.7,0,0,0-3.059.215,3.414,3.414,0,0,0-2.362,1.2c-.25.386-.278.65-.141.9a1.148,1.148,0,0,0,.85.505,1.827,1.827,0,0,0,1.851-1.157.67.67,0,0,1,1.211.571l0,.008-.024.048a3.1,3.1,0,0,1-3.236,1.717A2.3,2.3,0,0,1,75.645,454a1.915,1.915,0,0,1,.284-2.031,4.337,4.337,0,0,1,3.109-1.458m9.815.839h-.006c.024.03.042.045.01,0Z" transform="translate(0.936 -412.625)" fill="#fff"/><path d="M60.1,524.7a2.545,2.545,0,0,1-.16,2.01c-.591.868-1.736.434-1.262,0s1.832-1.122,1.422-2.01" transform="translate(33.182 -486.294)" fill="#fff"/><path d="M99.423,468.885l1.266,1.267c-1.617.041-1.266-1.267-1.266-1.267" transform="translate(-10.353 -434.684)" fill="#fff"/><path d="M90.479,480.349c-.407-.642-.277-1.55.185-1a2.394,2.394,0,0,0,2.19,1.163,1.522,1.522,0,0,1-2.375-.162" transform="translate(-1.827 -444.201)" fill="#fff"/><path d="M14.3,537.3a3.069,3.069,0,0,0,.962-1.915l2.69,2.69a2.159,2.159,0,0,1-2.366-1.644c.028.149.019.51-.5,1.026-.69.691-1.578.355-.789-.157" transform="translate(78.823 -496.169)" fill="#fff"/><path d="M165.981,474.01a1.311,1.311,0,0,0,.878-.964,1.23,1.23,0,0,0-.756-1.207,1.431,1.431,0,0,1,1.159,1.222,1.826,1.826,0,0,1-.957,1.6,3.058,3.058,0,0,1-1.862.407,2.367,2.367,0,0,1-1.014-.331,1.708,1.708,0,0,1-.76-1.021l-.064-.258a.71.71,0,0,1,1.378-.343.719.719,0,0,1,0,.343c-.044.176.207.471.642.594a2.2,2.2,0,0,0,1.356-.038" transform="translate(-81.691 -437.415)" fill="#fff"/><path d="M1165.8,95.372a2,2,0,0,1-1.75-.01A2.287,2.287,0,0,1,1163,94.091a2.763,2.763,0,0,1,.633-2.865,4.924,4.924,0,0,1,1.277-.979,6.428,6.428,0,0,1-.429-2.7,2.122,2.122,0,0,1,.638-1.386,1.835,1.835,0,0,1,1.562-.439,2.154,2.154,0,0,1,1.469,2.669q-.025.086-.057.17a1.207,1.207,0,0,1-.927.656,2.325,2.325,0,0,1-.944-.047,1.2,1.2,0,0,1-.578-.336.989.989,0,0,1-.246-.829,1.933,1.933,0,0,1,.5-.969l.023-.028a.678.678,0,1,1,.924.975.688.688,0,0,0-.112.115,1.032,1.032,0,0,0,.3.042c.109,0,.14,0,.2-.075a1.349,1.349,0,0,0-.712-1.7,1.255,1.255,0,0,0-1.073.181,1.707,1.707,0,0,0-.626,1.052,6.261,6.261,0,0,0,.113,2.633,6.639,6.639,0,0,1,1.055-.467,6.267,6.267,0,0,1,5.211.422,3.455,3.455,0,0,1,1.575,2.09,4.5,4.5,0,0,1-.16,2.573,4.411,4.411,0,0,0-.01-2.523,3.192,3.192,0,0,0-1.582-1.835,5.773,5.773,0,0,0-4.8-.08,4.745,4.745,0,0,0-1.929,1.361,1.8,1.8,0,0,0-.335,1.936c.287.67.821.878,1.321.6a1.161,1.161,0,0,0,.5-1.459.67.67,0,1,1,1.244-.5l.01.028.017.047c.018.054.025.111.039.165a2.307,2.307,0,0,1,.868-.931,3.032,3.032,0,0,1,3.2.171,1.821,1.821,0,0,1,.738,1.467,1.361,1.361,0,0,1-.908,1.3,1.335,1.335,0,0,1-1.492-.386c-.319-.523.1-1.068.428-1.416-.319.364-.676.936-.359,1.368a1.211,1.211,0,0,0,1.362.275,1.145,1.145,0,0,0,.713-1.135,1.522,1.522,0,0,0-.678-1.2,2.62,2.62,0,0,0-2.734-.016,1.806,1.806,0,0,0-.748,1.1,4.879,4.879,0,0,0-.042,1.468,21.7,21.7,0,0,1-.035,3.192,4.336,4.336,0,0,1-1.459,3.112,1.915,1.915,0,0,1-2.031.284,2.3,2.3,0,0,1-1.174-1.661,3.1,3.1,0,0,1,1.717-3.236l.046-.022a.669.669,0,0,1,.592,1.2l-.01,0a1.827,1.827,0,0,0-1.157,1.851,1.148,1.148,0,0,0,.505.851c.25.137.514.109.9-.141a3.416,3.416,0,0,0,1.2-2.362,20.73,20.73,0,0,0,.216-3.059v-.129a2.169,2.169,0,0,1-.95.824m.764-7.323v-.006c-.049-.029-.033-.011,0,.009Z" transform="translate(-1162.7 -80.379)" fill="#fff"/><path d="M1242.886,70.344c-.434.473-.868-.67,0-1.263a2.554,2.554,0,0,1,2.01-.16c-.89-.41-1.576.95-2.01,1.423" transform="translate(-1240.72 -64.744)" fill="#fff"/><path d="M1186.569,109.616l1.267,1.267s-1.306.351-1.267-1.267" transform="translate(-1179.453 -102.497)" fill="#fff"/><path d="M1197.472,102.866a1.521,1.521,0,0,1-.16-2.375,2.394,2.394,0,0,0,1.164,2.19c.543.461-.366.592-1,.184" transform="translate(-1191.031 -94.059)" fill="#fff"/><path d="M1253.892,27.9c-.512.79-.848-.1-.16-.789.515-.515.878-.525,1.026-.5a2.161,2.161,0,0,1-1.644-2.367l2.69,2.69a3.069,3.069,0,0,0-1.913.962" transform="translate(-1252.436 -23.56)" fill="#fff"/><path d="M1189.937,173.779a1.827,1.827,0,0,1,1.6-.958,1.436,1.436,0,0,1,1.222,1.159,1.229,1.229,0,0,0-1.207-.755,1.311,1.311,0,0,0-.964.878,2.2,2.2,0,0,0-.038,1.356c.123.435.418.687.594.642a.71.71,0,1,1,0,1.38l-.261-.065a1.71,1.71,0,0,1-1.021-.759,2.375,2.375,0,0,1-.331-1.014,3.063,3.063,0,0,1,.41-1.865" transform="translate(-1184.593 -160.937)" fill="#fff"/><path d="M1030.726,19.869a21.677,21.677,0,0,1-3.192.035,4.875,4.875,0,0,0-1.467.042,1.8,1.8,0,0,0-1.1.748,2.622,2.622,0,0,0,.016,2.734,1.522,1.522,0,0,0,1.2.678,1.148,1.148,0,0,0,1.135-.718,1.212,1.212,0,0,0-.277-1.361c-.43-.319-1,.041-1.368.357.348-.328.895-.751,1.416-.427a1.336,1.336,0,0,1,.387,1.493,1.363,1.363,0,0,1-1.3.908,1.824,1.824,0,0,1-1.467-.738,3.033,3.033,0,0,1-.169-3.2,2.308,2.308,0,0,1,.931-.868c-.055-.014-.113-.02-.167-.039l-.044-.015a.67.67,0,0,1,.437-1.266l.031.011a1.162,1.162,0,0,0,1.459-.5c.28-.5.072-1.033-.6-1.321a1.807,1.807,0,0,0-1.937.335,4.753,4.753,0,0,0-1.361,1.929,5.77,5.77,0,0,0,.08,4.8,3.191,3.191,0,0,0,1.835,1.581,4.42,4.42,0,0,0,2.523.01,4.5,4.5,0,0,1-2.573.16,3.451,3.451,0,0,1-2.09-1.574,6.268,6.268,0,0,1-.422-5.212,6.62,6.62,0,0,1,.468-1.055,6.277,6.277,0,0,0-2.633-.111,1.7,1.7,0,0,0-1.052.626,1.258,1.258,0,0,0-.181,1.073,1.348,1.348,0,0,0,1.7.711c.08-.057.08-.089.075-.2a1.025,1.025,0,0,0-.042-.3.727.727,0,0,0-.115.111.678.678,0,1,1-1.1-.79.7.7,0,0,1,.123-.132l.032-.025a1.926,1.926,0,0,1,.969-.5.989.989,0,0,1,.829.246,1.194,1.194,0,0,1,.336.579,2.343,2.343,0,0,1,.048.946,1.209,1.209,0,0,1-.657.927,2.154,2.154,0,0,1-2.782-1.241q-.032-.084-.057-.17a1.835,1.835,0,0,1,.439-1.562,2.119,2.119,0,0,1,1.386-.638,6.423,6.423,0,0,1,2.7.429,4.9,4.9,0,0,1,.979-1.277,2.762,2.762,0,0,1,2.865-.634,2.293,2.293,0,0,1,1.271,1.045,2,2,0,0,1,.01,1.75,2.156,2.156,0,0,1-.821.949h.129A20.709,20.709,0,0,0,1030.6,19a3.417,3.417,0,0,0,2.362-1.2c.25-.386.278-.649.141-.9a1.155,1.155,0,0,0-.85-.505,1.829,1.829,0,0,0-1.851,1.157.67.67,0,0,1-1.211-.571l0-.007.024-.049a3.1,3.1,0,0,1,3.236-1.716,2.3,2.3,0,0,1,1.661,1.174,1.916,1.916,0,0,1-.284,2.031,4.337,4.337,0,0,1-3.11,1.463m-9.815-.84.006,0c-.023-.033-.042-.05-.006,0" transform="translate(-1013.244 -15.17)" fill="#fff"/><path d="M1222.167,39.806a2.548,2.548,0,0,1,.16-2.01c.591-.868,1.735-.434,1.263,0s-1.835,1.12-1.422,2.01" transform="translate(-1217.99 -35.627)" fill="#fff"/><path d="M1187.384,110.86l-1.267-1.266c1.62-.041,1.267,1.266,1.267,1.266" transform="translate(-1178.999 -102.475)" fill="#fff"/><path d="M1180.109,92.545c.408.644.278,1.55-.184,1a2.394,2.394,0,0,0-2.19-1.163,1.521,1.521,0,0,1,2.374.161" transform="translate(-1171.304 -86.106)" fill="#fff"/><path d="M1239.825,24.807a3.07,3.07,0,0,0-.962,1.915l-2.691-2.69a2.161,2.161,0,0,1,2.367,1.644c-.028-.149-.019-.511.5-1.026.69-.691,1.578-.355.789.157" transform="translate(-1235.491 -23.349)" fill="#fff"/><path d="M1079.359,81.528a1.31,1.31,0,0,0-.878.965,1.229,1.229,0,0,0,.756,1.207,1.436,1.436,0,0,1-1.161-1.223,1.828,1.828,0,0,1,.957-1.6,3.066,3.066,0,0,1,1.863-.408,2.386,2.386,0,0,1,1.014.332,1.7,1.7,0,0,1,.759,1.021l.064.257a.71.71,0,1,1-1.377,0c.043-.176-.208-.471-.644-.594a2.195,2.195,0,0,0-1.352.04" transform="translate(-1066.193 -75.536)" fill="#fff"/><path d="M1165.113,304.753l.01.006a.669.669,0,0,1-.592,1.2l-.045-.023a3.1,3.1,0,0,1-1.717-3.236,2.3,2.3,0,0,1,1.174-1.661,1.914,1.914,0,0,1,2.031.283,4.336,4.336,0,0,1,1.46,3.112,21.7,21.7,0,0,1,.035,3.192,4.865,4.865,0,0,0,.042,1.467,1.8,1.8,0,0,0,.748,1.1,2.621,2.621,0,0,0,2.734-.016,1.522,1.522,0,0,0,.678-1.2,1.147,1.147,0,0,0-.713-1.135,1.214,1.214,0,0,0-1.362.277c-.319.43.042,1,.359,1.368-.329-.348-.751-.894-.428-1.416a1.337,1.337,0,0,1,1.492-.387,1.362,1.362,0,0,1,.908,1.3,1.821,1.821,0,0,1-.738,1.467,3.032,3.032,0,0,1-3.2.169,2.293,2.293,0,0,1-.868-.931c-.014.055-.021.112-.039.167l-.017.046-.01.029a.67.67,0,0,1-1.244-.5,1.161,1.161,0,0,0-.5-1.459c-.5-.28-1.037-.073-1.321.6a1.8,1.8,0,0,0,.335,1.937,4.743,4.743,0,0,0,1.929,1.361,5.77,5.77,0,0,0,4.8-.08,3.186,3.186,0,0,0,1.581-1.835,4.41,4.41,0,0,0,.01-2.523,4.5,4.5,0,0,1,.16,2.573,3.458,3.458,0,0,1-1.575,2.09,6.268,6.268,0,0,1-5.211.422,6.738,6.738,0,0,1-1.055-.467,6.259,6.259,0,0,0-.113,2.633,1.708,1.708,0,0,0,.626,1.052,1.259,1.259,0,0,0,1.073.181,1.348,1.348,0,0,0,.712-1.7c-.058-.08-.089-.08-.2-.075a1.031,1.031,0,0,0-.3.041.685.685,0,0,0,.113.115.678.678,0,1,1-.924.975l-.023-.029a1.925,1.925,0,0,1-.5-.969.99.99,0,0,1,.247-.829,1.2,1.2,0,0,1,.578-.336,2.341,2.341,0,0,1,.944-.048,1.209,1.209,0,0,1,.927.657,2.155,2.155,0,0,1-1.241,2.783q-.084.032-.171.057a1.835,1.835,0,0,1-1.561-.439,2.123,2.123,0,0,1-.638-1.386,6.419,6.419,0,0,1,.429-2.7,4.913,4.913,0,0,1-1.277-.979,2.763,2.763,0,0,1-.633-2.865,2.288,2.288,0,0,1,1.045-1.271,1.988,1.988,0,0,1,1.75-.01,2.161,2.161,0,0,1,.95.821v-.129a20.73,20.73,0,0,0-.215-3.059,3.414,3.414,0,0,0-1.2-2.362c-.386-.25-.65-.279-.9-.141a1.148,1.148,0,0,0-.5.85,1.826,1.826,0,0,0,1.157,1.854m1.48,9.5v-.006c-.029.022-.045.041,0,.009Z" transform="translate(-1162.737 -279.328)" fill="#fff"/><path d="M1242.886,505.74c-.868-.591-.434-1.735,0-1.262s1.117,1.835,2.01,1.419a2.548,2.548,0,0,1-2.01-.157" transform="translate(-1240.72 -467.49)" fill="#fff"/><path d="M1187.836,468.512l-1.267,1.267c-.039-1.623,1.267-1.267,1.267-1.267" transform="translate(-1179.453 -434.308)" fill="#fff"/><path d="M1197.389,462.672a1.521,1.521,0,0,1,.16-2.374c.643-.408,1.55-.278,1,.184a2.394,2.394,0,0,0-1.161,2.19" transform="translate(-1191.114 -426.518)" fill="#fff"/><path d="M1254.691,520.085c-.149.028-.511.019-1.026-.5-.691-.691-.355-1.579.16-.79a3.064,3.064,0,0,0,1.915.962l-2.69,2.691a2.161,2.161,0,0,1,1.642-2.367" transform="translate(-1252.366 -480.549)" fill="#fff"/><path d="M1191.575,364.661a1.228,1.228,0,0,0,1.207-.756,1.437,1.437,0,0,1-1.222,1.161,1.828,1.828,0,0,1-1.6-.957,3.059,3.059,0,0,1-.407-1.862,2.367,2.367,0,0,1,.331-1.014,1.7,1.7,0,0,1,1.021-.759l.261-.065a.71.71,0,1,1,0,1.38c-.176-.044-.472.207-.594.642a2.2,2.2,0,0,0,.038,1.356,1.311,1.311,0,0,0,.961.875" transform="translate(-1184.623 -334.364)" fill="#fff"/><path d="M1018.594,451.238a2.155,2.155,0,0,1,2.669-1.469q.086.025.17.057a1.209,1.209,0,0,1,.657.927,2.338,2.338,0,0,1-.048.944,1.189,1.189,0,0,1-.336.578.99.99,0,0,1-.829.247,1.925,1.925,0,0,1-.969-.5l-.032-.026a.677.677,0,1,1,.979-.921.674.674,0,0,0,.115.112,1.034,1.034,0,0,0,.042-.3c0-.109,0-.14-.075-.2a1.349,1.349,0,0,0-1.7.712,1.258,1.258,0,0,0,.181,1.073,1.707,1.707,0,0,0,1.052.626,6.261,6.261,0,0,0,2.633-.112,6.547,6.547,0,0,1-.468-1.055,6.269,6.269,0,0,1,.422-5.213,3.459,3.459,0,0,1,2.09-1.574,4.5,4.5,0,0,1,2.573.16,4.412,4.412,0,0,0-2.523.01,3.188,3.188,0,0,0-1.835,1.581,5.77,5.77,0,0,0-.08,4.8,4.744,4.744,0,0,0,1.361,1.929,1.807,1.807,0,0,0,1.937.335c.669-.288.878-.821.6-1.321a1.162,1.162,0,0,0-1.459-.5l-.031.011a.67.67,0,0,1-.437-1.266l.044-.016c.054-.018.111-.025.167-.039a2.3,2.3,0,0,1-.931-.868,3.032,3.032,0,0,1,.169-3.2,1.821,1.821,0,0,1,1.467-.738,1.363,1.363,0,0,1,1.3.908,1.337,1.337,0,0,1-.387,1.493c-.522.319-1.068-.1-1.416-.428.365.319.938.676,1.368.359a1.213,1.213,0,0,0,.277-1.362,1.147,1.147,0,0,0-1.135-.713,1.523,1.523,0,0,0-1.2.679,2.622,2.622,0,0,0-.016,2.734,1.8,1.8,0,0,0,1.1.748,4.87,4.87,0,0,0,1.467.042,21.694,21.694,0,0,1,3.192.035,4.336,4.336,0,0,1,3.112,1.459,1.915,1.915,0,0,1,.284,2.031,2.294,2.294,0,0,1-1.661,1.174,3.1,3.1,0,0,1-3.236-1.717l-.024-.048,0-.008a.67.67,0,1,1,1.211-.571,1.826,1.826,0,0,0,1.851,1.157,1.148,1.148,0,0,0,.85-.505c.137-.25.109-.514-.141-.9a3.415,3.415,0,0,0-2.362-1.2,20.7,20.7,0,0,0-3.058-.215h-.129a2.162,2.162,0,0,1,.821.95,1.994,1.994,0,0,1-.01,1.75,2.287,2.287,0,0,1-1.271,1.044,2.763,2.763,0,0,1-2.865-.633,4.936,4.936,0,0,1-.979-1.277,6.423,6.423,0,0,1-2.7.429,2.124,2.124,0,0,1-1.386-.638,1.835,1.835,0,0,1-.44-1.563m2.323.12h-.005c-.033.049-.014.033,0,0Z" transform="translate(-1013.246 -412.634)" fill="#fff"/><path d="M1222.373,526.713a2.547,2.547,0,0,1-.16-2.01c-.413.891.947,1.576,1.419,2.01s-.669.867-1.26,0" transform="translate(-1218.039 -486.294)" fill="#fff"/><path d="M1186.116,470.152l1.267-1.267s.353,1.308-1.267,1.267" transform="translate(-1178.999 -434.684)" fill="#fff"/><path d="M1180.112,480.335a1.521,1.521,0,0,1-2.116.385,1.5,1.5,0,0,1-.258-.225,2.394,2.394,0,0,0,2.189-1.163c.461-.546.592.361.184,1" transform="translate(-1171.307 -444.187)" fill="#fff"/><path d="M1238.863,535.393a3.07,3.07,0,0,0,.962,1.915c.789.512-.1.848-.789.16-.516-.516-.525-.878-.5-1.026a2.161,2.161,0,0,1-2.367,1.644Z" transform="translate(-1235.491 -496.178)" fill="#fff"/><path d="M1081.368,473.454a.709.709,0,1,1,1.377,0l-.064.258a1.7,1.7,0,0,1-.759,1.021,2.368,2.368,0,0,1-1.014.331,3.057,3.057,0,0,1-1.862-.407,1.828,1.828,0,0,1-.958-1.6,1.436,1.436,0,0,1,1.161-1.222,1.229,1.229,0,0,0-.756,1.207,1.311,1.311,0,0,0,.878.964,2.2,2.2,0,0,0,1.357.038c.432-.124.686-.418.64-.594" transform="translate(-1066.205 -437.415)" fill="#fff"/></g></g></g></g><path d="M8.216-19.89H1.2v1.43h7.02v2.678c-2.132.26-5.2.78-7.41.858l.624,2.418a.255.255,0,0,0,.26.208.87.87,0,0,0,.494-.364c1.976-.52,4.056-1.066,6.032-1.612v1.638H11.7v-8.476a1.183,1.183,0,0,0,.13-.52c0-.364-.1-.416-.338-.416l-3.328-.026a14.115,14.115,0,0,1,.052,1.482Zm8.97,1.04v-2.314a.715.715,0,0,0,.182-.468.364.364,0,0,0-.39-.416l-3.3-.026a10.954,10.954,0,0,1,.1,1.326V-15.5c0,2.366.468,2.7,2.782,2.7h5.382c2.34,0,2.964-.962,3.432-3.12a22.708,22.708,0,0,1-2.912-1.2,5.145,5.145,0,0,1-.624,2.418,1.28,1.28,0,0,1-1.2.442H18.2c-.832,0-1.014-.1-1.014-.962v-2.054a45.145,45.145,0,0,0,6.708-1.95l.234.026c.156.026.442-.13.442-.312,0-.078-.1-.156-.234-.286l-1.976-2A18.51,18.51,0,0,1,17.186-18.85ZM18.642-2.782V-.624c0,.754-.078,1.3-.962,1.3A27.409,27.409,0,0,1,14.742.468l.572,1.638h4.394c2.08,0,2.5-.7,2.5-2.7V-11.882H3.952V2.262H7.514V-2.782Zm0-5.278H7.514v-2.366H18.642Zm0,3.822H7.514V-6.63H18.642ZM39-14.352h7.67V-21.4H27.69v7.046h7.722v1.508h-10.4v1.43H49.244v-1.43H39Zm4.108-4.316H31.33v-1.274H43.108Zm0,1.4v1.482H31.33v-1.482ZM38.974-4.342h7.15V-9.958H28.158v5.616h7.28V-.52c0,.78-.052,1.222-.78,1.222A18.6,18.6,0,0,1,31.876.416l.52,1.716h3.822a5.016,5.016,0,0,0,1.9-.26c.858-.364.858-1.43.858-2.444ZM31.824-8.5H42.536v2.73H31.824ZM26.13,1.612A23.221,23.221,0,0,0,33.306-2.08c.39-.156.7-.312.7-.572a.217.217,0,0,0-.156-.234L30.238-4.238a4.394,4.394,0,0,1-.832,1.326,14.41,14.41,0,0,1-4.5,3.406Zm15.5-5.642L40.534-2.938a29.331,29.331,0,0,1,5.3,4.836L48.672-.494A31.936,31.936,0,0,0,41.626-4.03ZM66.014-2.574c.026-1.924.026-3.848-.1-5.772A30.677,30.677,0,0,1,71.4-9.672l-.754-2.678c-1.716.624-3.432,1.274-5.122,1.976a5.247,5.247,0,0,0-.936-1.716,4.413,4.413,0,0,0-3.38-1.352,5.168,5.168,0,0,0-2.808.858C59.1-13.806,59.8-15,60.5-16.2c2.652-.156,5.278-.286,7.93-.494v-2a43.675,43.675,0,0,1-6.89.78,16.294,16.294,0,0,1,1.56-2.314.531.531,0,0,0,.208-.338c0-.234-.338-.338-.806-.468l-3.25-.858a31.372,31.372,0,0,1-2.028,4.212c-1.326.052-2.626.1-3.926.1-.546,0-1.092,0-1.638-.026l-.052,1.9c1.586-.1,3.146-.182,4.732-.26C54.5-12.48,52.65-8.97,51.038-5.382l3.2,1.274A38.056,38.056,0,0,1,56.368-8.5c.832-1.456,1.95-3.068,3.822-3.068,1.56,0,2.054,1.3,2.288,2.6C59.956-7.67,55.9-5.434,55.9-2.184c0,3.64,4.55,3.822,7.228,3.822h3.666a33.927,33.927,0,0,0,4.29-.26L71.032-.728a33.17,33.17,0,0,1-6.422.6c-1.95,0-5.2-.078-5.2-2.756,0-1.976,1.612-3.2,3.172-4.082-.026,1.456-.026,2.938-.078,4.394ZM98.8-18.8A11.883,11.883,0,0,0,96.72-22l-1.352.52a12.5,12.5,0,0,1,1.508,3.406Zm-2.678.962A14.379,14.379,0,0,0,93.99-21.5l-1.3.494a16.161,16.161,0,0,1,1.508,3.9ZM75.66-20.488c-.052.728-.13,1.456-.208,2.21A94.536,94.536,0,0,0,74.776-7.41,49.253,49.253,0,0,0,75.27.416l3.64-.624a46.912,46.912,0,0,1-.65-7.878,69.576,69.576,0,0,1,.494-7.722,15.275,15.275,0,0,1,.624-3.484.737.737,0,0,0,.1-.338c0-.208-.494-.286-.806-.338Zm17.472.416c-3.224.208-6.5.208-9.724.208h-2.08V-18.1l6.006-.156c0,1.4,0,2.808.026,4.212-1.43.026-2.86.052-4.29.052-.78,0-1.586,0-2.366-.052l.026,1.82q3.315-.117,6.63-.156c.026,1.716.052,3.432.13,5.148A6.293,6.293,0,0,0,86.5-7.28c-2.652,0-6.058,1.066-6.058,4.264C80.444-.026,83.694.7,86.086.7,87.7.7,89.8.52,90.792-.988a5.347,5.347,0,0,0,.572-2.86A15.191,15.191,0,0,1,94.64-.806L96.668-3.8a20.356,20.356,0,0,0-5.382-2.782c-.078-1.95-.156-3.926-.234-5.9,1.56-.026,3.094-.078,4.628-.13L95.654-14.4a46.057,46.057,0,0,1-4.628.286l-.078-4.212,2.184-.078ZM87.568-5.33c.026.754.078,1.482.078,2.236a1.679,1.679,0,0,1-1.872,1.846A1.917,1.917,0,0,1,83.642-3.12c0-1.612,1.456-2.314,2.886-2.314A7.047,7.047,0,0,1,87.568-5.33ZM105.9-21.5l-2.106,6.162c-1.794.338-3.536.78-5.3,1.2l.494,2.158a28.763,28.763,0,0,1,4.134-1.43c-1.534,4.472-3.016,8.944-4.68,13.364l3.692,1.326c1.56-5.174,3.25-10.348,4.966-15.47a12.416,12.416,0,0,1,1.976-.208c2.184,0,2.262,1.638,2.262,3.692a20.222,20.222,0,0,1-1.534,8.32c-.26.6-.65,1.43-1.4,1.43a5.891,5.891,0,0,1-2.7-1.4l-.676,1.95c1.378.754,3.12,1.716,4.732,1.716,4.524,0,5.2-8.034,5.2-11.31,0-3.614-.832-5.954-4.888-5.954-.806,0-1.612.078-2.418.156a24.275,24.275,0,0,1,1.482-3.848c.182-.156.234-.234.234-.338,0-.234-.494-.416-.7-.494Zm16.016,10.166a36.716,36.716,0,0,0-5.2-7.54l-1.742,1.248A10.9,10.9,0,0,1,116.22-15.5a21.437,21.437,0,0,1,2.132,6.656Zm12.35-10.556c.156,1.352.208,2.73.286,4.082-3.848.156-7.722.26-11.57.468v1.9c3.874-.442,7.748-.546,11.648-.7.026.91.052,1.82.052,2.73a4.766,4.766,0,0,0-2.938-.988c-3.146,0-4.472,2.86-4.472,5.616,0,2.522,1.2,5.018,4.056,5.018a4.537,4.537,0,0,0,3.38-1.534,6.481,6.481,0,0,1-1.82,3.484A9.558,9.558,0,0,1,128.154.572l1.534,1.4c5.538-1.4,8.788-4.6,8.788-10.53,0-2.574-.1-5.122-.13-7.7,1.82-.052,3.614-.1,5.408-.1.39,0,.754,0,1.144.026v-1.924c-2.184.13-4.394.234-6.578.312,0-.7-.026-1.794-.026-2.522.052-.26.182-.624.182-.728,0-.286-.39-.39-.988-.442Zm-1.612,9.49c1.482,0,2.132,1.534,2.132,2.808a6.6,6.6,0,0,1-.182,1.586,2.242,2.242,0,0,1-2.08,1.846c-1.612,0-2.028-1.794-2.028-3.094C130.494-10.608,130.988-12.4,132.652-12.4Z" transform="translate(505 666)" fill="#fff"/></g></svg>