<svg xmlns="http://www.w3.org/2000/svg" xmlns:xlink="http://www.w3.org/1999/xlink" width="98.2" height="44.873" viewBox="0 0 98.2 44.873"><defs><clipPath id="a"><rect width="98.2" height="44.873" rx="7" fill="none"/></clipPath><clipPath id="b"><rect width="98.199" height="44.873" fill="none"/></clipPath><clipPath id="c"><rect width="97.457" height="42.586" fill="none"/></clipPath></defs><g clip-path="url(#a)"><path d="M0,0H98.2V44.873H0Z" fill="#aa9000"/><g clip-path="url(#b)"><path d="M284.324,143.418V119.083h10.365v8.242h-7.208v16.093Zm7.32-23.329h-4.163v2.542h4.163Zm0,3.548h-4.163v2.682h4.163Zm5.476,17.378v-6.4h-2.57a8.181,8.181,0,0,1-4.75,6.594l-.643-.531a8.565,8.565,0,0,0,2.514-6.063h-3.157v-1.006H291.7c.028-.5.028-1.034.028-1.593v-2.039h-2.263v-1.006h12.908v1.006h-2.263v3.632h3.241v1.006h-3.241v6.4Zm0-11.036h-2.4v2.039c0,.559-.028,1.09-.056,1.593h2.459Zm7.292-2.654h-7.767v-8.242h10.924v20.479c0,2.319-.307,3.856-2.71,3.856a15.567,15.567,0,0,1-4.275-.866v-1.006a8.3,8.3,0,0,0,2.291.475c1.229,0,1.537-.782,1.537-2.459Zm0-7.236H299.69v2.542h4.722Zm0,3.548H299.69v2.682h4.722Z" transform="translate(-261.347 -108.423)" fill="#fff"/><path d="M698.139,120.455c-.363-1.425-.782-2.794-1.2-4a88.5,88.5,0,0,1-9.555,3.548l-.838-2.906a30.135,30.135,0,0,1-2.347,8.186,33.7,33.7,0,0,1,3.073,1.984l-2.319,3.381a25.611,25.611,0,0,0-2.067-3.073,17.565,17.565,0,0,1-5.616,5l-.531-.782a16.029,16.029,0,0,0,4.61-6.035,7.358,7.358,0,0,0-1.732-1.453l-.475,1.648L676.6,124.9a90.2,90.2,0,0,0,2.291-11.511H676.71v-1.034H679q.293-2.347.5-4.861l3.045.5q-.209,2.221-.5,4.358h4.889v1.928c-.084.7-.168,1.369-.279,2.068.643,0,1.285,0,1.872-.028a42.478,42.478,0,0,0,2.626-8.857l4.051,1.285a33.582,33.582,0,0,1-5.476,7.544c2.4-.084,4.582-.307,6.929-.615-.363-1.006-.782-1.984-1.229-2.934l.726-.587a39.962,39.962,0,0,1,5.336,6.035Zm-16.233-7.069a92.058,92.058,0,0,1-2.04,10,15.1,15.1,0,0,1,2.1.754,40.884,40.884,0,0,0,1.788-10.757Zm14.221,19.222v-2.067h-4.75v2.067h-3.353V121.153H699.48v11.483Zm0-10.421h-4.75v7.348h4.75Z" transform="translate(-626.269 -97.613)" fill="#fff"/><g transform="translate(0.371 1.144)" opacity="0.3"><g clip-path="url(#c)"><path d="M7.3,97.611l.011,0a.669.669,0,1,0-.594-1.2l-.045.022a3.1,3.1,0,0,0-1.717,3.236,2.3,2.3,0,0,0,1.174,1.661,1.915,1.915,0,0,0,2.032-.284,4.331,4.331,0,0,0,1.459-3.112,21.41,21.41,0,0,0,.035-3.192A4.879,4.879,0,0,1,9.7,93.273a1.8,1.8,0,0,1,.748-1.1,2.62,2.62,0,0,1,2.734.016,1.516,1.516,0,0,1,.679,1.2,1.145,1.145,0,0,1-.713,1.135,1.21,1.21,0,0,1-1.361-.275c-.319-.431.042-1,.358-1.368-.328.348-.751.894-.428,1.416a1.336,1.336,0,0,0,1.493.386,1.364,1.364,0,0,0,.909-1.3,1.824,1.824,0,0,0-.738-1.467,3.032,3.032,0,0,0-3.2-.171,2.3,2.3,0,0,0-.868.932c-.014-.055-.021-.113-.039-.167l-.016-.047-.011-.028A.67.67,0,0,0,8,92.93a1.161,1.161,0,0,1-.5,1.459c-.5.279-1.037.072-1.321-.6a1.805,1.805,0,0,1,.335-1.936,4.744,4.744,0,0,1,1.929-1.361,5.775,5.775,0,0,1,4.8.08,3.192,3.192,0,0,1,1.581,1.835,4.4,4.4,0,0,1,.01,2.523,4.493,4.493,0,0,0,.16-2.573,3.459,3.459,0,0,0-1.574-2.09A6.269,6.269,0,0,0,8.2,89.847a6.655,6.655,0,0,0-1.055.467,6.24,6.24,0,0,1-.111-2.633,1.705,1.705,0,0,1,.625-1.052,1.256,1.256,0,0,1,1.073-.181,1.348,1.348,0,0,1,.712,1.7c-.058.08-.089.08-.2.075a1.025,1.025,0,0,1-.3-.041.646.646,0,0,1,.111-.115.711.711,0,0,0,.133-.125.678.678,0,0,0-1.056-.85l-.024.028a1.934,1.934,0,0,0-.5.969.987.987,0,0,0,.246.829,1.2,1.2,0,0,0,.579.336,2.327,2.327,0,0,0,.944.047,1.206,1.206,0,0,0,.927-.656,2.154,2.154,0,0,0-1.241-2.783q-.084-.032-.17-.057a1.835,1.835,0,0,0-1.562.439,2.123,2.123,0,0,0-.638,1.386,6.425,6.425,0,0,0,.43,2.7A4.882,4.882,0,0,0,5.86,91.3a2.763,2.763,0,0,0-.634,2.865,2.291,2.291,0,0,0,1.044,1.271,2,2,0,0,0,1.75.01,2.162,2.162,0,0,0,.95-.821v.129a20.982,20.982,0,0,1-.215,3.059,3.418,3.418,0,0,1-1.2,2.362c-.386.25-.65.279-.9.141a1.155,1.155,0,0,1-.505-.851A1.829,1.829,0,0,1,7.3,97.611m1.481-9.5v.006c-.03-.022-.047-.04,0-.008Z" transform="translate(-4.926 -80.448)" fill="#fff"/><path d="M27.539,69.1c-.868.592-.434,1.736,0,1.263s1.117-1.835,2.01-1.42a2.553,2.553,0,0,0-2.01.156" transform="translate(-25.371 -64.768)" fill="#fff"/><path d="M100.624,110.882l-1.267-1.267c-.043,1.618,1.267,1.267,1.267,1.267" transform="translate(-92.238 -102.496)" fill="#fff"/><path d="M82.265,102.866c.643.408,1.55.277,1-.184a2.394,2.394,0,0,1-1.164-2.19,1.522,1.522,0,0,0,.163,2.375" transform="translate(-75.828 -94.059)" fill="#fff"/><path d="M15.429,26.612c-.15-.029-.511-.019-1.028.5-.689.691-.355,1.579.16.789a3.067,3.067,0,0,1,1.915-.962l-2.69-2.69a2.161,2.161,0,0,0,1.643,2.367" transform="translate(-13.103 -23.561)" fill="#fff"/><path d="M72.7,176.61a.712.712,0,0,0-.86-.518c-.177.044-.471-.207-.6-.642a2.2,2.2,0,0,1,.038-1.356,1.31,1.31,0,0,1,.966-.878,1.228,1.228,0,0,1,1.206.755,1.436,1.436,0,0,0-1.222-1.159,1.829,1.829,0,0,0-1.6.958,3.067,3.067,0,0,0-.407,1.863,2.374,2.374,0,0,0,.331,1.014,1.711,1.711,0,0,0,1.021.759l.261.065a.711.711,0,0,0,.858-.861Z" transform="translate(-65.29 -160.928)" fill="#fff"/><path d="M89.372,15.234a3.1,3.1,0,0,0-3.236,1.716l-.024.05,0,.007a.67.67,0,0,0,1.211.571,1.83,1.83,0,0,1,1.851-1.157,1.155,1.155,0,0,1,.85.505c.137.251.108.514-.141.9a3.414,3.414,0,0,1-2.362,1.2,20.71,20.71,0,0,1-3.059.215H84.33a2.154,2.154,0,0,0,.82-.95,1.989,1.989,0,0,0-.009-1.75A2.3,2.3,0,0,0,83.87,15.5a2.762,2.762,0,0,0-2.865.634,4.885,4.885,0,0,0-.981,1.277,6.421,6.421,0,0,0-2.7-.429,2.117,2.117,0,0,0-1.385.638,1.835,1.835,0,0,0-.44,1.562,2.154,2.154,0,0,0,2.669,1.469q.086-.025.17-.057A1.209,1.209,0,0,0,79,19.667a2.366,2.366,0,0,0-.047-.946,1.2,1.2,0,0,0-.337-.578.989.989,0,0,0-.828-.246,1.926,1.926,0,0,0-.969.5l-.031.025a.678.678,0,1,0,.978.922.682.682,0,0,1,.116-.111,1.063,1.063,0,0,1,.041.3c0,.109,0,.14-.075.2a1.348,1.348,0,0,1-1.7-.711,1.255,1.255,0,0,1,.183-1.073,1.7,1.7,0,0,1,1.052-.626,6.277,6.277,0,0,1,2.633.111,6.793,6.793,0,0,0-.468,1.055,6.272,6.272,0,0,0,.422,5.212,3.451,3.451,0,0,0,2.091,1.573,4.491,4.491,0,0,0,2.571-.16,4.417,4.417,0,0,1-2.522-.01,3.192,3.192,0,0,1-1.835-1.582,5.777,5.777,0,0,1-.08-4.8,4.765,4.765,0,0,1,1.362-1.929,1.8,1.8,0,0,1,1.936-.335c.67.289.878.822.6,1.321a1.163,1.163,0,0,1-1.459.5l-.03-.011a.67.67,0,1,0-.438,1.266l.046.015c.053.019.11.025.165.039a2.313,2.313,0,0,0-.93.87,3.032,3.032,0,0,0,.171,3.2,1.821,1.821,0,0,0,1.467.738,1.363,1.363,0,0,0,1.3-.908A1.337,1.337,0,0,0,84,21.991c-.524-.324-1.069.1-1.417.427.365-.319.938-.674,1.368-.358a1.212,1.212,0,0,1,.277,1.361,1.147,1.147,0,0,1-1.135.718,1.516,1.516,0,0,1-1.2-.678,2.62,2.62,0,0,1-.017-2.734,1.8,1.8,0,0,1,1.1-.748,4.881,4.881,0,0,1,1.468-.042A21.668,21.668,0,0,0,87.64,19.9a4.336,4.336,0,0,0,3.112-1.459,1.915,1.915,0,0,0,.284-2.031,2.3,2.3,0,0,0-1.664-1.179m-11.546,3.83-.006,0c-.031-.046-.013-.03.006,0Z" transform="translate(-70.156 -15.199)" fill="#fff"/><path d="M58.814,37.8a2.545,2.545,0,0,0-.16,2.01c-.414-.89.945-1.576,1.419-2.01s-.668-.868-1.259,0" transform="translate(-54.479 -35.627)" fill="#fff"/><path d="M99.359,109.594l1.266,1.266s.353-1.307-1.266-1.266" transform="translate(-92.241 -102.475)" fill="#fff"/><path d="M92.61,92.554a1.522,1.522,0,0,0-2.375-.16,2.394,2.394,0,0,1,2.19,1.163c.462.547.592-.36.185-1" transform="translate(-83.804 -86.115)" fill="#fff"/><path d="M17.641,24.778c.789-.512-.1-.848-.789-.16-.516.515-.525.878-.5,1.026A2.159,2.159,0,0,0,13.989,24l2.69,2.69a3.069,3.069,0,0,1,.962-1.913" transform="translate(-13.306 -23.32)" fill="#fff"/><path d="M165.845,82.095a.718.718,0,0,0,0,.343.71.71,0,0,0,1.378-.344l-.064-.257a1.7,1.7,0,0,0-.76-1.021,2.38,2.38,0,0,0-1.014-.332,3.066,3.066,0,0,0-1.862.408,1.825,1.825,0,0,0-.957,1.6,1.431,1.431,0,0,0,1.159,1.223,1.23,1.23,0,0,1-.756-1.207,1.309,1.309,0,0,1,.878-.965A2.2,2.2,0,0,1,165.2,81.5c.434.122.686.421.642.594" transform="translate(-150.682 -75.547)" fill="#fff"/><path d="M8.052,306.946a1.989,1.989,0,0,0-1.75.01,2.292,2.292,0,0,0-1.044,1.271,2.763,2.763,0,0,0,.634,2.865,4.882,4.882,0,0,0,1.277.979,6.426,6.426,0,0,0-.43,2.7,2.124,2.124,0,0,0,.638,1.386,1.835,1.835,0,0,0,1.562.439,2.154,2.154,0,0,0,1.469-2.669q-.025-.086-.057-.17a1.207,1.207,0,0,0-.927-.657,2.341,2.341,0,0,0-.944.048,1.2,1.2,0,0,0-.579.336.986.986,0,0,0-.246.829,1.926,1.926,0,0,0,.5.969l.024.029a.678.678,0,0,0,1.083-.817l-.026-.033a.717.717,0,0,0-.133-.125.643.643,0,0,1-.111-.115,1.022,1.022,0,0,1,.3-.041c.109,0,.14,0,.2.075a1.348,1.348,0,0,1-.712,1.7,1.259,1.259,0,0,1-1.073-.181,1.705,1.705,0,0,1-.625-1.052,6.241,6.241,0,0,1,.111-2.633,6.753,6.753,0,0,0,1.055.467,6.269,6.269,0,0,0,5.213-.422,3.459,3.459,0,0,0,1.574-2.09,4.494,4.494,0,0,0-.16-2.573,4.4,4.4,0,0,1-.01,2.523,3.192,3.192,0,0,1-1.581,1.835,5.772,5.772,0,0,1-4.8.08,4.743,4.743,0,0,1-1.929-1.361,1.807,1.807,0,0,1-.335-1.937c.288-.669.821-.878,1.321-.6a1.161,1.161,0,0,1,.5,1.459.67.67,0,0,0,1.244.5l.011-.029.016-.046c.018-.054.025-.111.039-.167a2.3,2.3,0,0,0,.868.931,3.032,3.032,0,0,0,3.2-.169,1.824,1.824,0,0,0,.738-1.467,1.365,1.365,0,0,0-.909-1.3,1.337,1.337,0,0,0-1.493.387c-.319.523.1,1.068.428,1.416-.319-.365-.674-.938-.357-1.368a1.211,1.211,0,0,1,1.361-.277,1.147,1.147,0,0,1,.713,1.135,1.516,1.516,0,0,1-.679,1.2,2.621,2.621,0,0,1-2.734.016,1.8,1.8,0,0,1-.748-1.1,4.871,4.871,0,0,1-.042-1.467,21.413,21.413,0,0,0-.035-3.192,4.332,4.332,0,0,0-1.459-3.112,1.915,1.915,0,0,0-2.032-.283,2.3,2.3,0,0,0-1.174,1.661,3.1,3.1,0,0,0,1.717,3.236l.045.023a.669.669,0,1,0,.594-1.2l-.011-.006a1.827,1.827,0,0,1-1.157-1.851,1.155,1.155,0,0,1,.505-.85c.25-.137.514-.109.9.141a3.415,3.415,0,0,1,1.2,2.362A20.972,20.972,0,0,1,9,307.641v.129a2.155,2.155,0,0,0-.951-.824m.764,7.324v.006c-.049.032-.033.014,0-.006" transform="translate(-4.955 -279.354)" fill="#fff"/><path d="M27.539,504.509c-.434-.473-.868.67,0,1.262a2.548,2.548,0,0,0,2.01.16c-.893.409-1.578-.95-2.01-1.422" transform="translate(-25.371 -467.519)" fill="#fff"/><path d="M99.317,469.775l1.27-1.264s-1.31-.356-1.27,1.264" transform="translate(-92.201 -434.307)" fill="#fff"/><path d="M82.286,460.3a1.522,1.522,0,0,0-.16,2.374,2.394,2.394,0,0,1,1.164-2.19c.546-.461-.36-.592-1-.184" transform="translate(-75.849 -426.521)" fill="#fff"/><path d="M14.531,518.8c-.513-.789-.848.1-.16.79.516.516.878.524,1.028.5a2.161,2.161,0,0,0-1.645,2.367l2.69-2.691a3.06,3.06,0,0,1-1.913-.962" transform="translate(-13.074 -480.549)" fill="#fff"/><path d="M71.808,361.8a.71.71,0,1,0,0-1.38l-.261.065a1.7,1.7,0,0,0-1.021.759,2.369,2.369,0,0,0-.331,1.014,3.065,3.065,0,0,0,.407,1.862,1.83,1.83,0,0,0,1.6.958,1.436,1.436,0,0,0,1.222-1.161,1.227,1.227,0,0,1-1.206.756,1.31,1.31,0,0,1-.965-.878,2.2,2.2,0,0,1-.038-1.356c.127-.432.42-.683.6-.639" transform="translate(-65.261 -334.377)" fill="#fff"/><path d="M87.639,450.514a21.671,21.671,0,0,0-3.192-.035,4.876,4.876,0,0,1-1.468-.042,1.806,1.806,0,0,1-1.1-.748,2.619,2.619,0,0,1,.017-2.734,1.516,1.516,0,0,1,1.2-.679,1.146,1.146,0,0,1,1.135.713,1.214,1.214,0,0,1-.277,1.362c-.43.319-1-.041-1.368-.359.348.328.895.751,1.417.428a1.337,1.337,0,0,0,.386-1.493,1.361,1.361,0,0,0-1.3-.908,1.819,1.819,0,0,0-1.467.738,3.033,3.033,0,0,0-.171,3.2,2.3,2.3,0,0,0,.931.868c-.055.014-.112.021-.165.039l-.045.016a.67.67,0,0,0,.438,1.266l.03-.011a1.163,1.163,0,0,1,1.459.5c.279.5.072,1.037-.6,1.321a1.8,1.8,0,0,1-1.936-.335,4.755,4.755,0,0,1-1.362-1.929,5.777,5.777,0,0,1,.08-4.8,3.192,3.192,0,0,1,1.835-1.582,4.408,4.408,0,0,1,2.522-.01,4.491,4.491,0,0,0-2.571-.16,3.459,3.459,0,0,0-2.091,1.574,6.273,6.273,0,0,0-.422,5.213,6.75,6.75,0,0,0,.468,1.055,6.261,6.261,0,0,1-2.633.112,1.7,1.7,0,0,1-1.052-.626,1.255,1.255,0,0,1-.183-1.073,1.35,1.35,0,0,1,1.7-.712c.08.058.08.089.075.2a1.069,1.069,0,0,1-.041.3.687.687,0,0,1-.116-.113.678.678,0,0,0-1.1.791.639.639,0,0,0,.124.13l.031.026a1.925,1.925,0,0,0,.969.5.989.989,0,0,0,.828-.247,1.2,1.2,0,0,0,.337-.578,2.361,2.361,0,0,0,.047-.944,1.209,1.209,0,0,0-.657-.927,2.154,2.154,0,0,0-2.783,1.241q-.032.084-.057.171a1.835,1.835,0,0,0,.44,1.561,2.122,2.122,0,0,0,1.385.638,6.424,6.424,0,0,0,2.7-.429,4.915,4.915,0,0,0,.981,1.277,2.762,2.762,0,0,0,2.865.633,2.291,2.291,0,0,0,1.271-1.045,1.988,1.988,0,0,0,.009-1.75,2.16,2.16,0,0,0-.82-.95h.128a20.7,20.7,0,0,1,3.059.215,3.414,3.414,0,0,1,2.362,1.2c.25.386.278.65.141.9a1.148,1.148,0,0,1-.85.505,1.827,1.827,0,0,1-1.851-1.157.67.67,0,0,0-1.211.571l0,.008.024.048a3.1,3.1,0,0,0,3.236,1.717A2.3,2.3,0,0,0,91.032,454a1.915,1.915,0,0,0-.284-2.031,4.337,4.337,0,0,0-3.109-1.458m-9.815.839h.006c-.024.03-.042.045-.01,0Z" transform="translate(-70.156 -412.625)" fill="#fff"/><path d="M58.7,524.7a2.545,2.545,0,0,0,.16,2.01c.591.868,1.736.434,1.262,0s-1.832-1.122-1.422-2.01" transform="translate(-54.519 -486.294)" fill="#fff"/><path d="M100.657,468.885l-1.266,1.267c1.617.041,1.266-1.267,1.266-1.267" transform="translate(-92.27 -434.684)" fill="#fff"/><path d="M92.61,480.349c.407-.642.277-1.55-.185-1a2.394,2.394,0,0,1-2.19,1.163,1.522,1.522,0,0,0,2.375-.162" transform="translate(-83.804 -444.201)" fill="#fff"/><path d="M17.641,537.3a3.069,3.069,0,0,1-.962-1.915l-2.69,2.69a2.159,2.159,0,0,0,2.366-1.644c-.028.149-.019.51.5,1.026.69.691,1.578.355.789-.157" transform="translate(-13.306 -496.169)" fill="#fff"/><path d="M163.868,474.01a1.311,1.311,0,0,1-.878-.964,1.23,1.23,0,0,1,.756-1.207,1.431,1.431,0,0,0-1.159,1.222,1.826,1.826,0,0,0,.957,1.6,3.058,3.058,0,0,0,1.862.407,2.367,2.367,0,0,0,1.014-.331,1.708,1.708,0,0,0,.76-1.021l.064-.258a.71.71,0,0,0-1.378-.343.719.719,0,0,0,0,.343c.044.176-.207.471-.642.594a2.2,2.2,0,0,1-1.356-.038" transform="translate(-150.702 -437.415)" fill="#fff"/><path d="M1169.789,95.372a2,2,0,0,0,1.75-.01,2.287,2.287,0,0,0,1.045-1.271,2.763,2.763,0,0,0-.633-2.865,4.924,4.924,0,0,0-1.277-.979,6.428,6.428,0,0,0,.429-2.7,2.122,2.122,0,0,0-.638-1.386,1.835,1.835,0,0,0-1.562-.439,2.154,2.154,0,0,0-1.469,2.669q.025.086.057.17a1.207,1.207,0,0,0,.927.656,2.325,2.325,0,0,0,.944-.047,1.2,1.2,0,0,0,.578-.336.989.989,0,0,0,.246-.829,1.933,1.933,0,0,0-.5-.969l-.023-.028a.678.678,0,1,0-.924.975.688.688,0,0,1,.112.115,1.032,1.032,0,0,1-.3.042c-.109,0-.14,0-.2-.075a1.349,1.349,0,0,1,.712-1.7,1.255,1.255,0,0,1,1.073.181,1.707,1.707,0,0,1,.626,1.052,6.261,6.261,0,0,1-.113,2.633,6.639,6.639,0,0,0-1.055-.467,6.267,6.267,0,0,0-5.211.422,3.455,3.455,0,0,0-1.575,2.09,4.5,4.5,0,0,0,.16,2.573,4.411,4.411,0,0,1,.01-2.523,3.192,3.192,0,0,1,1.582-1.835,5.773,5.773,0,0,1,4.8-.08,4.745,4.745,0,0,1,1.929,1.361,1.8,1.8,0,0,1,.335,1.936c-.287.67-.821.878-1.321.6a1.161,1.161,0,0,1-.5-1.459.67.67,0,1,0-1.244-.5l-.01.028-.017.047c-.018.054-.025.111-.039.165a2.307,2.307,0,0,0-.868-.931,3.032,3.032,0,0,0-3.2.171,1.821,1.821,0,0,0-.738,1.467,1.361,1.361,0,0,0,.908,1.3,1.335,1.335,0,0,0,1.492-.386c.319-.523-.1-1.068-.428-1.416.319.364.676.936.359,1.368a1.211,1.211,0,0,1-1.362.275,1.145,1.145,0,0,1-.713-1.135,1.522,1.522,0,0,1,.678-1.2,2.62,2.62,0,0,1,2.734-.016,1.806,1.806,0,0,1,.748,1.1,4.879,4.879,0,0,1,.042,1.468,21.7,21.7,0,0,0,.035,3.192,4.336,4.336,0,0,0,1.459,3.112,1.915,1.915,0,0,0,2.031.284,2.3,2.3,0,0,0,1.174-1.661,3.1,3.1,0,0,0-1.717-3.236l-.046-.022a.669.669,0,0,0-.592,1.2l.01,0a1.827,1.827,0,0,1,1.157,1.851,1.148,1.148,0,0,1-.505.851c-.25.137-.514.109-.9-.141a3.416,3.416,0,0,1-1.2-2.362,20.73,20.73,0,0,1-.216-3.059v-.129a2.169,2.169,0,0,0,.95.824m-.764-7.323v-.006c.049-.029.033-.011,0,.009Z" transform="translate(-1075.429 -80.379)" fill="#fff"/><path d="M1244.4,70.344c.434.473.868-.67,0-1.263a2.554,2.554,0,0,0-2.01-.16c.89-.41,1.576.95,2.01,1.423" transform="translate(-1149.104 -64.744)" fill="#fff"/><path d="M1187.835,109.616l-1.267,1.267s1.306.351,1.267-1.267" transform="translate(-1097.495 -102.497)" fill="#fff"/><path d="M1197.987,102.866a1.521,1.521,0,0,0,.16-2.375,2.394,2.394,0,0,1-1.164,2.19c-.543.461.366.592,1,.184" transform="translate(-1106.971 -94.059)" fill="#fff"/><path d="M1255.011,27.9c.512.79.848-.1.16-.789-.515-.515-.878-.525-1.026-.5a2.161,2.161,0,0,0,1.644-2.367l-2.69,2.69a3.069,3.069,0,0,1,1.913.962" transform="translate(-1159.01 -23.56)" fill="#fff"/><path d="M1192.328,173.779a1.827,1.827,0,0,0-1.6-.958,1.436,1.436,0,0,0-1.222,1.159,1.229,1.229,0,0,1,1.207-.755,1.311,1.311,0,0,1,.964.878,2.2,2.2,0,0,1,.038,1.356c-.123.435-.418.687-.594.642a.71.71,0,1,0,0,1.38l.261-.065a1.71,1.71,0,0,0,1.021-.759,2.375,2.375,0,0,0,.331-1.014,3.063,3.063,0,0,0-.41-1.865" transform="translate(-1100.216 -160.937)" fill="#fff"/><path d="M1022.127,19.869a21.676,21.676,0,0,0,3.192.035,4.875,4.875,0,0,1,1.467.042,1.8,1.8,0,0,1,1.1.748,2.622,2.622,0,0,1-.016,2.734,1.522,1.522,0,0,1-1.2.678,1.148,1.148,0,0,1-1.135-.718,1.212,1.212,0,0,1,.277-1.361c.43-.319,1,.041,1.368.357-.348-.328-.895-.751-1.416-.427a1.336,1.336,0,0,0-.387,1.493,1.363,1.363,0,0,0,1.3.908,1.824,1.824,0,0,0,1.467-.738,3.033,3.033,0,0,0,.169-3.2,2.308,2.308,0,0,0-.931-.868c.055-.014.113-.02.167-.039l.044-.015a.67.67,0,0,0-.437-1.266l-.031.011a1.162,1.162,0,0,1-1.459-.5c-.28-.5-.072-1.033.6-1.321a1.807,1.807,0,0,1,1.937.335,4.753,4.753,0,0,1,1.361,1.929,5.77,5.77,0,0,1-.08,4.8,3.191,3.191,0,0,1-1.835,1.581,4.42,4.42,0,0,1-2.523.01,4.5,4.5,0,0,0,2.573.16,3.451,3.451,0,0,0,2.09-1.574,6.268,6.268,0,0,0,.422-5.212,6.62,6.62,0,0,0-.468-1.055,6.277,6.277,0,0,1,2.633-.111,1.7,1.7,0,0,1,1.052.626,1.258,1.258,0,0,1,.181,1.073,1.348,1.348,0,0,1-1.7.711c-.08-.057-.08-.089-.075-.2a1.025,1.025,0,0,1,.042-.3.727.727,0,0,1,.115.111.678.678,0,1,0,1.1-.79.7.7,0,0,0-.123-.132l-.032-.025a1.926,1.926,0,0,0-.969-.5.989.989,0,0,0-.829.246,1.194,1.194,0,0,0-.336.579,2.343,2.343,0,0,0-.048.946,1.209,1.209,0,0,0,.657.927,2.154,2.154,0,0,0,2.782-1.241q.032-.084.057-.17a1.835,1.835,0,0,0-.439-1.562,2.119,2.119,0,0,0-1.386-.638,6.423,6.423,0,0,0-2.7.429,4.9,4.9,0,0,0-.979-1.277,2.762,2.762,0,0,0-2.865-.634,2.293,2.293,0,0,0-1.271,1.045,2,2,0,0,0-.01,1.75,2.156,2.156,0,0,0,.821.949h-.129a20.709,20.709,0,0,1-3.058-.215,3.417,3.417,0,0,1-2.362-1.2c-.25-.386-.278-.649-.141-.9a1.155,1.155,0,0,1,.85-.505,1.829,1.829,0,0,1,1.851,1.157.67.67,0,0,0,1.211-.571l0-.007-.024-.049a3.1,3.1,0,0,0-3.236-1.716,2.3,2.3,0,0,0-1.661,1.174,1.915,1.915,0,0,0,.284,2.031,4.336,4.336,0,0,0,3.11,1.463m9.815-.84-.006,0c.023-.033.042-.05.006,0" transform="translate(-942.153 -15.17)" fill="#fff"/><path d="M1223.564,39.806a2.548,2.548,0,0,0-.16-2.01c-.591-.868-1.735-.434-1.263,0s1.835,1.12,1.422,2.01" transform="translate(-1130.284 -35.627)" fill="#fff"/><path d="M1186.149,110.86l1.267-1.266c-1.62-.041-1.267,1.266-1.267,1.266" transform="translate(-1097.077 -102.475)" fill="#fff"/><path d="M1177.98,92.545c-.408.644-.278,1.55.184,1a2.394,2.394,0,0,1,2.19-1.163,1.521,1.521,0,0,0-2.374.161" transform="translate(-1089.328 -86.106)" fill="#fff"/><path d="M1236.482,24.807a3.07,3.07,0,0,1,.962,1.915l2.691-2.69a2.161,2.161,0,0,0-2.367,1.644c.028-.149.019-.511-.5-1.026-.69-.691-1.578-.355-.789.157" transform="translate(-1143.36 -23.349)" fill="#fff"/><path d="M1081.471,81.528a1.31,1.31,0,0,1,.878.965,1.229,1.229,0,0,1-.756,1.207,1.436,1.436,0,0,0,1.161-1.223,1.828,1.828,0,0,0-.957-1.6,3.066,3.066,0,0,0-1.863-.408,2.386,2.386,0,0,0-1.014.332,1.7,1.7,0,0,0-.759,1.021l-.064.257a.71.71,0,1,0,1.377,0c-.043-.176.208-.471.644-.594a2.195,2.195,0,0,1,1.352.04" transform="translate(-997.181 -75.536)" fill="#fff"/><path d="M1170.54,304.753l-.01.006a.669.669,0,0,0,.592,1.2l.045-.023a3.1,3.1,0,0,0,1.717-3.236,2.3,2.3,0,0,0-1.174-1.661,1.914,1.914,0,0,0-2.031.283,4.336,4.336,0,0,0-1.46,3.112,21.7,21.7,0,0,0-.035,3.192,4.865,4.865,0,0,1-.042,1.467,1.8,1.8,0,0,1-.748,1.1,2.621,2.621,0,0,1-2.734-.016,1.522,1.522,0,0,1-.678-1.2,1.147,1.147,0,0,1,.713-1.135,1.214,1.214,0,0,1,1.362.277c.319.43-.042,1-.359,1.368.329-.348.751-.894.428-1.416a1.337,1.337,0,0,0-1.492-.387,1.362,1.362,0,0,0-.908,1.3,1.821,1.821,0,0,0,.738,1.467,3.032,3.032,0,0,0,3.2.169,2.293,2.293,0,0,0,.868-.931c.014.055.021.112.039.167l.017.046.01.029a.67.67,0,0,0,1.244-.5,1.161,1.161,0,0,1,.5-1.459c.5-.28,1.037-.073,1.321.6a1.8,1.8,0,0,1-.335,1.937,4.743,4.743,0,0,1-1.929,1.361,5.77,5.77,0,0,1-4.8-.08,3.186,3.186,0,0,1-1.581-1.835,4.41,4.41,0,0,1-.01-2.523,4.5,4.5,0,0,0-.16,2.573,3.458,3.458,0,0,0,1.575,2.09,6.268,6.268,0,0,0,5.211.422,6.738,6.738,0,0,0,1.055-.467,6.259,6.259,0,0,1,.113,2.633,1.708,1.708,0,0,1-.626,1.052,1.259,1.259,0,0,1-1.073.181,1.348,1.348,0,0,1-.712-1.7c.058-.08.089-.08.2-.075a1.031,1.031,0,0,1,.3.041.685.685,0,0,1-.113.115.678.678,0,1,0,.924.975l.023-.029a1.925,1.925,0,0,0,.5-.969.99.99,0,0,0-.247-.829,1.2,1.2,0,0,0-.578-.336,2.341,2.341,0,0,0-.944-.048,1.209,1.209,0,0,0-.927.657,2.155,2.155,0,0,0,1.241,2.783q.084.032.171.057a1.835,1.835,0,0,0,1.561-.439,2.123,2.123,0,0,0,.638-1.386,6.419,6.419,0,0,0-.429-2.7,4.913,4.913,0,0,0,1.277-.979,2.763,2.763,0,0,0,.633-2.865,2.288,2.288,0,0,0-1.045-1.271,1.988,1.988,0,0,0-1.75-.01,2.161,2.161,0,0,0-.95.821v-.129a20.73,20.73,0,0,1,.215-3.059,3.414,3.414,0,0,1,1.2-2.362c.386-.25.65-.279.9-.141a1.148,1.148,0,0,1,.5.85,1.826,1.826,0,0,1-1.157,1.854m-1.48,9.5v-.006c.029.022.045.041,0,.009Z" transform="translate(-1075.46 -279.328)" fill="#fff"/><path d="M1244.4,505.74c.868-.591.434-1.735,0-1.262s-1.117,1.835-2.01,1.419a2.548,2.548,0,0,0,2.01-.157" transform="translate(-1149.104 -467.49)" fill="#fff"/><path d="M1186.568,468.512l1.267,1.267c.039-1.623-1.267-1.267-1.267-1.267" transform="translate(-1097.495 -434.308)" fill="#fff"/><path d="M1198.223,462.672a1.521,1.521,0,0,0-.16-2.374c-.643-.408-1.55-.278-1,.184a2.394,2.394,0,0,1,1.161,2.19" transform="translate(-1107.042 -426.518)" fill="#fff"/><path d="M1254.082,520.085c.149.028.511.019,1.026-.5.691-.691.355-1.579-.16-.79a3.064,3.064,0,0,1-1.915.962l2.69,2.691a2.161,2.161,0,0,0-1.642-2.367" transform="translate(-1158.949 -480.549)" fill="#fff"/><path d="M1190.749,364.661a1.228,1.228,0,0,1-1.207-.756,1.437,1.437,0,0,0,1.222,1.161,1.828,1.828,0,0,0,1.6-.957,3.059,3.059,0,0,0,.407-1.862,2.367,2.367,0,0,0-.331-1.014,1.7,1.7,0,0,0-1.021-.759l-.261-.065a.71.71,0,1,0,0,1.38c.176-.044.472.207.594.642a2.2,2.2,0,0,1-.038,1.356,1.311,1.311,0,0,1-.961.875" transform="translate(-1100.245 -334.364)" fill="#fff"/><path d="M1034.263,451.238a2.155,2.155,0,0,0-2.669-1.469q-.086.025-.17.057a1.209,1.209,0,0,0-.657.927,2.338,2.338,0,0,0,.048.944,1.189,1.189,0,0,0,.336.578.99.99,0,0,0,.829.247,1.925,1.925,0,0,0,.969-.5l.032-.026a.677.677,0,1,0-.979-.921.674.674,0,0,1-.115.112,1.034,1.034,0,0,1-.042-.3c0-.109,0-.14.075-.2a1.349,1.349,0,0,1,1.7.712,1.258,1.258,0,0,1-.181,1.073,1.707,1.707,0,0,1-1.052.626,6.261,6.261,0,0,1-2.633-.112,6.547,6.547,0,0,0,.468-1.055,6.269,6.269,0,0,0-.422-5.213,3.459,3.459,0,0,0-2.09-1.574,4.5,4.5,0,0,0-2.573.16,4.412,4.412,0,0,1,2.523.01,3.188,3.188,0,0,1,1.835,1.581,5.77,5.77,0,0,1,.08,4.8,4.744,4.744,0,0,1-1.361,1.929,1.807,1.807,0,0,1-1.937.335c-.669-.288-.878-.821-.6-1.321a1.162,1.162,0,0,1,1.459-.5l.031.011a.67.67,0,1,0,.437-1.266l-.044-.016c-.054-.018-.111-.025-.167-.039a2.3,2.3,0,0,0,.931-.868,3.032,3.032,0,0,0-.169-3.2,1.821,1.821,0,0,0-1.467-.738,1.363,1.363,0,0,0-1.3.908,1.337,1.337,0,0,0,.387,1.493c.522.319,1.068-.1,1.416-.428-.365.319-.938.676-1.368.359a1.213,1.213,0,0,1-.277-1.362,1.147,1.147,0,0,1,1.135-.713,1.523,1.523,0,0,1,1.2.679,2.622,2.622,0,0,1,.016,2.734,1.8,1.8,0,0,1-1.1.748,4.87,4.87,0,0,1-1.467.042,21.694,21.694,0,0,0-3.192.035,4.336,4.336,0,0,0-3.112,1.459,1.915,1.915,0,0,0-.284,2.031,2.294,2.294,0,0,0,1.661,1.174,3.1,3.1,0,0,0,3.236-1.717l.024-.048,0-.008a.67.67,0,1,0-1.211-.571A1.826,1.826,0,0,1,1020.6,454a1.148,1.148,0,0,1-.85-.505c-.137-.25-.109-.514.141-.9a3.415,3.415,0,0,1,2.362-1.2,20.7,20.7,0,0,1,3.058-.215h.129a2.162,2.162,0,0,0-.821.95,1.994,1.994,0,0,0,.01,1.75,2.287,2.287,0,0,0,1.271,1.044,2.763,2.763,0,0,0,2.865-.633,4.936,4.936,0,0,0,.979-1.277,6.423,6.423,0,0,0,2.7.429,2.124,2.124,0,0,0,1.386-.638,1.835,1.835,0,0,0,.44-1.563m-2.323.12h.005c.033.049.014.033,0,0Z" transform="translate(-942.154 -412.634)" fill="#fff"/><path d="M1223.45,526.713a2.547,2.547,0,0,0,.16-2.01c.413.891-.947,1.576-1.419,2.01s.669.867,1.26,0" transform="translate(-1130.328 -486.294)" fill="#fff"/><path d="M1187.416,470.152l-1.267-1.267s-.353,1.308,1.267,1.267" transform="translate(-1097.077 -434.684)" fill="#fff"/><path d="M1177.983,480.335a1.521,1.521,0,0,0,2.116.385,1.5,1.5,0,0,0,.258-.225,2.394,2.394,0,0,1-2.189-1.163c-.461-.546-.592.361-.184,1" transform="translate(-1089.331 -444.187)" fill="#fff"/><path d="M1237.444,535.393a3.07,3.07,0,0,1-.962,1.915c-.789.512.1.848.789.16.516-.516.525-.878.5-1.026a2.161,2.161,0,0,0,2.367,1.644Z" transform="translate(-1143.36 -496.178)" fill="#fff"/><path d="M1079.486,473.454a.709.709,0,1,0-1.377,0l.064.258a1.7,1.7,0,0,0,.759,1.021,2.368,2.368,0,0,0,1.014.331,3.057,3.057,0,0,0,1.862-.407,1.828,1.828,0,0,0,.958-1.6,1.436,1.436,0,0,0-1.161-1.222,1.229,1.229,0,0,1,.756,1.207,1.311,1.311,0,0,1-.878.964,2.2,2.2,0,0,1-1.357.038c-.432-.124-.686-.418-.64-.594" transform="translate(-997.192 -437.415)" fill="#fff"/></g></g></g></g></svg>