<svg xmlns="http://www.w3.org/2000/svg" xmlns:xlink="http://www.w3.org/1999/xlink" width="81.257" height="37.131" viewBox="0 0 81.257 37.131"><defs><clipPath id="a"><rect width="81.257" height="37.131" rx="7" fill="none"/></clipPath><clipPath id="b"><rect width="81.257" height="37.131" fill="none"/></clipPath><clipPath id="c"><rect width="80.642" height="35.238" fill="none"/></clipPath></defs><g transform="translate(-946.445 -583.111)"><g transform="translate(946.445 583.111)" clip-path="url(#a)"><path d="M0,0H81.257V37.131H0Z" fill="#aa9000"/><g clip-path="url(#b)"><g transform="translate(0.307 0.946)" opacity="0.3"><g clip-path="url(#c)"><path d="M6.893,95.568l.009,0a.554.554,0,1,0-.491-.99l-.038.018A2.569,2.569,0,0,0,4.952,97.27a1.9,1.9,0,0,0,.971,1.375A1.585,1.585,0,0,0,7.6,98.41a3.584,3.584,0,0,0,1.207-2.575,17.717,17.717,0,0,0,.029-2.641,4.037,4.037,0,0,1,.035-1.215,1.493,1.493,0,0,1,.619-.912,2.168,2.168,0,0,1,2.262.013,1.255,1.255,0,0,1,.562.99.948.948,0,0,1-.59.939,1,1,0,0,1-1.126-.228c-.264-.357.034-.831.3-1.132-.271.288-.621.74-.354,1.172a1.105,1.105,0,0,0,1.235.32,1.128,1.128,0,0,0,.752-1.076,1.509,1.509,0,0,0-.611-1.214,2.509,2.509,0,0,0-2.652-.141,1.905,1.905,0,0,0-.718.771c-.012-.046-.017-.093-.032-.138L8.5,91.3,8.5,91.281a.555.555,0,0,0-1.029.413A.961.961,0,0,1,7.055,92.9c-.414.231-.858.059-1.093-.5a1.494,1.494,0,0,1,.277-1.6,3.925,3.925,0,0,1,1.6-1.126,4.779,4.779,0,0,1,3.97.066,2.641,2.641,0,0,1,1.308,1.519,3.642,3.642,0,0,1,.009,2.088,3.718,3.718,0,0,0,.132-2.129,2.862,2.862,0,0,0-1.3-1.729,5.188,5.188,0,0,0-4.314-.349,5.508,5.508,0,0,0-.873.386,5.163,5.163,0,0,1-.092-2.179,1.411,1.411,0,0,1,.517-.871,1.04,1.04,0,0,1,.888-.15,1.115,1.115,0,0,1,.589,1.4c-.048.066-.074.066-.163.062a.848.848,0,0,1-.245-.034.535.535,0,0,1,.092-.1.588.588,0,0,0,.11-.1.561.561,0,0,0-.874-.7l-.02.023a1.6,1.6,0,0,0-.41.8.816.816,0,0,0,.2.686.991.991,0,0,0,.479.278,1.925,1.925,0,0,0,.781.039,1,1,0,0,0,.767-.543,1.783,1.783,0,0,0-1.027-2.3q-.07-.027-.141-.047a1.519,1.519,0,0,0-1.292.363A1.756,1.756,0,0,0,6.4,87.305a5.317,5.317,0,0,0,.356,2.23,4.04,4.04,0,0,0-1.056.81,2.286,2.286,0,0,0-.524,2.37,1.9,1.9,0,0,0,.864,1.052,1.651,1.651,0,0,0,1.448.009,1.789,1.789,0,0,0,.786-.679V93.2a17.362,17.362,0,0,1-.178,2.531,2.828,2.828,0,0,1-1,1.954c-.32.207-.538.23-.745.117a.955.955,0,0,1-.418-.7,1.513,1.513,0,0,1,.958-1.534m1.225-7.857v.005c-.025-.019-.039-.033,0-.007Z" transform="translate(-4.926 -81.366)" fill="#fff"/><path d="M27.453,69.053c-.718.49-.359,1.437,0,1.045s.924-1.519,1.663-1.175a2.113,2.113,0,0,0-1.663.129" transform="translate(-25.659 -65.465)" fill="#fff"/><path d="M100.406,110.664l-1.049-1.049c-.036,1.339,1.049,1.049,1.049,1.049" transform="translate(-93.466 -103.724)" fill="#fff"/><path d="M82.152,102.456c.532.337,1.282.229.829-.153a1.981,1.981,0,0,1-.963-1.812,1.26,1.26,0,0,0,.135,1.965" transform="translate(-76.826 -95.169)" fill="#fff"/><path d="M15.143,26.2c-.124-.024-.423-.016-.85.411-.57.572-.294,1.307.132.653a2.538,2.538,0,0,1,1.585-.8l-2.226-2.226A1.788,1.788,0,0,0,15.143,26.2" transform="translate(-13.218 -23.679)" fill="#fff"/><path d="M72.269,175.955a.589.589,0,0,0-.712-.429c-.147.036-.39-.172-.493-.532a1.822,1.822,0,0,1,.032-1.122,1.084,1.084,0,0,1,.8-.726,1.016,1.016,0,0,1,1,.625,1.189,1.189,0,0,0-1.011-.959,1.513,1.513,0,0,0-1.321.792,2.538,2.538,0,0,0-.337,1.542,1.965,1.965,0,0,0,.274.839,1.416,1.416,0,0,0,.844.628l.216.054a.588.588,0,0,0,.71-.712Z" transform="translate(-66.139 -162.978)" fill="#fff"/><path d="M86.974,15.228a2.568,2.568,0,0,0-2.678,1.42l-.02.041,0,.006a.554.554,0,1,0,1,.473,1.514,1.514,0,0,1,1.532-.957.956.956,0,0,1,.7.418c.114.207.09.425-.117.745a2.825,2.825,0,0,1-1.954,1,17.137,17.137,0,0,1-2.531.178H82.8a1.783,1.783,0,0,0,.679-.786,1.645,1.645,0,0,0-.007-1.448,1.9,1.9,0,0,0-1.052-.865,2.285,2.285,0,0,0-2.37.524,4.042,4.042,0,0,0-.811,1.056,5.313,5.313,0,0,0-2.23-.355,1.752,1.752,0,0,0-1.146.528A1.519,1.519,0,0,0,75.5,18.5a1.783,1.783,0,0,0,2.209,1.215q.072-.021.141-.047a1,1,0,0,0,.543-.767,1.958,1.958,0,0,0-.039-.782,1,1,0,0,0-.279-.479.818.818,0,0,0-.685-.2,1.593,1.593,0,0,0-.8.411l-.026.02a.561.561,0,1,0,.81.763.564.564,0,0,1,.1-.092.879.879,0,0,1,.034.245c0,.09,0,.116-.062.163a1.116,1.116,0,0,1-1.4-.588,1.039,1.039,0,0,1,.151-.888,1.406,1.406,0,0,1,.87-.518,5.194,5.194,0,0,1,2.179.092,5.619,5.619,0,0,0-.388.873,5.19,5.19,0,0,0,.349,4.313,2.856,2.856,0,0,0,1.731,1.3,3.716,3.716,0,0,0,2.127-.132,3.655,3.655,0,0,1-2.087-.009,2.641,2.641,0,0,1-1.519-1.309,4.78,4.78,0,0,1-.066-3.969,3.943,3.943,0,0,1,1.127-1.6,1.494,1.494,0,0,1,1.6-.277c.555.239.726.68.5,1.093a.963.963,0,0,1-1.208.411l-.025-.009a.554.554,0,1,0-.363,1.048l.038.013c.044.016.091.02.137.032a1.914,1.914,0,0,0-.769.72,2.509,2.509,0,0,0,.141,2.652,1.507,1.507,0,0,0,1.214.611,1.128,1.128,0,0,0,1.076-.751,1.106,1.106,0,0,0-.32-1.235c-.433-.268-.885.082-1.173.353.3-.264.776-.558,1.132-.3A1,1,0,0,1,82.716,22a.949.949,0,0,1-.939.594,1.255,1.255,0,0,1-.99-.561,2.168,2.168,0,0,1-.014-2.262,1.493,1.493,0,0,1,.912-.619A4.039,4.039,0,0,1,82.9,19.12a17.929,17.929,0,0,0,2.641-.029,3.588,3.588,0,0,0,2.575-1.208,1.585,1.585,0,0,0,.235-1.68,1.9,1.9,0,0,0-1.377-.975M77.42,18.4l-.005,0c-.026-.038-.011-.025.005,0Z" transform="translate(-71.073 -15.2)" fill="#fff"/><path d="M58.763,37.709a2.106,2.106,0,0,0-.132,1.663c-.343-.737.782-1.3,1.174-1.663s-.553-.718-1.042,0" transform="translate(-55.176 -35.914)" fill="#fff"/><path d="M99.359,109.593l1.048,1.048s.292-1.082-1.048-1.048" transform="translate(-93.469 -103.703)" fill="#fff"/><path d="M92.2,92.441a1.26,1.26,0,0,0-1.965-.132,1.981,1.981,0,0,1,1.812.963c.382.452.49-.3.153-.831" transform="translate(-84.914 -87.113)" fill="#fff"/><path d="M17.011,24.641c.653-.424-.081-.7-.653-.132-.427.427-.434.726-.411.849A1.787,1.787,0,0,0,13.989,24l2.226,2.226a2.539,2.539,0,0,1,.8-1.583" transform="translate(-13.424 -23.434)" fill="#fff"/><path d="M165.279,81.814a.594.594,0,0,0,0,.284.588.588,0,0,0,1.14-.285l-.053-.213a1.411,1.411,0,0,0-.629-.845,1.969,1.969,0,0,0-.839-.275,2.537,2.537,0,0,0-1.541.337,1.51,1.51,0,0,0-.792,1.321,1.184,1.184,0,0,0,.959,1.012,1.018,1.018,0,0,1-.625-1,1.083,1.083,0,0,1,.726-.8,1.819,1.819,0,0,1,1.122-.032c.359.1.568.348.531.491" transform="translate(-152.732 -76.396)" fill="#fff"/><path d="M7.518,305.9a1.645,1.645,0,0,0-1.448.009,1.9,1.9,0,0,0-.864,1.052,2.286,2.286,0,0,0,.524,2.37,4.04,4.04,0,0,0,1.056.81,5.317,5.317,0,0,0-.356,2.23,1.758,1.758,0,0,0,.528,1.147,1.518,1.518,0,0,0,1.292.363,1.783,1.783,0,0,0,1.215-2.209q-.021-.071-.047-.141a1,1,0,0,0-.767-.543,1.937,1.937,0,0,0-.781.04.99.99,0,0,0-.479.278.816.816,0,0,0-.2.686,1.593,1.593,0,0,0,.41.8l.02.024a.561.561,0,0,0,.9-.676l-.022-.027a.593.593,0,0,0-.11-.1.532.532,0,0,1-.092-.1.846.846,0,0,1,.245-.034c.09,0,.116,0,.163.062a1.115,1.115,0,0,1-.589,1.4,1.042,1.042,0,0,1-.888-.15,1.411,1.411,0,0,1-.517-.871,5.164,5.164,0,0,1,.092-2.179,5.59,5.59,0,0,0,.873.386,5.188,5.188,0,0,0,4.314-.349,2.862,2.862,0,0,0,1.3-1.729,3.718,3.718,0,0,0-.132-2.129,3.642,3.642,0,0,1-.009,2.088,2.641,2.641,0,0,1-1.308,1.519,4.777,4.777,0,0,1-3.97.066,3.924,3.924,0,0,1-1.6-1.126,1.5,1.5,0,0,1-.277-1.6c.238-.554.679-.726,1.093-.495a.961.961,0,0,1,.411,1.207.555.555,0,0,0,1.029.413l.009-.024.013-.038c.015-.045.021-.092.032-.138a1.9,1.9,0,0,0,.718.771,2.509,2.509,0,0,0,2.652-.14,1.51,1.51,0,0,0,.611-1.214,1.129,1.129,0,0,0-.752-1.077,1.107,1.107,0,0,0-1.235.32c-.264.432.083.884.354,1.172-.264-.3-.558-.776-.3-1.132a1,1,0,0,1,1.126-.229.949.949,0,0,1,.59.94,1.255,1.255,0,0,1-.562.99,2.169,2.169,0,0,1-2.262.013,1.493,1.493,0,0,1-.619-.912,4.03,4.03,0,0,1-.035-1.214,17.718,17.718,0,0,0-.029-2.641,3.584,3.584,0,0,0-1.207-2.575,1.585,1.585,0,0,0-1.681-.234,1.9,1.9,0,0,0-.971,1.375A2.568,2.568,0,0,0,6.4,305.086l.038.019A.554.554,0,0,0,7,304.147a.561.561,0,0,0-.065-.032l-.009-.005a1.512,1.512,0,0,1-.957-1.532.955.955,0,0,1,.418-.7c.207-.114.425-.09.745.117a2.825,2.825,0,0,1,1,1.954,17.354,17.354,0,0,1,.178,2.531v.107a1.783,1.783,0,0,0-.787-.682m.632,6.06v.005c-.041.026-.027.011,0-.005" transform="translate(-4.956 -283.07)" fill="#fff"/><path d="M27.453,504.49c-.359-.392-.718.555,0,1.045a2.109,2.109,0,0,0,1.663.132c-.739.338-1.305-.786-1.663-1.177" transform="translate(-25.659 -473.882)" fill="#fff"/><path d="M99.317,469.551l1.051-1.046s-1.084-.295-1.051,1.046" transform="translate(-93.429 -440.203)" fill="#fff"/><path d="M82.173,460.259a1.259,1.259,0,0,0-.132,1.964A1.981,1.981,0,0,1,83,460.411c.452-.382-.3-.49-.831-.152" transform="translate(-76.847 -432.307)" fill="#fff"/><path d="M14.394,518.746c-.425-.653-.7.082-.132.654.427.427.726.434.85.411a1.788,1.788,0,0,0-1.361,1.958l2.226-2.226a2.532,2.532,0,0,1-1.583-.8" transform="translate(-13.189 -487.095)" fill="#fff"/><path d="M71.527,361.559a.588.588,0,1,0,0-1.142l-.216.054a1.41,1.41,0,0,0-.844.628,1.961,1.961,0,0,0-.274.839,2.536,2.536,0,0,0,.337,1.541,1.514,1.514,0,0,0,1.321.792,1.188,1.188,0,0,0,1.011-.961,1.015,1.015,0,0,1-1,.625,1.084,1.084,0,0,1-.8-.726,1.822,1.822,0,0,1-.032-1.122c.1-.358.348-.565.495-.529" transform="translate(-66.11 -338.867)" fill="#fff"/><path d="M85.54,449.568a17.936,17.936,0,0,0-2.641-.029,4.035,4.035,0,0,1-1.215-.035,1.5,1.5,0,0,1-.912-.619,2.167,2.167,0,0,1,.014-2.262,1.254,1.254,0,0,1,.99-.562.948.948,0,0,1,.939.59,1,1,0,0,1-.229,1.127c-.356.264-.829-.034-1.132-.3.288.271.74.621,1.173.354a1.106,1.106,0,0,0,.32-1.235,1.126,1.126,0,0,0-1.076-.751,1.5,1.5,0,0,0-1.214.611,2.509,2.509,0,0,0-.141,2.651,1.9,1.9,0,0,0,.771.718c-.046.012-.093.017-.137.032l-.038.013a.554.554,0,0,0,.362,1.048l.025-.009a.962.962,0,0,1,1.208.411c.23.414.059.858-.5,1.093a1.493,1.493,0,0,1-1.6-.277,3.934,3.934,0,0,1-1.127-1.6,4.78,4.78,0,0,1,.066-3.969,2.641,2.641,0,0,1,1.519-1.309,3.647,3.647,0,0,1,2.087-.009,3.716,3.716,0,0,0-2.127-.132,2.862,2.862,0,0,0-1.731,1.3,5.191,5.191,0,0,0-.349,4.313,5.583,5.583,0,0,0,.388.873,5.181,5.181,0,0,1-2.179.093,1.409,1.409,0,0,1-.87-.518,1.039,1.039,0,0,1-.151-.888,1.117,1.117,0,0,1,1.4-.589c.066.048.066.074.062.163a.885.885,0,0,1-.034.246.567.567,0,0,1-.1-.093.561.561,0,0,0-.912.654.529.529,0,0,0,.1.108l.026.022a1.593,1.593,0,0,0,.8.411.819.819,0,0,0,.685-.2.994.994,0,0,0,.279-.479,1.954,1.954,0,0,0,.039-.781,1,1,0,0,0-.543-.767,1.783,1.783,0,0,0-2.3,1.027q-.027.069-.047.141a1.519,1.519,0,0,0,.364,1.292,1.756,1.756,0,0,0,1.146.528,5.315,5.315,0,0,0,2.23-.355,4.067,4.067,0,0,0,.811,1.056,2.285,2.285,0,0,0,2.37.524,1.9,1.9,0,0,0,1.052-.864,1.645,1.645,0,0,0,.007-1.448,1.787,1.787,0,0,0-.679-.786h.106a17.129,17.129,0,0,1,2.531.178,2.825,2.825,0,0,1,1.954,1c.207.32.23.538.117.745a.95.95,0,0,1-.7.418,1.512,1.512,0,0,1-1.532-.957.554.554,0,0,0-1,.473l0,.007.02.04a2.567,2.567,0,0,0,2.678,1.421,1.9,1.9,0,0,0,1.373-.971,1.585,1.585,0,0,0-.235-1.68,3.589,3.589,0,0,0-2.572-1.206m-8.121.695h.005c-.02.025-.034.038-.009,0Z" transform="translate(-71.073 -418.216)" fill="#fff"/><path d="M58.674,524.7a2.106,2.106,0,0,0,.132,1.663c.489.718,1.437.359,1.045,0s-1.516-.928-1.177-1.663" transform="translate(-55.216 -492.921)" fill="#fff"/><path d="M100.439,468.885l-1.048,1.049c1.338.034,1.048-1.049,1.048-1.049" transform="translate(-93.499 -440.584)" fill="#fff"/><path d="M92.2,480.147c.337-.531.229-1.282-.153-.829a1.981,1.981,0,0,1-1.812.963,1.259,1.259,0,0,0,1.965-.134" transform="translate(-84.914 -450.235)" fill="#fff"/><path d="M17.011,536.968a2.54,2.54,0,0,1-.8-1.585l-2.226,2.226a1.787,1.787,0,0,0,1.958-1.36c-.023.123-.016.422.411.849.571.572,1.305.294.653-.13" transform="translate(-13.424 -502.934)" fill="#fff"/><path d="M163.647,473.636a1.085,1.085,0,0,1-.726-.8,1.018,1.018,0,0,1,.625-1,1.184,1.184,0,0,0-.959,1.011,1.511,1.511,0,0,0,.792,1.321,2.53,2.53,0,0,0,1.541.337,1.959,1.959,0,0,0,.839-.274,1.414,1.414,0,0,0,.629-.844l.053-.213a.588.588,0,0,0-1.14-.284.6.6,0,0,0,0,.284c.036.146-.172.39-.531.492a1.819,1.819,0,0,1-1.122-.032" transform="translate(-152.753 -443.354)" fill="#fff"/><path d="M1168.567,93.7a1.65,1.65,0,0,0,1.448-.009,1.892,1.892,0,0,0,.864-1.052,2.286,2.286,0,0,0-.523-2.37,4.07,4.07,0,0,0-1.056-.81,5.32,5.32,0,0,0,.355-2.23,1.755,1.755,0,0,0-.528-1.147,1.518,1.518,0,0,0-1.292-.363,1.783,1.783,0,0,0-1.215,2.209c.014.048.03.095.047.141a1,1,0,0,0,.767.543,1.923,1.923,0,0,0,.781-.039.99.99,0,0,0,.479-.278.819.819,0,0,0,.2-.686,1.6,1.6,0,0,0-.411-.8l-.019-.023a.561.561,0,1,0-.764.807.566.566,0,0,1,.093.1.852.852,0,0,1-.245.034c-.09,0-.116,0-.163-.062a1.116,1.116,0,0,1,.589-1.4,1.039,1.039,0,0,1,.888.15,1.412,1.412,0,0,1,.518.871,5.181,5.181,0,0,1-.093,2.179,5.494,5.494,0,0,0-.873-.386,5.186,5.186,0,0,0-4.312.349,2.86,2.86,0,0,0-1.3,1.729,3.723,3.723,0,0,0,.132,2.129,3.649,3.649,0,0,1,.008-2.088,2.641,2.641,0,0,1,1.309-1.519,4.777,4.777,0,0,1,3.969-.066,3.925,3.925,0,0,1,1.6,1.126,1.491,1.491,0,0,1,.277,1.6c-.238.555-.679.726-1.093.5a.961.961,0,0,1-.411-1.207.555.555,0,1,0-1.029-.413l-.009.023-.014.039c-.015.045-.021.092-.032.137a1.908,1.908,0,0,0-.718-.771,2.509,2.509,0,0,0-2.651.141,1.507,1.507,0,0,0-.611,1.214,1.127,1.127,0,0,0,.751,1.076,1.1,1.1,0,0,0,1.235-.32c.264-.433-.082-.884-.354-1.172.264.3.559.775.3,1.132a1,1,0,0,1-1.127.228.948.948,0,0,1-.59-.939,1.259,1.259,0,0,1,.561-.99,2.168,2.168,0,0,1,2.262-.013,1.5,1.5,0,0,1,.619.912,4.039,4.039,0,0,1,.035,1.215,17.943,17.943,0,0,0,.029,2.641,3.588,3.588,0,0,0,1.208,2.575,1.585,1.585,0,0,0,1.68.235,1.9,1.9,0,0,0,.971-1.375,2.568,2.568,0,0,0-1.421-2.678l-.038-.018a.554.554,0,0,0-.49.99l.009,0a1.512,1.512,0,0,1,.957,1.532.95.95,0,0,1-.418.7c-.207.114-.425.09-.745-.117a2.826,2.826,0,0,1-1-1.954,17.163,17.163,0,0,1-.178-2.531v-.107a1.794,1.794,0,0,0,.786.682m-.632-6.06v-.005c.04-.024.027-.009,0,.007Z" transform="translate(-1090.486 -81.297)" fill="#fff"/><path d="M1244.048,70.075c.359.392.719-.555,0-1.045a2.113,2.113,0,0,0-1.663-.132c.736-.339,1.3.786,1.663,1.177" transform="translate(-1165.198 -65.442)" fill="#fff"/><path d="M1187.617,109.616l-1.048,1.049s1.081.29,1.048-1.049" transform="translate(-1112.863 -103.725)" fill="#fff"/><path d="M1197.785,102.456a1.259,1.259,0,0,0,.132-1.965,1.981,1.981,0,0,1-.963,1.812c-.449.382.3.49.831.153" transform="translate(-1122.472 -95.169)" fill="#fff"/><path d="M1254.681,27.266c.424.654.7-.081.132-.653-.426-.427-.726-.434-.849-.411a1.788,1.788,0,0,0,1.36-1.958L1253.1,26.47a2.539,2.539,0,0,1,1.583.8" transform="translate(-1175.243 -23.678)" fill="#fff"/><path d="M1191.842,173.613a1.512,1.512,0,0,0-1.321-.792,1.189,1.189,0,0,0-1.011.959,1.017,1.017,0,0,1,1-.625,1.085,1.085,0,0,1,.8.726,1.821,1.821,0,0,1,.031,1.122c-.1.36-.346.568-.492.532a.588.588,0,1,0,0,1.142l.216-.054a1.416,1.416,0,0,0,.844-.628,1.966,1.966,0,0,0,.274-.839,2.535,2.535,0,0,0-.339-1.543" transform="translate(-1115.622 -162.987)" fill="#fff"/><path d="M1021.512,19.058a17.936,17.936,0,0,0,2.641.029,4.035,4.035,0,0,1,1.214.035,1.491,1.491,0,0,1,.913.619,2.17,2.17,0,0,1-.013,2.262,1.259,1.259,0,0,1-.99.561.949.949,0,0,1-.939-.594,1,1,0,0,1,.229-1.126c.356-.264.829.034,1.132.3-.288-.271-.74-.621-1.172-.353a1.106,1.106,0,0,0-.32,1.235,1.128,1.128,0,0,0,1.077.751,1.509,1.509,0,0,0,1.214-.611,2.509,2.509,0,0,0,.14-2.652,1.91,1.91,0,0,0-.771-.718c.046-.012.093-.016.138-.032l.036-.013a.554.554,0,0,0-.362-1.048l-.026.009a.961.961,0,0,1-1.207-.411c-.232-.413-.059-.854.495-1.093a1.5,1.5,0,0,1,1.6.277,3.933,3.933,0,0,1,1.126,1.6,4.774,4.774,0,0,1-.066,3.969,2.641,2.641,0,0,1-1.519,1.309,3.657,3.657,0,0,1-2.088.009,3.72,3.72,0,0,0,2.129.132,2.856,2.856,0,0,0,1.729-1.3,5.186,5.186,0,0,0,.349-4.313,5.481,5.481,0,0,0-.387-.873,5.194,5.194,0,0,1,2.179-.092,1.407,1.407,0,0,1,.871.518,1.04,1.04,0,0,1,.15.888,1.115,1.115,0,0,1-1.4.588c-.066-.048-.066-.073-.062-.163a.853.853,0,0,1,.034-.245.6.6,0,0,1,.1.092.561.561,0,1,0,.912-.654.583.583,0,0,0-.1-.109l-.026-.02a1.593,1.593,0,0,0-.8-.411.818.818,0,0,0-.686.2.988.988,0,0,0-.278.479,1.939,1.939,0,0,0-.04.782,1,1,0,0,0,.543.767,1.783,1.783,0,0,0,2.3-1.027q.027-.07.047-.141a1.519,1.519,0,0,0-.363-1.292,1.753,1.753,0,0,0-1.147-.528,5.315,5.315,0,0,0-2.23.355,4.057,4.057,0,0,0-.81-1.056,2.286,2.286,0,0,0-2.37-.524,1.9,1.9,0,0,0-1.052.865,1.651,1.651,0,0,0-.009,1.448,1.783,1.783,0,0,0,.679.786h-.107a17.135,17.135,0,0,1-2.531-.178,2.827,2.827,0,0,1-1.954-1c-.207-.32-.23-.537-.117-.745a.956.956,0,0,1,.7-.418,1.513,1.513,0,0,1,1.532.957.554.554,0,0,0,1-.473l0-.006-.02-.041a2.567,2.567,0,0,0-2.677-1.42,1.9,1.9,0,0,0-1.375.971,1.585,1.585,0,0,0,.235,1.68,3.588,3.588,0,0,0,2.574,1.21m8.121-.7,0,0c.019-.027.034-.042,0,0" transform="translate(-955.336 -15.17)" fill="#fff"/><path d="M1223.3,39.373a2.108,2.108,0,0,0-.132-1.663c-.489-.718-1.435-.359-1.045,0s1.518.926,1.177,1.663" transform="translate(-1146.113 -35.915)" fill="#fff"/><path d="M1186.143,110.641l1.049-1.048c-1.341-.034-1.049,1.048-1.049,1.048" transform="translate(-1112.439 -103.703)" fill="#fff"/><path d="M1177.938,92.431c-.338.533-.23,1.283.152.829a1.981,1.981,0,0,1,1.812-.963,1.259,1.259,0,0,0-1.964.133" transform="translate(-1104.581 -87.103)" fill="#fff"/><path d="M1236.428,24.671a2.54,2.54,0,0,1,.8,1.585l2.227-2.226a1.788,1.788,0,0,0-1.958,1.36c.023-.123.016-.423-.411-.849-.571-.572-1.306-.294-.653.13" transform="translate(-1159.373 -23.464)" fill="#fff"/><path d="M1080.885,81.343a1.084,1.084,0,0,1,.726.8,1.017,1.017,0,0,1-.625,1,1.188,1.188,0,0,0,.961-1.012,1.513,1.513,0,0,0-.792-1.321,2.536,2.536,0,0,0-1.541-.337,1.974,1.974,0,0,0-.839.275,1.407,1.407,0,0,0-.628.845l-.053.213a.588.588,0,1,0,1.14,0c-.036-.146.172-.39.533-.492a1.816,1.816,0,0,1,1.119.033" transform="translate(-1011.138 -76.385)" fill="#fff"/><path d="M1169.194,304.082l-.009.005a.554.554,0,0,0,.49.99l.038-.019a2.567,2.567,0,0,0,1.421-2.677,1.9,1.9,0,0,0-.971-1.375,1.584,1.584,0,0,0-1.68.234,3.588,3.588,0,0,0-1.208,2.575,17.943,17.943,0,0,0-.029,2.641,4.027,4.027,0,0,1-.035,1.214,1.494,1.494,0,0,1-.619.913,2.169,2.169,0,0,1-2.262-.013,1.259,1.259,0,0,1-.561-.99.949.949,0,0,1,.59-.94,1,1,0,0,1,1.127.229c.264.356-.034.829-.3,1.132.272-.288.621-.74.354-1.172a1.106,1.106,0,0,0-1.235-.32,1.127,1.127,0,0,0-.751,1.077,1.507,1.507,0,0,0,.611,1.214,2.509,2.509,0,0,0,2.651.14,1.9,1.9,0,0,0,.718-.771c.012.046.017.093.032.138l.014.038.009.024a.555.555,0,1,0,1.029-.413.961.961,0,0,1,.411-1.207c.414-.232.858-.06,1.093.495a1.493,1.493,0,0,1-.277,1.6,3.925,3.925,0,0,1-1.6,1.126,4.774,4.774,0,0,1-3.969-.066,2.637,2.637,0,0,1-1.309-1.519,3.648,3.648,0,0,1-.009-2.088,3.725,3.725,0,0,0-.132,2.129,2.861,2.861,0,0,0,1.3,1.729,5.187,5.187,0,0,0,4.312.349,5.582,5.582,0,0,0,.873-.386,5.177,5.177,0,0,1,.093,2.179,1.413,1.413,0,0,1-.518.871,1.041,1.041,0,0,1-.888.15,1.116,1.116,0,0,1-.589-1.4c.048-.066.074-.066.163-.062a.852.852,0,0,1,.246.034.569.569,0,0,1-.093.1.561.561,0,1,0,.765.807l.019-.024a1.594,1.594,0,0,0,.411-.8.819.819,0,0,0-.2-.686.99.99,0,0,0-.479-.278,1.937,1.937,0,0,0-.781-.04,1,1,0,0,0-.767.543,1.783,1.783,0,0,0,1.027,2.3q.07.027.141.047a1.518,1.518,0,0,0,1.292-.363,1.758,1.758,0,0,0,.528-1.147,5.313,5.313,0,0,0-.355-2.23,4.064,4.064,0,0,0,1.057-.81,2.286,2.286,0,0,0,.524-2.37,1.893,1.893,0,0,0-.865-1.052,1.645,1.645,0,0,0-1.448-.009,1.79,1.79,0,0,0-.786.679v-.107a17.164,17.164,0,0,1,.178-2.531,2.824,2.824,0,0,1,1-1.954c.319-.207.538-.23.745-.117a.949.949,0,0,1,.418.7,1.511,1.511,0,0,1-.957,1.534m-1.225,7.857v-.005c.024.019.038.034,0,.007Z" transform="translate(-1090.518 -283.044)" fill="#fff"/><path d="M1244.048,505.5c.719-.489.359-1.436,0-1.045s-.924,1.519-1.663,1.175a2.108,2.108,0,0,0,1.663-.13" transform="translate(-1165.198 -473.852)" fill="#fff"/><path d="M1186.568,468.507l1.048,1.049c.032-1.343-1.048-1.049-1.048-1.049" transform="translate(-1112.863 -440.204)" fill="#fff"/><path d="M1197.994,462.22a1.259,1.259,0,0,0-.132-1.964c-.532-.337-1.282-.23-.829.153a1.982,1.982,0,0,1,.961,1.812" transform="translate(-1122.544 -432.304)" fill="#fff"/><path d="M1253.9,519.81c.123.023.423.016.849-.411.572-.572.294-1.307-.132-.654a2.535,2.535,0,0,1-1.585.8l2.226,2.226a1.788,1.788,0,0,0-1.358-1.958" transform="translate(-1175.182 -487.095)" fill="#fff"/><path d="M1190.541,363.923a1.016,1.016,0,0,1-1-.625,1.189,1.189,0,0,0,1.011.961,1.512,1.512,0,0,0,1.32-.792,2.531,2.531,0,0,0,.337-1.541,1.958,1.958,0,0,0-.274-.839,1.409,1.409,0,0,0-.844-.628l-.216-.054a.588.588,0,1,0,0,1.142c.146-.036.39.171.492.531a1.82,1.82,0,0,1-.032,1.122,1.085,1.085,0,0,1-.8.724" transform="translate(-1115.651 -338.854)" fill="#fff"/><path d="M1031.554,450.168a1.783,1.783,0,0,0-2.209-1.216q-.071.021-.141.047a1,1,0,0,0-.543.767,1.933,1.933,0,0,0,.04.781.985.985,0,0,0,.278.479.82.82,0,0,0,.686.2,1.592,1.592,0,0,0,.8-.411l.027-.022a.56.56,0,1,0-.81-.762.561.561,0,0,1-.095.093.853.853,0,0,1-.034-.246c0-.09,0-.116.062-.163a1.117,1.117,0,0,1,1.4.589,1.042,1.042,0,0,1-.15.888,1.412,1.412,0,0,1-.871.518,5.182,5.182,0,0,1-2.179-.093,5.409,5.409,0,0,0,.388-.873,5.187,5.187,0,0,0-.349-4.314,2.863,2.863,0,0,0-1.729-1.3,3.719,3.719,0,0,0-2.129.132,3.65,3.65,0,0,1,2.088.009,2.637,2.637,0,0,1,1.519,1.309,4.774,4.774,0,0,1,.066,3.969,3.926,3.926,0,0,1-1.126,1.6,1.5,1.5,0,0,1-1.6.277c-.554-.238-.726-.679-.494-1.093a.961.961,0,0,1,1.207-.411l.026.009a.554.554,0,0,0,.362-1.048l-.036-.013c-.045-.015-.092-.02-.138-.032a1.9,1.9,0,0,0,.771-.718,2.509,2.509,0,0,0-.14-2.651,1.507,1.507,0,0,0-1.214-.611,1.128,1.128,0,0,0-1.077.751,1.106,1.106,0,0,0,.32,1.235c.432.264.884-.083,1.172-.354-.3.264-.776.559-1.132.3a1,1,0,0,1-.229-1.127.949.949,0,0,1,.939-.59,1.26,1.26,0,0,1,.99.562,2.169,2.169,0,0,1,.013,2.262,1.493,1.493,0,0,1-.912.619,4.031,4.031,0,0,1-1.214.035,17.944,17.944,0,0,0-2.641.029,3.587,3.587,0,0,0-2.575,1.208,1.584,1.584,0,0,0-.235,1.68,1.9,1.9,0,0,0,1.375.971,2.566,2.566,0,0,0,2.677-1.421l.02-.04,0-.007a.554.554,0,1,0-1-.473,1.511,1.511,0,0,1-1.532.957.95.95,0,0,1-.7-.418c-.114-.207-.09-.425.117-.745a2.826,2.826,0,0,1,1.954-1,17.122,17.122,0,0,1,2.531-.178h.107a1.789,1.789,0,0,0-.679.786,1.651,1.651,0,0,0,.009,1.448,1.892,1.892,0,0,0,1.052.864,2.286,2.286,0,0,0,2.37-.524,4.083,4.083,0,0,0,.81-1.056,5.316,5.316,0,0,0,2.23.355,1.758,1.758,0,0,0,1.147-.528,1.518,1.518,0,0,0,.364-1.293m-1.922.1h0c.027.04.012.027,0,0Z" transform="translate(-955.337 -418.224)" fill="#fff"/><path d="M1223.214,526.366a2.108,2.108,0,0,0,.132-1.663c.342.737-.783,1.3-1.175,1.663s.553.718,1.042,0" transform="translate(-1146.158 -492.921)" fill="#fff"/><path d="M1187.192,469.934l-1.049-1.049s-.292,1.082,1.049,1.049" transform="translate(-1112.439 -440.584)" fill="#fff"/><path d="M1177.941,480.133a1.258,1.258,0,0,0,1.964.132,1.981,1.981,0,0,1-1.812-.963c-.382-.452-.49.3-.152.831" transform="translate(-1104.584 -450.221)" fill="#fff"/><path d="M1237.225,535.393a2.54,2.54,0,0,1-.8,1.585c-.653.424.082.7.653.132.427-.427.434-.726.411-.849a1.788,1.788,0,0,0,1.958,1.36Z" transform="translate(-1159.373 -502.944)" fill="#fff"/><path d="M1079.245,473.175a.587.587,0,1,0-1.14,0l.053.213a1.41,1.41,0,0,0,.628.844,1.961,1.961,0,0,0,.839.274,2.529,2.529,0,0,0,1.541-.337,1.513,1.513,0,0,0,.792-1.321,1.189,1.189,0,0,0-.961-1.011,1.017,1.017,0,0,1,.625,1,1.085,1.085,0,0,1-.726.8,1.816,1.816,0,0,1-1.123.032c-.358-.1-.568-.346-.529-.492" transform="translate(-1011.149 -443.354)" fill="#fff"/></g></g></g></g><path d="M149.391,166.442c-.77.056-1.653.094-2.705.094-1.108,0-2.4-.038-3.927-.094-2.029-.075-4.171-.77-5.2-2.893a24.934,24.934,0,0,1-3.231,3.231l-1.221-2.518a13.2,13.2,0,0,0,2.4-.714v-6.594h-1.766v-.7h4.133v6.576c1.184,1.315,2.536,1.635,4.885,1.635a48.389,48.389,0,0,0,7.233-.564Zm-13.133-11.573a14.569,14.569,0,0,0-1.879-3.476l.432-.507a18.851,18.851,0,0,1,3.4,1.879Zm11.179,8.661a20.876,20.876,0,0,0-3.062-4.321c-.752,2.161-2.424,3.626-5.373,4.284l-.263-.545a5.924,5.924,0,0,0,3.682-4.772h-3.833V157.5h3.927a13.34,13.34,0,0,0,.075-1.559v-1.334h-3.457v-.676h2.217a18.251,18.251,0,0,0-1.428-3.588l.507-.432a19.583,19.583,0,0,1,3.325,2.687l-1.86,1.334h2.161a14.023,14.023,0,0,0,1.635-4.021l2.555,1.447a13.3,13.3,0,0,1-3.119,2.574h3.758v.676h-3.964v1.334a10.325,10.325,0,0,1-.113,1.559h4.7v.676h-4.828a3.1,3.1,0,0,1-.094.413,24.524,24.524,0,0,1,4.734,2.461Z" transform="translate(825.378 443.132)" fill="#fff"/><path d="M429.808,166.5v-9.657c-.526.676-1.108,1.353-1.747,2.067l-.376-.395a21.966,21.966,0,0,0,3.175-8.905l2.386.752a25.711,25.711,0,0,1-1.372,3.231V166.5Zm3.138-13.565v-.676h4.547v-2.649h2.424v2.649h4.678v.676Zm8.1,13.565V165.32H436.4V166.5H434.11V160.1h9.225v6.425ZM434.3,154.837h8.661v.676H434.3Zm0,2.536h8.661v.676H434.3Zm6.745,3.4H436.4v3.889h4.641Z" transform="translate(549.564 443.409)" fill="#fff"/><path d="M800.037,140.823l8.855,14.26a.748.748,0,0,0,1.155.144l2.592-2.5,2.121,2.052a.748.748,0,0,0,1.266-.481l.359-4.686-16.447-9.1a.745.745,0,0,0,.1.312m20.713,3.534a.748.748,0,0,0-.563-.526L800.829,139.7a.744.744,0,0,0-.3,0l16.277,9.008,3.742-3.607a.749.749,0,0,0,.2-.744" transform="translate(198.818 454.893)" fill="#fff"/></g></svg>